<mxfile host="app.diagrams.net" agent="Mozilla/5.0 (X11; Linux x86_64; rv:136.0) Gecko/20100101 Firefox/136.0" version="28.2.4">
  <diagram id="e955Cdrz0ekv80djXPw1" name="Page-1">
    <mxGraphModel dx="2528" dy="899" grid="1" gridSize="10" guides="1" tooltips="1" connect="1" arrows="1" fold="1" page="1" pageScale="1" pageWidth="850" pageHeight="1100" math="0" shadow="0">
      <root>
        <mxCell id="0" />
        <mxCell id="1" parent="0" />
        <mxCell id="6XTI--pssBej2aboavZY-11" style="edgeStyle=orthogonalEdgeStyle;rounded=0;orthogonalLoop=1;jettySize=auto;html=1;entryX=0.75;entryY=0;entryDx=0;entryDy=0;strokeWidth=4;fillColor=#e51400;strokeColor=#B20000;flowAnimation=1;" edge="1" parent="1" source="6XTI--pssBej2aboavZY-4" target="6XTI--pssBej2aboavZY-8">
          <mxGeometry relative="1" as="geometry">
            <Array as="points">
              <mxPoint x="542" y="330" />
              <mxPoint x="445" y="330" />
            </Array>
          </mxGeometry>
        </mxCell>
        <mxCell id="6XTI--pssBej2aboavZY-4" value="" style="shape=image;verticalLabelPosition=bottom;labelBackgroundColor=default;verticalAlign=top;aspect=fixed;imageAspect=0;image=data:image/png,iVBORw0KGgoAAAANSUhEUgAAAgAAAAIACAYAAAD0eNT6AAAABHNCSVQICAgIfAhkiAAAIABJREFUeF7t3QecXFXd//HvbO9JdtN7D0kgofdepUkVEQsWfOwV9NFHsfu3oPggCiiCoFhQ4UG6hV5CIAIpQEghvSe7yfYys/N//e4mlDDn7uzulHtnPm9e80rInZ05d2Z2zu+e8zu/IwEAAAAAAAAAAAAAAAAAAAAAAAAAAAAAAAAAAAAAAAAAAAAAAAAAAAAAAAAAAAAAAAAAAAAAAAAAAAAAAAAAAAAAAAAAAAAAAAAAAAAAAAAAAAAAAAAAAAAAAAAA0GeRPv8EgqBK0kmSjpE0W9JwSYOD0DAAgdQoabukpZKekvQvSTsC2VJkDAFAuIyX9A1JF0uqDFfTAQRIp6S7JX1L0ksBahcyiAAgHAZJulLSpySVhaPJAEIgJulWSV+XtCkE7UUKEQAE35Tdkfqs4DcVQEhZ53+epPkhbT/6oaAfP4PMOVbSsxKdP4C0GiXpUUkXpfVZECiMAATXDEnPkNwHIIO6JJ0m6ZEMPieyhAAgmIbs7vynB7N5AHKYrQ44TNLKHD5HSAQAAXWjpMv82lZcGNE7Z4/SWbNHasawKg2rKlFBhHgOyHVbmzv6fIr1rV1a29Cqh5dv030vb1Frl+X++fq3pFN874HQo8cInpmSFkkqcjXtxGnD9OOzZ2tSbYXrLgByUHc8rm3NtoKv/3a0dOiqR1bo7pc29/Yg75D0j97uhPAqDG/Tc9avdhf3Segjh03QDRfOVW1FScLjAHJXtFtq6/3q3VdFSZFOnj5cZcWFmre63u++VmTMvo+QowgAgsUycW+QEq/OeMc+w3XdhXNVWMDADZCPot1xtVsUkAIHjh2sne1RLd5kRQITsu+jByVtSHgUoccywGB5p2vov7y4UD89Z1/m+YE8ZgFAKl1x/BSNqC71e8jz/Q4i3AgAguV4V3Pef/A4jaymCCCQz6Ldqbn636O0qNCbVvRxnM8xhBwBQLDYnFtCZ88emfDfAeSPVI8AGMsH8FlAZN9JzDnmKAKAYBnnas7c0bYdAIB8FY9LsRRPAZiR1aV+ScW286jVJUEOIgAIloQ7/FWWFHo3APmrq7vbCwLSYXiVbx5AdTqeE9lHABAsCXv5kkLeJiDfdaYo+z+RYv+VRQm/lxB+9CwAEAKdsdQmAAIEAAAQcDb0n44EQOQ3AgAACDi7+k/X/D/yFwEAAATcQMv/AokQAABAgNkGQMz/Ix0IAAAgwNq7GP5HehAAAECAtUVjAW4dwowAAAACqisWVzSWpuo/yHsEAAAQUM2d0YC2DLmAAAAAAsiu/tNZ/Q8gAACAAGrh6h9pRgAAAAFjV/8daaz9DxgCAAAImKaOroC1CLmIAAAAAsSq/tkIAJBuBAAAEBBW9a+5g8x/ZAYBAAAERHNHTN1c/CNDCAAAIAAs6Y9Nf5BJBAAAkGWx7rga20n8Q2YRAABAlu1q72LoHxlHAAAAWdTUESXrH1lBAAAAWWJz/q2d7PaH7CAAAIAssKS/xnaW/CF7CAAAIMM6Y93evD+QTQQAAJBB1vnvbOtSnPX+yLKiLD8/AOQNG/a3K386fwQBAQAAZEB7V0y7mPNHgBAAAECatXTGqPGPwCEAAIA0saH+xo4utXd1p+kZgP4jAACANLAtfW2+38r8AkFEAAAAKWYFfqzCH8l+CDICAABIkWh33Ov4O6MM+SP4CAAAYIDsSr+lM6rWrhhX/QgNAgAAGABb3tfcGWOuH6FDAAAAfWRX/B1ROn6EGwEAACSpOx73lvTZUD/Z/Qg7AgAA8GFX+1a/3zL77U8y+5ErCAAAYC92pW/r+K12vw31s5QfuYgAAEDes+V7NqRvV/h2i8Yo3oPcRwAQEnYlAqD/4vG4rFu3q3m7wrcOf0/HD+QjAoAQsC8s2z8cAIBUKUjVAwEAgPAgAAAAIA8RAAAAkIcIAAAAyEMEAAAA5CECAAAA8hABAAAAeYgAIFgSVvuxoiUAkC69FD5M+L2E8CMACJbWRM1p7oxSCRBA2uxo7fB77Ea/gwgvAoBg2ZyoOTYAsKYhYWwAAANiFxjbmztdj9EmaafrIMKNACBYXnE155Hl21yHAKDfnli5w9sTwWGpbZ/gOIaQIwAIliddzfnTCxvUHo25DgNAn9no4u//s87v5x7zO4hwIwAIlrtdzdna3KEbnl7tOgwAfXbn4o16ccMuv59zfich/ArDfwo5ZYekkyRNSHRWz2/YqQlDKjR9WFWiwwCQtAXrduqKe5Z42yI7rJB0heTtoowcRAAQPCslfcjVrIeWb1dE0v5jBquwwP4GAMmzYf87Fm30Ov/OqO/0/iclLUn+kRE29CDBZMNuZ/s1bWJthT54yHidNG2o6ipL/e4KAGrs6NLjK3fod8+t05LNva7se1bS4Vz95zYCgGCaLHm/gHW9NS8SkeoqSjS0slQFkYgX0W9r6fASBqkfBOQf+04oLSrU0MoSlRUVKq64drR0akdrp99w/5u1SDpa0ov59+rlFwKA4DpG0r8llQS3iQByjM33v0fS7Tl2XkiAHIDgWivJ1uecJbFaA0DaWedvSX+/SfszIRAYAQg+Gwm4Q9Kw4DcVQEg1S7pU0p0hbT/6gToAwfeEpCMkPRj8pgIIocd3f8fQ+ecZAoBwsKWBp0s6WdL8cDQZQMAtkvROScex3C8/MQUQTvtJOkfypgdmShoXztMAkEEbJW+/ERtVvEfS8xl8bgQQAUDusPKAVrQjYRXBv7xnhspLGPABctH5ty1VVyxhwT5b8D9WUlMunjcGpmhgP44AsSQeZ1mvqtICVRQTAAB5xqICOn8kRI8AAEAeIgAAACAPEQAAAJCHCAAAAMhDBAAAAOQhAgAAAPIQAQAAAHmIAAAAgDxEAAAAQB4iAAAAIA8RAAAAkIcIAAAAyEMEAAAA5CECAAAA8hABAAAAeagoD88ZGdAR7dZLW9u0fHubNjV1qa2r2/s3INcUF0ZUXlyokVXFmlRbpv1GVqiqhGsrBB8BAFJq8ZZW3bF4h55e16xOOnzkocJIRAePrdI5M2t15ISqPHwFEBYEAEiJtTs7dPOCrXpsVaPiKXlEIJxi8bjmr2vybrNGVOhjhw7X3JGV4TwZ5DQCgDxhVyV2S4d7ltbr6ic3KdpN1w+82ctbWvX5e1br4rlD9dFDRqggPb+CQL8QAOSJIeVFqkzxvGSsO64fPLZBf1q4PU9eRaDvLCy235H1uzr1tRPGqKyI/AAEA59E9BudP5C8J1Y36hv/Xu9NEQBBQACAfrnzpXqu/IE+enZdk37z3NY+/hSQHkwBoM9W1rfr2w+t6/3nKmsUOfRUab8jpdqRUll57z+TK+wqr7tbinVJsZgUi0pxlkHmpK5Oaed2acUixRc8JDXu8D1Nmw44cHSVDhlLYiCyiwAAffaz3hL+ikoUeffnFHnXZ6VylkG9rjsmRaM9QYF1Gl5QwHBwzjjhQkU++DXF//1nxf96rdTW7Dy16+dv1kFjppAUiKxiCgB98vzGFj3y2i73z9TUquBHdynygf+h899bQaFUUtrzutTUSoOHSVWDpdJyqYBfxZxQXKrI6Zeq4Lu3SyPGOU/ptfp2/WvFTudxIBP41kGf3PbCNvf9i4oVufJWad8j3PfBG2xZpgUElTU9wcDgoT1/Ly6RdwzhZVf3X71ZqhniPIc7l9Q7jwGZQACApLVHu/Xoqkbn/SPv/rwic452HkcvbITARgOqh/QEBNW7RwcIBsJpxDhFLrnC2fZXt7dpQ2On8ziQbgQASNoLG1vc9fwt4e/CzyT9WOiFdfrFu0cHhgzvuZK04IBgIFQix5wrjZrkbPPzG1qcx4B0IwBA0pZua3PeN3LYaVJFtfM4Bqio5I2pAssbKCkjGAiDgkJFjjjd2VJbUQNkC6sAkDTf4Urm/TNjT96A5Q7YCgJbTdDR2vMngmnGgc52bWzqch4D0o0AAElr7fRZx27r/JFZbw4GbElhZ7vU3srSwoCJ1I5wbpDV0hkLWGuRTwgAkLQuv81+8qnITxAVFvUsLyyrZFQgaEornC1iAy1kEwEAkEv2HhXoaJN3o+AQgL2QBAjkKhsVsMRMqy9QXknSIIC3YAQAyHWRgjemB7w8gZae/QkA5DUCACBf2PSA1RKwW4cFAs0EAkAeIwAA8lFpmbxbZ4fU1kQgAOQhAgAgn1k9AbsRCAB5hwAAQE8QYIGATQ3YiEC3T80HADmBAADAG2xawAsE2nr2s2f5IJCzCAAAvJUlC5ZV9AQCbS09wQCAnEMdAACJ2fbElTVSTa1UVJz4PgBCiwAAgD/r/C0IsF0IC/jKAHIFv80AkmO5AYN2VxUEEHoEAACSZ/kB5VU9IwJWahhAaBEAAOg7mxYYVNcTDFhQACB0CAAA9J9tMkSSIBBKBAAABsamAiwIsJ0HGQ0AQoMAAEBqWO0ACwTIDQBCgQAAQOpY5+/lBlSm7jEBpAUBAIDUs5UC1dQNAIKMAABAehRb3YA6qaQsPY8PYEAIAACkT6RAqhrUU1IYQKAQAABIv9JyqWYIqwSAACEAAJAZRSU9UwJsLAQEAgEAgMyxHQZtqSCrBICsIwAAkHm2SqByEFMCQBYRAADIjtIyqZq8ACBbCAAAZM+eTYUKC7PXBiBPEQAAyK49eQEkBwIZRQAAIPusXoBNB1A0CMgYAgAAwWA7CVrRIFYIABlBAAAgWLwVAjXBahOQgwgAAASPVQ60ZYIA0oYAAEAwecsEB1MrAEgTAgAAwWU7ChIEAGlBAAAg2GwPAYIAIOUIAAAEnxcEUDUQSCUCAADhYIWCCAKAlCEAABAeXhBAYiCQCgQAAMLFpgOsYJAVDgLQbwQAAMLHVgdQJwAYEAIAAOFUQhAADAQBAIDwsmJBlA0G+oUAAEC4WdlgNhAC+owAAED42QZCbCUM9AkBAIDcYFMBtkwQQFIIAADkBlsWaDUCCgtz43yANCMAAJA7IgVUCwSSRAAAILcUFFItEEgCAQCA3GPVAiuqc++8gBQiAACQm2x5oN0AJEQAACB32ShAYVHunh8wAAQAAHLXnpUBbBwEvA0BAIDcZkmBtnsggLcgAACQ+2z3QKsWCOB1BAAA8oPtF1Bckh/nCiSBAABA/rByweQDAB4CAAD5w/IBKskHAAwBAID8UlJKfQCAAABAXvLqA7BpEPIbIwAA8o/lAdhUAPkAyGMEAADyU1GxVFaZn+cOMAUAIK/Z0kBKBSNPMQIAIL/Z0kAgDxEAAMhv3lRARX6/BshLBAAAYGWCC/g6RH7hEw8A3qoApgKQXwgAAMDYhkElZbwWyBsEAACwR2U1tQGQNwgAAGCPSAHbBiNvEAAAwJvZigDKBCMPEAAAwN5srwAgxxEAAMDeLCGwuGTvfwVyCgEAACTCKAByHAEAACRiewRQIRA5jAAAAFxssyC2DEaOIgAAABdbFsgoAHIUAQAA+CljFAC5qSg3TwsZ99S9im9eI1UNVmT4WGnMVKlqUMabAaScTQFYENDWnPKHBrKJAABOXbG4Fm9p1fx1TZq/rlkvbmpx3jd+z02vH4vv+duQ4YpM21/a/xhF5h4jTdlP3pAqEDY2DdDeIsVf/3QDoUcAgLd5aWur7n65Qfe92qCGtujbjietYaviz/5TevafPUFB3UhFjjlHkVMukabOSfphgKyzUQDbMri1KetNAVKFAACeaHdc9y5t0G8WbNWq+vb0vCo7Nit+16+8m/Y9XJF3f1GRQ04myxrhUFreMwrQ3R2O9gK9IADIczag+X8v1ev6+Zu1sbEzc6/GkmcUX3KR4lPnKPKRbyly4AmZe26gP/bkAjAKgBxBAJDHXt3Wpu88vN53bj/tVixS/KvnS4edpsinfyJZAiEQVDYKYMmA5AIgB5CRlYe64/Ku+N/1p2XZ7fzfJD7/H+r+2JGKP3JHHr4jCA0bBbAgAMgBjADkme0tXfrvB9fqmXX9S2aqKyjQ1OJiTS4q0qCCAu9WKKlLUlN3t3Z0d2tlV5dWRqPa1de50tYmxX94mbToSUU+/gOptCzP3h2Egq0I6GhjFAChRwCQR1bWt+ujd67UlmbrrpNTEonopLIyHVdWpiNKSzW+KPmPzLKuLs3r6NDD7e16qr1dseSeUvH7b1F81RIVfOd2qaY2yZ8CMqSgUN5ugZ1pSpYFMiT5b3OE2uLNrfri/au0qz25bnhSUZE+XFWlsysqvKv8/pheXOzdLq2q0pZYTP/X2qrfNjdrayyJNryyQN2Xn66C799BXgCCx/YIIABAyPXvmx2h8+l7Xkuq859QVKRra2v1r5Ej9b6qqn53/nsbUVioj1dX64mRI/XdwYO9qYRerV2m7svPkLZv6vWuQEbZToHFJRl9SiDVkvgWRi5o6/Jfu1waiejzNTX6x4gROquiwpvXTwebUrDA4qGRI3VJVVXvH8Ct69T9tQuk5p3paA7Qf2wShJAjAIA33H/n8OH6XE2NFwhkgk0rfH/wYF1XV6chvY0GrH5F3d98jxRNPncBSDvLA+jtswsEGAFAnrMEv3tGjNCs4uKsvBKnlJfrD8OGaWZvz2+Fg27+TlbaCDiVVjgPAUFHAJDHzquo0A11darM0FV/IvYBnFhUpOvr6rxVBn7id/5S8afv87sLkFll1ARAeBEA5KlzKyr009paFWWx89+jPBJRdUGBfjJkiA7zCwLiccWv+QL5AAgO292yxD9wBYKKACAPnVxerqtqa5WZ2f7klEUiXjDyg8GDNcNvOmDnNsVv+V5yDwpkApUBEVIEAHnGKvhdY1f+ATtvGwWwD2NlQYF+XFurGp/kqvh9t0grFgbsDJC3SAZESBEA5Bbfi3rL8P9lXZ0qAjDsvzdruI0CmJEFBfrGoEHuk+mOKf67H+z9EED2MAqAECIAyC1Vfqfz6epq7eM3vJ5lb16CeExZmU4rdydY2eZBWv5illsM7EYAgBAiAMgd9l4Ocp2ODf3/V3W163AgFO+eBtjjszU1qvKbCvjrtYFoN+DtD2DVAYEQIQDIHcdJci7m/9KgQV4VvqB7cxutXPAllZXOJsefuldqrHceBzKKUQCEDAFA7ni/61SmFhXpVJ/h9CDZe1niuysqvCWCCUU7FX/8roSHgIxjOSBCxvHNipApk3Shq82XVVeH5o3eexDVpgDO8gle4g//xXXaQGbZNECRcxAOCBwCgNxwpKSEE/yWWX+GTwcaNHuPAJgzKnzKrb6yQGreFbTTQL4qsVgcCAcCgNxwgus0rNa+cwg9gOwDuXemwvSiIk12rV6wJYGLnw7gmSAvlRIAIDwIAHKDMwA4rix8X0h7BwDGd5+AhU/kxruI8LPSwEwDICQIAHLDfq7TONyvtn5AFSRYrXBQSYm7tatech8DMo1pAIQEAUD4jZZUk+g0RhYWakxhYaJDgZZoBGBf1xSApPi6ZYE+H+SZYp9gFQgQAoDw28d1ClOK9s6pD4d4gmYOKijwbgnt2Cy1NiU8BGScFQRyfVaBAHF8oyJEbAQgoUk+V81BligAMOP8RjPqNwf5lJBvbIMgIOAIAMIv4fI/MySkVyHxeOIQYLDf+bS1hP+dRO4gAEAIEACEn3MDoMoEyXRB1y15t0TKfQKAOFMACBLLAwjh7x/yCwFA+DnHGsNQ+39vMcfVv/GtsdbZsfdDAdljnT+bAyHgCADCr9V1Cm0+nWlQRX0a5nc+kTKfaoFANrAcEAFHABB+zvT31m7XYHpwdfkELS0+x1Tu3jUQyAoKAiHgCADCr9F1ClvCGAC4TkbSdr/zKXemQgDZYQEAeQAIMAKA8FvtOoXXuvy60+CJSc4cABvLWB91TBBY+dVhY4J3QgB5AAgwAoDwe9V1CiuiUeea+iBq9xni3xiLqdN1fMQ4Md+KQKIqIAKMACD8dkrakug0Gru79WqIRgH8AoAXOtxZ/pGxUxOdPpB95AEgwAgAcsNzrtN42qfjDJKOeNw5/G8WdHa6mzv9APcxIJuKSqSYeyquINHGF0CGEADkhoddp/HvtjbXoUBpdQ3v784LmOcXyMw9JlDnArzOkgAbG5wvSGVJ+DbrQu4gAMgNj7hO45mODnfyXEDY3L7f8r+nOjq0y7UCoLhUkZmHBuRMgLfz261yRKVveSsgrQgAcsNCSWsSnYpV1b+j1VkrKOusfc0+V//mHp9RjMgBx0mlZVk/D8Al/sw/XIc0sdZZyBNIOwKA3GD96G2uU7m1udl3iD2brLpf1CcAWB2N6sn2dncTT363+xiQba8skF6a52zFAaMoYIXsIQDIHb9znUpDd7f+0NzsOpw11vG3uIb2d7u5udm5OZAqaxQ5/IystR/w1d6q7ms+LzkC3FHVxZpSx+gVsocAIHcsk+TM+PtFU5O2xazUTjDYkEVjPO5bp2BRV5f+6Tf8f8p7GP5HMHW0K/7Dy6RVLznbd+aMWrEIANlEAJBbrCZAQlYT4P/t2pXwWDZYe/yG/i1UuWrXLneAUFSiyLs+m42mA/5Wvazuy09XfN4DzvvVVRTrwv1qnceBTCjKxJMgY3wmy6W7Wlt1XFmZzq3I7s55zd3d3rp/Pzc2NWmZTxGjyKmXSENH+z0EkBnRLqlhq+JLF0iP/13xJ/4uxf034vrggcNUVsT1F7KLACDPXLlzp/YvKdHEouy89bajn9+af2Nr/i1x0U/8/lu8GxA2h46r1hn7DA5bs5GDCEHzjF19f3D79qzkAzR1d/ea9PdaNKpv7NzpTvwDQmz8oBJ948SxKmSXQAQAAUAeWhON6sPbt3sdcibYs+zs7vaW/PnZEIvps/X1Xn4AkGtG1RTrB++YoKoSvnYRDHwS89SSri5duG2bNqd5ZYBV+LNliM6d/HazK/+P79iRlZEJIN0OHF2pX587RWNqStL9VEDSCADymCXZXbRtm17ySbbrL6/CX3e31/nHernyt1K/H92xQ1vTHIwAmVZVUqjPHTlKv71wqpf5DwRJdjLBEBjrolFdsHWrvjZokN5XVTXgdcnW8du2vlbgp7eBfAsMrm9u1m3Nze7lfkAIWcd/7qxafeywEaot7/maZec/BA0BALwleZZ4d29bm747eLCmF/f9SsU6e+v4bZ6/tyt+80Jnp37c2KjXkhh9KCqIqKKYwSoEU0EkourSQm+Of3pduQ4dV6WjJlS/bZlfIREAAoYAIE9Mri3Ta/W+ZQL0bEeHzty6Ve+qqNDHq6s1vpelgtbp2xy/dfw2x++f4tfj1WhUv21q0qPt7Und//Bx1brunEkqZc00Qq6Qsn8IGAKAPPHr86boivtX68VNLb5nbNX5/tTSor+0tOj0igqdV1Gho8vKZLuWd9vGPZJ3hd+1u/NPho0wPN7e7o0wzO/oSKrjN6dOG6wfvWOCSvjmRA5gBABBQwCQJ2pKC3XTBVP0pQfW6OGVvZcEtlK897a2erchBQU6rLRUB5WUaL+SEo0rLFSRzzpm6/DXxGJa2NGhBZ2deq6zs9f1/3t77/7D9JXjxjBvipxhUwVAkBAA5BErPfrzsyfp5gVbdc3TmxTrTmbQXl4m/4Ntbd7N2GjA6KIiDY5EVF5QoKpIpKfIjy35i8e1JRrtNQHQpbKkQN88cZzO3GeI6y5AKFkKgIUAyf3WAelHAJBn7AvoIwcP10FjKvWVB9dq3a6OPr8CNjpgqwfW9fkn/e07okI/fMcETRpS6n9HIKRsFCCZJFkgE0itzlP7j6rUPR/YR188enTWE+wsg9qG+/948TQ6f+Q0ZgEQJIwA5LHiwog3GnDatMG67pnN+vsr9Rl/NS49cJguO+SNtdJALuvJA2ASAMHACAA0dlCJvn3yuIy/Era078vHjnm9UAqQ6ygFgCAhAEDWkBONfMMUAIKEKQD0atiwYfrMZz6jhQsX6tVXX9Xy5cvV0eFOHqysrNT06dM1efJkzZo1Sz/5yU/UtnsFAZDPWAqIICEAQK9KSkp05ZVXvn6/WCym7du3q7m5WTt37lRnZ6fKyso0aNAgVVdXa+jQoYpEImpsbFRLS4uuvvrqXp8DyAdMASBICADQZ4WFhRoxYoR3A5A8pr0QJOQAAECG2MgYEBQEAAAA5CECAADIEK7/ESQEAACQIcwAIEgIAAAAyEOsAsgT59221PfqIxvFSTti3Trtty/nyTsA9EjHZkDRWDZ+gxF2BAC5pdh1OhsaO12HsiYel9bvCl67gBxiu3cDCTEFkDssmBuWO6cDIAUqJFWl4HGQgwgAcse3JJXmzukASAH7jv9xCh4HOYgAIDccKekruXEqAFLs45LOSvFjIgcQAIRfpaRbJOb6ACRk5QdukkTtbrwFAUD4XSNpWvhPA0AaDZf0qzQ+PkKIVQDhdo6kj7hOobSoQL+9+ECNqilz3eV10e64TrnhqV7vl0rWvgf/y2YvAAzUzrZOvf+Pz6u5I+p6KPu++JCk37rugPxCABBelvHvG9FfeeoMnbaPBf6964x1936nFLONUeaMrknxowL560dnzdKn7ljk9wJcK+lJScv97oT8wBRAeN3sN6d35MRafeyIieE9OwB9dvEBY3XufqP8fo6cIbyOACCcfLN6a8qKdP2Fc1VA4XEg7/z0nftqtP+0n827/XfevTB4G6YAwmdKb+t6f/LOfTV2cHn4zgwZ0RWLa3V9izY3dWhTY7u2NXeqPRpTS2fs9ecviEjVpUWqKi3yOpNhVaWaWFuhoZUlGWljkGxt7tCa+lZta+nUxl3taumMqrEj6lWy3KOqpFBlxYXe6zS6plQjq8s0obZCRfZCZtjg8mJde/4cXXjrs29p416+Lelfkp7b+wDyBwFAuNj7dZukalezz549UhfMGe06jDwT647rpc2NmremQc+ubdArW5r02o4WLwjoj9qKEs0YXqU5o2p0xMRaHT5hiNfp5YotTR2at7pez6xp0KJNu/Tq1mbtbOvq1+mVFBZoytBKzRxRrUPHD/Zer5nDq1WYgaDg+KlD9eFDJ+im+WtcbbfvklslHSRFEhH8AAAgAElEQVSpzXUn5DYCgHD5uqTDXU22bP+fnbuf6zDyRHtXTP9atk33v7JF/3p1qxr62YElUt/a6XWQdvvVvNXeXeaMHqQzZg7XWbNGep1d2Cze1Kj7Xt6iB17ZoiWbG1PWfEustYDLbncu2ug9bl1FiU7dZ7jOnDlCJ04b5q2ESZfvnj5TT6+u957fYaakH0n6rOM4clzmx6fQXxapz5MSb/hj0/23f+AQnTStf9sB2JfVqG8+mLBtY8aM0fr16xMe89PY2KiWlhZNmzbN+3NvNmS64Zun7f3P6KeXtzTplmfX6m8LN2pXe/+uWgfqgDGD9IFDxuvCOaNVURLcfWiaOqL6y4sb9PsF67wAIBtsNOWi/Ufr0kPGa/qw9JTrX7Rxl0771Ty/VT42FHSmpAey8RoguwgAwsE29Hhe0gxXcz9x5CR97wwL6PuHACC8rAP72WMrdfdLm/zmfDPKrnQ/cvgEffzIiRpU5tykMuNsjbwNi1/7xGspHRkZCAveT50+XF86cZoXQKXaTx9dof/372V+D2vDE3Mk7fC7E3IPUwDhcLVf529zsl8/ZXo4zgQps7mpXd/+x6velWzQ7Gjt1I8fXq4b5632OrbLDpuQkblvl+54XH99caOufOAVr21BYsmE/3h1q3c7bcZwXfXOfTVmUO/Fu5L1heOm6NEV273pAAdLGrpR0vmO48hR6ZuAQqrYGPl/uR7MEo1+fdH+3nA68oN1GDc+s1qH/OyxQHb+b2b5B/9z38s648Z5XvJhNlgi30nXP61P3rEwcJ3/3iwIOOrnj+t3C9btfajfbDnwLy6Y463o8HGepPf7HEcO8v1EIOuG7t7oxzlV89WTp2vfkVTTyxeWhPfpOxZ5HUV/RSKFqqoaoerq0Sovr1NRUbmKistVVFTm/b27u0vRaJuiXe2KRtvV1dWq5uZNamraoI6O/s2XL1i3Uydc95SuOnu2Ltp/TH+b3me3PrdW/3P/K15iZL8Nr5T2qZOm1Uo1JbY+UqqyP0sky3No6pCaOqXmTqmxU1rXKL26Q1q1U4r2vcKm5Sd84a7FemT5Nl1z3hyvrsdATRhSoe+dPlOfv2ux30NZlcDHJTmXDiC3DPyThXS6XtJI1xPYEqxPHTXJdRg5Zk1Dqy669Tmt2N63K2nr2IcOm6Xhw/dTTc04VVWNVEFB/371Ozub1NS4QfX1y7VlyyI1NiZ/pWrz75/420Kv/V89abo3950uNuT/zQeX6rqnVvXtKaxN+w2XTpksHTJKmjlUGtLP4Xirq7C8Xlq8TXp4tfT4Wqk1+eTMu1/arJU7Wrzk3mT28+jN+w8ep4eXb/Me18ESEGyZ8fGSBhAxISzS+CuIAbJNfn7jegy7KnjsU8do/JDUFPwhCTDYVm5v0Vm/ecYrSpOMwsJijR59mEaOOkB1dTP63eH3pq2tXlu3LtL6dfO0a1fyF44fOnS8rjp737QEAdb5f/rORbr9hT7kRhw0UrpgpnTyRGlkejLy1RGTnlon3bdC+vsyeQFCEiwf4N7LjkjJ77rlPxz98yd6+xx9WdJVSTQNIUcAEEx2Wb/Qr+DPdRfM1bsPSN1QKgFAcFmy3+m/nqe1Db3Xa7Gr/bFjj9TkKaeqrGxwRk+qoX6FVq78h7ZuXSJ5q8v8ffH4qfrayalPXrVEv6Su/O3b76hx0ofnSidneCRte5v0+0XSbxdJO9v9XyhJk+oq9MBHj0hJ0SUbBbjod8/5rRixKPOw3d9ByGEkAQaPvSe3+HX+Z84amdLOH8Fl2zRf+sfne+38CwqKNW36WTrp5B9p1uyLMt75myG1U3XwIZ/SUUd/VUOGWMVqf1c/ukJ3Ld7kf6c++uPz65Pr/I8YI/3jEumP52a+8zdDy6UvHCY9fan06YOlXpJ4V+1o1Uf/8qI3ujFQVoDoAweP93sYK+34R0mpGV5EYBEABM9XJR3rapbVGP/fc/d1He63bUkOLadSV7Rbj6zY7nclkvdsKZ0l0PkZNGi8jjn265o27SwVFma/LK+154gjr/ACkd5yDb749yVav7P3kY1kWCf5lXtf8r+rJdT98ATpz+f3JPZlmyUTfvkI6YGLpRl1vq154rUd+vkTr/neJ1mWEGhlin3MkvQ9n+PIAQQAwXKgpG+4mmRJU/973n5eBbFUsS9fyww++OrHUvWQSYvF47rwlmd15M8f964EU3Bxk1NW1bd6BWv8jB5zqI448suqrBzhd7csiGjixBN1+BFXqKTEXR7YKhZ+55+vpqR9X3/glbdsaPQ2Iyqlu94lXbKvAjf5Ob1Wuuci6XT/kZOfPLLC28BpoKxK440X7a/iQt9Z4M9LOnGgz4XgIgAIDks1ts05nL37Rw6boFOm96/U797aumL69j+W6tD/fcwrh2o5ANmybFuzPnL7Czrx+qf0/Hr/q9188oN/L/N9X8aNP1r77/+hXq+ys2nw4IneaIBfEHDn4o1aNMByvPPXNOjBpVvcp2qd//9dKM2ylbUBZaMT150unevOi7Df26seWZGSE5g7epA+f+xUv8ey/uF3kmr97oTwIgAIDsu6dY7tTxtWpW+dtk9KWmsbuRxz7RPecGJHP9Ypp4vVLX/Hr+d5SVxBalc2bG/p9Er7utQN3Uf77nuJgncp+3Y2OnHQwR9XJJL468ZGfmwPg4G4+VmfFQi2Vv+3Z0tjQ1Avw67If3qydNAo58thlR+tVkAqXHHCVB001jdZ1DKNrT4AclDi30hk2imSPuV6UttT/LoL5qi8l0Sh3tgXrQ0pn3vzfG94OYhs+1rL4D77N89ow66BD3WGle0e59qyt7CoVHPnXOrsUIPIkgInTz7V2TQ73/4GfS2dMd37ss/V/+cOkfZNzchZRtjv+dUnS6WJq3vaKMDdS5xr+fvEvlt+ddH+qvTfuMkizff06YERCgQA2TdE0k1+l3L/feI0HegfpffKOlab6//WP5Z6meVB95/1O3XqDU97ZVzzkSV8uUwYf6zKyu1jEy5Tpp7mVRpMxK5obQSoP55b2+Cu9GdFfD68f38eNrsmDe6pS+Dw5Cr356OvJtVW6Fvv6HUjsesk+S4dQPgQAGTfDZLGuZpx6Pgh+tyx/olBvbGlQ1YH/bb/JF+1LQhs/fs7b3rGbz/znPXMmgbnuY0Zc7jzWJBZ5z9ihG06l1hvqx1cfH/uzKlSZXB2I+yTd7k75adXOTf26ZcPHTLe24jIh80T/F6iz8glBADZdamki1xNsEzdX14wZ8C7qH33n696e8SHkc2Fv+f3C7KyTDFbLGCzmv+JWKGf6hrbvC2crFaAy2M+ox5+Hn9tu/vwweF9rbT/CGd9gI0pWAnwZrbC6Ofnz+mt0JAtT/6c+8VG2BAAZM9YST/ze/ofnjlbk+t81+r2yup+J7N2uKYm9XOk8V7W9RUUFGrMmJnen37W7WzTR25PTRGUMNhqG8s4lJTakjrfpVuBVlrqTsRb08+8FN9cESu4E1aWEFibeB8CCxJbkywlnKyhlSX62TnOPOQ9fiDJPYyDUCEAyA573W04zTmRe/rMEXrvQRYj9J9dPX/pbivL6mad7/jx+2nSZCtBkFrd3b0vLRw2fKKmzzhSZeXuteLmqVU79JtnfDK9c0i3Txld26EvzGxnwVTzjTObk998J5B8gsHef7v6LonvnT1VAhNHJggVAoDs+NLuHbcSSjIS79VVjyz3ggCXoqISTZ12mGrrBhZouESjyS1VKiur0vTpR2jIEPfSJ/PDh5ZrZ1vIv9CTUFLo/rXs7GxWe3t4ayU0Nq53vgIlRe7z9uP7cy9t8/vRYLPthH12D0zXOFASI4+zJX072C8ektG/3zgMhI2xfcvvAZKYi+uVDYtagR8X2y3OOv+KCtsBNPWs8082ADDeSMSEuRrsEwRY1bgbnl6d+saGSlybNz8fqhbvEY93a8vmF51tH1zev2S9mlKfrY0fWJnMvkTBdH9qCv70VZK5R1dIOqGvj41gIQDIrF6Hz2yb1F6ycZNy+wvrfddVT5g417vyTpe2tr7Xd49EIt50hN90wB/+sy4lG6KE2arXHlIsFr6RkA0b5qutzb18ra7SWQTTl29p7BX18oKAsGnulG6yDUGzw1YfffaYyX5Pbn2HVQl0TmMi+AgAMuuHkvZzPaW3HjdF1f7u9NllbciQ0QmS/twDir0l8+0tFouppaXl9X/uy8/bSMC4cTbCmJhlP89b7V4ilw+sE1227O+hOtWOjkYtfeUO3zaX9XMKwK5YfX3zsaS23A2U7z0lbU99vkRffOWk6TpgjO8Ioc0d/m9fHhPBQgCQOSdJ+qzr6awi1w3v2l9VfsOZSWpo69LSrU3Oe48Y+falWHb17dq5rb6+b2uOGxsbX+/029vb1dqa+IusoCDxx6+ycoiqq907o1kp43xnowB2RR0GsVin/rPgei9/ISu2tEgfu19KcdZ82vx+sfRH/+TdTPAqkF44V2X+FUg/IOndmWgPUi/xNzBSzYpo3OxXROPy46fq4HG+NbmTtnDDLmdmtM35l5UlXlpYXJx4K1nrxNesSS4Dv6mpybv/HitXuodfLQnRxUYpXBb2s2Jcbolr0cJbtW7tk4E+Lcv6f+7Zn2vnzlXZbee8DdIH7pY3tB5kv1ssXZn5nTldpnt7kMxwHd7Dt5gZgosAIDOu9yujabtyfeG4t1+V99eWpg7nj1ZUuoOMkhL3yp677rrL+Zh72JV/c/Nbr/IefPBB58+V+uQg+LVzs8/55RNLqlu8+A96+eW/qrs7uRUXmdTYuE5PP/Uj1ddnJ5ntbZ5eL533N2l5AEeQOmLS/zwiff1RKWClui87bKJO9t+F1L5UfMuZI5gIANLPNtK42PU0tsHPr3vfl7tPLFvexe+qu6ravVXqVVdd5RzK7+jo0Pbt298y728sILj5Zhv4SMyv+JBrNML4nV/+iWv1qof01FM/UEODe7Qlk7q7u7R82b1e59/S4rNJTza8ukM683bpFwukrlg2WvB2Njpx+p+l27I/7J+IVQm85rz9/JMt5b+hGYKJACC9et1K83tnzNTUoYmH5PvLb86uu9v9pTdo0AjnU27YsEGf/OQnveNW4Kerq8u72reO33IE7P/fzBL/vvzlL6uhwZWwF1FNjbv2eCzmvqKt8J+TzEtNjRs07+mfaMGC69SQpSvuaLRdq1Y9pEcf/YaWL783kKMSnvao9ON50nG3Sb9d6LvWPq1sROLSu6WL75S3WiHARlaX6X/P7bVKoO+W5ggenwW0GKA9y2RqXY9z4rRhuvTg1G+wVVvhXk/d0e5OxLLcAMsRaG1NvCvbrbfe6p3Kd77zHRUXu5/DcgAuv/xy3X333a5TV3VNne9VfkfHG6sI9tbf9eK5L66tWxZ5N9t+d+KkEzV8+H4qLHTnWqRCS8tWrV8/T2vXPJaWSn9ps75R+ubj0jXPSZfuJ12wjzTeN+t94Fq6pH+vkn7zorQwYKMjvThz1khdtP8Y/eXFDa572hyiLQ203aoCnmwBQwCQPl+QdKLr4esqSryNfmx4LdX2Ge4uq9vcXO+NArjq748aPV0rVzznbJIFAfPnz9cVV1yhk046SaWlbyQOWrb//fffr6uvvlqrV/sV7Ilo9Cj/xKLGRncFN7/zQw+bDrCbFXyqq9tHI0bM1fAR+6m0dOAdnOUeWFKfBRpbtixUc3Nq9qbPmvo26WfP9txm1EmnTJJOnSztN1xePf6B2tQsPbRa+tdr0lPrw7MaIYEfnTXbW4Vj+3M4HCDpG5K+7jiOACEASI9Zkr7r99A/OWdfDa9KnHU/UFPqKr2r5ERlc21ovb5+g4YOTTzyUF09VNU1Q9XU6N5hbenSpbrssstUWVmp6dOnq6amxpsGWLZsmZcP0Jva2tEqr3BvCuO1cYfzKkMHpWi1RBgVF5d5RYD8pnLezO67deti76bF8jbjqa4eo+qasaquHq3y8lpvm97i4ordf5apOxZVV7RN0Wiburrs1qLm5k1qatroTTXY3/ubdGhFntrb3EtUU258tbS2D89nOQJ2sxyB0kJpep20T528wGDqEGlwmVRTIlWVSNWlPfdp7JBXs9/+tNv6pp7HeGWHtHS7tMPZWfqrKOp5/Ibef6cypaasyFuubNt0x9zJil+V9C9JwVnOgIQIAFJvT7U/5zZk7ztonN45e2Tqn3k3G1WwTT3+9HziuuubNy336u7b1WEi48fP0bJXn1ZXLxvPWLGfF154IdFDOJWWVmrMWPc+52bz5uXOSnelRQU6xT8jOacVFhZp6rRDtXrVi2pra+zzuVpBHrtt3/5Kn392YCIaNmy8l2i66rX/DOyh+uIT+0pL6qU/LpNzbayLZeYv3tpzy7Rpg6WvHCR9bV6mn7lXh08Yok8eNUnXPvGa6742/flbSftbLrDrTsg+kgBT73uS5roedsKQCn3/DP8OMBXevb/lHyYWjXZqzWorMxpPeAfLwJ88+SDnNEF/WcAxecpBzsDDNO7aqm1b3TUHTpk+POdzAPymhSy50oKo6TOO0KhR01P+HqWD5ZVYe8eMneVTb1Iq8DtxHwW+o/QR6X0zpKuOkia7R50Co7xIumy2dPXR0uhKKZb4d9T4n3d6ffWk6dp3pO/rOam37c6RfQQAqXW05M39J2RfcNeePycl1f56c8zkOt/CQjbHbkGAq0yvDdFPmXqob6JeX5SUVmja9MO8zsulpaVBq1fbZjHuL73PHetbnzwnDCordgYBFryZSKRAI0ZO0T4zj1Ft7RivkmPQ2HtueztY579n06mu3e1PZHBZ4hGp3tjr5bRz9/D57Frp2uOkT8+RhjkH57LHyiCfMVH6zYnSBVPk/b/tc7wr8fC/jYTZEuJssee35ct+K44kfVjShdlqI3pHAJA6ll11myTnb+Xnj5uioyY5FwWk3NdPmeHsSExDwyatWvW8c8ldZeVgTZv+xpd3f9l6/+nTj1RZmTs50dpiyYd+c9tnzByhA8e6CxnlCivB6uoMbU6/vf2NFRIlJeUaP2GOZs46zsvrsCmCbLPg0WvTzGN3bzX9RnBiQZ7LUJtX7wffTYReedPyOrtkPnOidPNJ0ufmShN9r2Azo6pYOndyT5s+M0eqfVMxrhW7pM7uhO0Ylqb8ob6YMbxKXzt5em8/YkXQ0jffiQFxdlbos99IOtb1U3NG1ej6d81VYQbH7Wy6wTbPWbTRPQ1ny+127tys8vIarzPZm5dFPnScl7zV2tbonJtPxHYbHDtutreywLXqwBL+Nqx/WZs2LXOORhhLavzzBw7OyOhJEDy6cofWNCTeQ6GwqOhteyXY+1QzaLiGDZuo0tIKL5DqLYcjlWzaqLZubM/7PWqa93nae1TC2rRu7RJvFUEinztmiibWViQ65KupI6r/c21+tb1dOnvSW7P57Xdw6mDprInSwZbpXyBtb5Pa3TUyUsqu7g8cJl0yQ/rC/tJhI6XKBKMYf1shLU0cMB09qU7nz3GXy84US8h9Zk2D1jY4Ex3tDbUN0P6QqTYhedm/XMgN50t6n+tUbLjMNtUosS+aDPvu6TP13NoGLd3qXv/f2dGqFcvnex3IqJHTEmboDx48UoMGDVdT0w7t2rXFm6vv6nr78KR1PvY4VlSoqsp2Ck08NG2dwfZta7R166rXh7VdbOrEKpFZMZJ8YYlWj61MvBJj+7a1XkefqKqjBVrWEdvNRgtsqqe5aYd35f3mkYOBsuexESLbuMlGePxKN++xbesqZwBZXBjp9+oO27rWPiPdNmS+tx3t0n2re66yE9lniLzbp/eTXmmQ/rO1J2nw1QZ5SYCpYL8C46rlTUPMHdoTdCTq8N9sW5v0oDsX5oiJmRtJ9GOv+/UXztUx1z7hbULmcJqkj0nengEIkMTfzugLC8MXSXJuX2drZy87fEJfHjOlLDo/9VdPa1vz2zvsRKzzrqsb6y0HtLlmF+tgujrb1R3v9joEW6LW2xB0R0erdjZs1LZta3rt+Pe48pQZ3vRJPlm5vUWHXfOYM3Hd3qNJkw/s00sSjdr0gW3W1OwVhOrsale0q1PRaIc3EmP5ILa8z95zu9l7aiMLdnVvNxshslGdsvIqlZZWve0K309bW5O3ssR19W9FZn53Sd/O580uuOVZPboiccCkssKe+f+xVX5NfKtot7SuWVrXJK1pkra0SvUdUn271BLtqSZo94nGex7f6gXYcP6g0p5h/KFl0rgqecsQbarBjiXLltdd+Yz0fOJaGDaK+OIVJ2h0TXAC4r8t3KiP/dXyd5xsOMve4Fed90DGEQAMjL1+90k63fUwx08dqr9deqjvXHwm2AjA+b+d77tR0N6sM7eOxm42r5toiqA3dqVvHY6NHOzcuUltre7piES+dMI0feWkaYkO5bx33jRfT63a4TzP4SMma/Ro/4JKQWBB4rLl87w/XW7/wCG9bTjj6+9LNunDf/ZZkjqqUvrp0dKQ9NTeSBkbxLh+sXSPe/fE02YM1x/ff3DKnjJV/usvL+qORRv9Hs7Wfx4hyTlUgMwiABiYz0q6xvUQlp38xGeO0ZhBwYjUV9W36pLfL9Cybe7pAD92NVhRUeMl8xUWFXv/b0FCUWGxNwpgIwJ2JRmLdqmzs81bp245Bq6VBn4sEe7b79hHHz/SVhPlp/lrGnTGjf7rwIcNm7C7rkIwf5Vt2uG1lc95nweXwyYM0f0ftX6h/2z4/6TrntKiTT4B5phK6XtHSCP7nmeQEbbk7xeLfIf+bcj9oU8e5eUUBY1t0nXsL57UeneVQPNtSd8KWtvzFUmA/WeL+f8qyTm298sL5nrzk0ExpLxYFx8wRqsbWn1zAlxs+Na+yFtbd3olhZsat3n5AJbBb4mElhfQ1GS7Atp8c1PSQ/x7G1pZotved7AuCECSUzaNHVyu5duafd8r27ehuaXBq+DY2/RLptnnYvWq//h+DizQu/niAzRqgMPZlnA4bViVbn9xg3sRaVOX9NA6aczuofkg2domfXu+NM+/rPJ7DxqnDx6SuIpntpUVFWr2iBr9deFG93sgb6m0VQlMXKUMGUUA0D+WPHmvJOfE/rsPGKMrjp/av0dPo5KiAp2z7yjNHT3Iq+nd3OHedS8brG1//sAhmjnCvWQwnxw7Zag3rGqZ7i4WlNXvWO8FAImy7zPN2rN2je0TsNI557/Hf584XRfMTU02+/gh5WqPdnsjJ062rO7xjT3lgWcOkXw2zsoIyyO4e5X0/QXSRvcGWGZyXaWXJ2G/w0E1obbCGwlYsG6nq4nWeNsjxSoFsmFQlhEA9I9V+3u360ctOecP7zu4tyIZWWVbEF9y4FhvSHHhxkZF3XW9M+LgcYN1w7vm6jPHTFZFCR/LPazQyqEThnhBQJdPVTgbnbGM/4b6DVYlSOXl1b4JnOlgNf43bnxV69YtSWrFwTv2Ga4fnz273xUAEzlyYp2eXdegNe5laT1sf4B7Vvck942t7Eney6S2qHTvKulHz/cEJBYI+LAa/H+59FBvVCjobInig0u3aFuzs3+3YVFbxmAXUciiYE4cBttRuze5SNhLWYd614cP1VGTnIsCAmdrc4d+PW+1fr9gnba3OH9pU86K1x0/Zag+duSkvK7vn4x/L9um9/1hgW8Q8Ga2RLCubpwGDR7xehW+dLCcD5sKsg2m/HZw3Jstc7zjg4emJUi2Ua1zbp6vFzck3tb6beyDeNgI6aRx0kHD5JXjTQdL8FvWID25qWeevzm5XDhbRvzXS+07JRhL/5JhSccnXvekOvwDm3dKuieZx0N6EAD0ja0jslRj59j+Z4+ZrG+etk/fHjUg7Jf1vpc3664lm/XvZVt7++XttylDK3XefqP0rrljvJEIJOeRFdv1wT893+dpG1ueaTUcrD6DTRHYkr7+soROW9XR0lyvXbu2erkgrqV9LidPH6abLz5QlWkc6bFh6A/88Xk9+Zp7FUVCxQU9a/WPGCnNrpOXODiQIXerQ7BipzR/S8/NlhH2gRXA+v17D9KRAVn33xfXPL5S3/mn76o/W+doRYK29OVxkToEAH1zs6QPuX5kn+FVeviTR3sRe9i1dMb09Op67wt0/toGvby50fu3/rCKhHNH1+joyXXeHgXTh/VhPTbeYvGmRi8IWF2fuEpgMoqKilVWXqPysioVl5R7uQN7VnTYn7Z007YE9lZ0xLoUjXV5dQPa2prV0dHcr1Ude1g9jO+fMctL/ks3C2i/dM8S/eE/A8g3s9/l8VXShJqedf3VJVJlUU/ugP1pAYPVBWjpkndF3xrtmVZY3SitburZJrifLKnR5vzD+vtiKzPOvflZ36Wsku6WdE4/XyIMUPp/C3OHfUjvcp2Odfr/+vhRmj0yN5PXrMiarR6wAjU2ZbBhV5taO2Pa1f5GcppVOrSrumFVJV7VPlv+uM+IalWXpmlINU9ZQuAVdy/xiq+Eha1AsWqOVvAn0+5ctFGX371EjW/6rAbdew8aqx+eOTv0+TBWityqBO50Vwk0l0m6KejvSS4iAEjO8N3V/ka47v69M2bqE3m8Zh2Z9/jKHfrve1/qd12HTLDpdZvqsZLUtrwzWyxo/eaDS/XXhRuc1RWDwKbHfnDmLJ00bVgQmpMSf35hvT51hxVLdbLlDwdIWu68B9KCAKB39hpZosqZrrva/NzfP3JYSrOZgWTYMPetz63Vz594TZsa+za/nE7W8Z82Y4T++8SpmjPaNsoMBlue9uOHl+uh5YnL7GaLLWH83LFT9N4Dx3n7IuSaj9z+gu5ybdjUwypeHSOpf/OM6Jfc+6Sl3icl/dL1sFbt7/FPHx2K5TnIXRYIWBEcCwaSzn5PA5sCOm+/0d5c/34BrFa3h71Gv35mtf6+ZLPau7LX5xwyfog+eMg4XTBnTE52/HvYFMCxv3hCG3b5BqlXSt4Sa2QIAYA/24HGdrhwZq39+qL9875iHYLFyuHavPd9L2/Razv8i8ukgqnbjb8AAA1FSURBVOW/HDu5TmfNHukVcgpTzoetFrCthO99abOeWlWvzpj/evxUsKS+M2aN0IVzRudVwSvbrOnCW5/1m4KxhCJbZv1sKl5n9I4AwM0y156UdJjrLmfPHqlb3tP/HcyAdLN9H56wlRxrGvTs2gat86/TnhTr8G1Y/7DxQ3TExCFe4ZeqHEj0tCTBJ1ft0NOr6r3XasnmxgEvhbWpEFsFYyXBbc+DYybVefP8+erL97ykm+a7tzmWtFTSQZK3eyDSjADA7TuSNySVkNUut41+LLsZCAtbQWBBge0xYMOxVq1tW0uHN0RrKz0a27u8Dr60qFDlxQUaVF7sregYUV2qCUPKNWNYtTdfbVvS5rpYd1xrGlr1ypYmrd/Vrs2N7drc1KFdbV1eyeGOaMwLEGrKimUvh63ZH1pZ6r1WVg10+vAq72o/nfUOwsZer5Ouf8p7TX3YlOunfY4jRXL/t7h/bK/Np10b/Vi1vzs/dKi3ph0AkLxFG3fptF/N85tusZqJZ+/eah1plLCcbZ6z8bl/St7Sv4Rsi9oPHRrMHbkAIMhGVJd5UyM2NeVgF6YnS/qd5C0RRJoQALydDT+d+vZ/7jFjeJVuevcBKioMf7U/AMgG2wvCki59clLsQmyapNuz0b58QS/2Vu/YXZUqIZsbtax/26ENANA/No36iwvm9JY8eq6kS/v3DEgGPdkbrPTWPyQ5a/l+/ZQZXuY/AGBgepImS/Tg0q1+D2RTAX+VVO93J/QPIwBvuF6Ss3e3IatPHTWpf68yAOBt3n/wOL3T/6LKarDcInGxmg75sgrA1vQfu7ucr80rWUf/5hR+u+r3Lb5dGIl4iSsAgNSxlH9bctkLGwHY+ab7WAbh5t37B9wn6XHJKySEPsj1Ls12H/mYpK/7ZfUDAEJty+4ywr+S1BXqM8mgXA4Apu/evndmBl9PAED2vCzpPEnLsteE8MjVAMCG+++SNCQ8bwUAIAUaJG8FgU0LwEcuBgCTJc2XNNTnvAEAucuCgMMZCfCXawGAFea33ftm+Z82ACDHvSTpAHIC3HJtGeDH6fwBAJJmS/ovXgm3XBoBsKV+6/zW8s+aWK7Pnjdch8yoVHUFNZAABNOulpg6u3pdGpe3mttiemFFq25+YLuWrW/3ex1sqeA4lggmlksBwPGSHkl8mtL7Tq7TjZdPVHFRLp0ygFxk6+K37mRZe2+6onFdcf063fmkTfk7nSDpUefRPJZLUwBnud7H/adW0PkDCI3CgohKi7lY6Y1d0P30E+M0c0K5312dfUO+y6UAYIrrzfzihSO48gcQKqXFufT1nD5FRRF9/GzfQq5T0/fs4ZZLn7DRrrfi8FlWThoAwqOAAYCkHTTNdg92cvYN+S6XAgBnxkxBLp0lgLzA3iPJKyCnu19yqWvc6HoFXlje6joEAIEU6w5kswJp8Wttfu3a4Hcwn+VSALDC9UZec+cWxZ3jAwAQPB1dRADJsO/2G+/b5ndXZ9+Q73IpALjX9WY+ubhZX7lxPUEAgFCw3XGpA9A76/y/f9tGLXi1xe/Otl0wEsilNBObBVoruRM+jt+/Wpe/a6QOml6p4YOtbhAABI8VAmrtYATAZfuuqBatbNUN92zTvJebXXczWyWNoRBQYrkUAJiPSboh8akCAPLM5yT9PM/OOWm5FgDYZf0CSXOTfgUAALnoVUlzJHXm4smlQi7lABirnWn7QPtmhAAAclqTpAvo/P3lWgBgVks6R9J2/1MHAOSgRknnS952wPCRiwGAmSfpUEkv+pw7ACC3LJV0uKR/59ZppUeuBgBmlaSDJX1U0vr0vHwAgACwbH9L+LP8r1cC0J5QyLUkQBcLdCwqtF2hbGMIqw1dtvvO+0hKWEi6tCgi+w8AkH5Wr60j6lz+aCVd93TuHZI2SVop6QFJT0iKpb+FuYXeTXpW0iGJ3tY/XzxdI6uLEx0CAKRYS1e3zrzFeQFvK7wSflejf3J5CgAAADgQAAAAkIcIAAAAyEMEAAAA5CECAAAA8hABAAAAeYgAAACAPEQAAABAHiIAAAAgDxEAAACQhwgAAADIQwQAAADkIQIAAADyEAEAAAB5iAAAAIA8RAAAAEAeIgAAACAPEQAAAJCHCAAAAMhDBAAAAOQhAgAAAPIQAQAAAHmIAAAAgDxUlIfnnLTCgoiKCiJJ3x9A7ojHe86lOx7X7r8COYUAwMegskINKeclAvKdBQAWCHR3S7F4XLHdf0Zjce//gTCidwOAXtg4YGEkosJCqdj7vzdY998Vi/fcuru9oICQAGFAAAAAA2DhQElhxLtJBV7n3xntVmcsro5oN8EAAosAAABSyMKA0qIClRZJVaWFXjDQsTsYAIKEAAAA0uTNwUB3SaE3ItDW1U3eAAKBAAAAMsAWFJUXF3i39mi3Wi0Q6CZbANlDAAAAGVZWVODdbETAAoEogQCygAAAALKkJ1egZ0SgpbPbW2oIZAoBAABkmY0GWDDQ2mkjArEstwb5glLAABAAljBYWVLgFR8r9pYUAulFAAAAAWLlxweXFamqpDBArUIuIgAAgACy1QI2GmAVCIF0IAAAgICy0YAhFUVefgCQanyqACDA7Pq/prSQKQGkHAEAAISATQlYIMCEAFKFAAAAQsKmAgaVFREEICUIAAAgRGyJIMmBSAUCAAAImcKCiAaVF7JCAANCAAAAIWTLAweVFaqAZYLoJwIAAAgpbySgjMRA9A8BAACEmNUKIDEQ/UEAAAAhZ4mBVaWUDkbfEAAAQA6wHQWtVgCQLD4tAJAjbAMhdhJEsggAACCHVJeyMgDJIQAAgBxiywMtCAB6QwAAADmmpDBCPgB6RQAAADmosoRKgfBHAAAAOch2Dawo4Ssebnw6ACBH2dLAkkK+5pEYnwwAyGFVJQVsH4yECAAAIIfZfgHlxawKwNsRAABAjrMKgZYTALwZAQAA5LiCiFRGmWDshQAAAPJARTHbBuOtCAAAIA/YKEBpEV/5eAOfBgDIE9QFwJsRAABAnrB9AqgLgD0IAAAgj5QWsR4APQgApKjrwxDrjrsOAUAoWR5AUEOAXr5znd/V6B8CAKnZ9dK1dnW7DgFAKFnnH9RkwNZO3+/cplC+4AFGACDtcr0/W5u7XIcAILRsj4Ag2tHq+51LAJBiwfwUZNYq19OtauhwHQKA0CoujHgJgUGzZmenX5NW+x1E3xEASMtcL9uLm1pchwAg1CwICJolW3y/c5cHrb1hRwAgPe96E+eva1KUREAAOagkYAGApVwv2OAbALyYg29DVhEASAslNSR6F3a1x/TE6sZEhwAg1IoLg/X1v2hzi1/elc3//yfUL3gABesTkB0xSQ+7nvpPC7e7DgFAaFlpYNsqOCjufjnhddgej0ryzRBE3xEA9PiD66V7ak2TlmxpdR0GgNAqDkgAsHZnhx59zXe09U+hfZEDjACgx32SnJf6/+/RDSIVAECuCUoi4M+f3qxY3Fl4zSKDv+faax8EhUFoRADYNEClpOMTtWVLc5eqSgq0/2i7CwDkjvaob/GdtLt3aYP+tmSH3/NcI+kBvzugf4IzAZR9tZK3zrQ6UVOKCiK66YIpOnhMVaLDABA6ds29vSV7U+uvbm/TZ+9ZrQ53ENImaZKkLaF7cUOAEYA32AfNQuGTE71vNgXw0MpdOmZijYZWFie6CwCEil0BdkTjXiCQaesbO3X5fWvU3GkDsE4/kHSv8ygGhBGAtyqR9IKkWa5Xtaa0UL88Z7IOZDoAQA6w5c6dscxOA9iV/1ceXKuGNt/9fV6TtK/kXZwhDRgBeCsLRedLulRSUaLXuyMW9+asKkoKNWdUJREUgFDrisUzWvDMvj+//dD63q78LTI4V/KCAKQJAcDbbdq9QdDpbz/Uw6YDbHngM2ubNHt4BVMCAEIrFpcXBKTbmp0d+t7DG7yEv162/TVfk/THdLcp3zEF4HatpE+7D/ewF/CEKYN0ydyhOmxctVdcAwDCwlYBNHX4zsP3m4UVVuHv7y/V69FVjckup75V0oekrKQm5BW6KzerkfB7SZe47/JWwyqLdeT4ah04plKThpRpRFWxasoYZAEQXJaB39SZmhyA5o6Y6lu7vF39bGMfq+3fx23V75Z0geRNASDNCAD82evzE0lf9L8bAGCA7ILrI5T8zRwuT3v3z905ASdKvF4AkGJ2tX+lpMslLxEbGcIIQPIO3T0lMD35HwEA+LDia7bq6nGf+yBNGAFI3gZJN0rqlHSYJKoBAUD/dEj6saSLJa3o30NgoBgB6J/hu/MCPiGppn8PAQB5p2X3hZTlVtlFFbKIAGBgKiSdt3ulgG0kZP8PAHhDu6Qndq/rv0NSEy9OMBAApE7p7qmBgyUvT2CipDpJtnuQlRgGgFxmuwo1S7Kt/dZIWibpeUlPS14QAAAAAAAAAAAAAAAAAAAAAAAAAAAAAAAAAAAAAAAAAAAAAAAAAAAAAAAAAAAAAAAAAAAAAAAAAAAAAAAAAAAAAAAAAAAAAAAAAAAAAAAAAAAAAAAAAAAAAAAAAAAAwu//A/Uo57Al6aspAAAAAElFTkSuQmCC;" vertex="1" parent="1">
          <mxGeometry x="477" y="150" width="130" height="130" as="geometry" />
        </mxCell>
        <mxCell id="6XTI--pssBej2aboavZY-10" style="edgeStyle=orthogonalEdgeStyle;rounded=0;orthogonalLoop=1;jettySize=auto;html=1;entryX=0.25;entryY=0;entryDx=0;entryDy=0;strokeWidth=4;fillColor=#e51400;strokeColor=#B20000;flowAnimation=1;" edge="1" parent="1" source="6XTI--pssBej2aboavZY-5" target="6XTI--pssBej2aboavZY-8">
          <mxGeometry relative="1" as="geometry" />
        </mxCell>
        <mxCell id="6XTI--pssBej2aboavZY-5" value="" style="shape=image;verticalLabelPosition=bottom;labelBackgroundColor=default;verticalAlign=top;aspect=fixed;imageAspect=0;image=data:image/png,iVBORw0KGgoAAAANSUhEUgAAAgAAAAIACAYAAAD0eNT6AAAABHNCSVQICAgIfAhkiAAAIABJREFUeF7t3QmUXNV17/9fd3X1PKjVarWEphZIaEBITAIMdmRwwMTYDLGNec9+Hlae//+XeCYLG5btYBIc4hgPJMSGxCHEsYNfsGObwYAdQ5gMYh4EkrDmsbvV8zxUd7+1r9RCQ53bVdVVXfdWfT/LtfDqW3Xr3OpSn33P2WcfCQAAAAAAAAAAAAAAAAAAAAAAAAAAAAAAAAAAAAAAAAAAAAAAAAAAAAAAAAAAAAAAAAAAAAAAAAAAAAAAAAAAAAAAAAAAAAAAAAAAAAAAAAAAAAAAAAAAAAAAAAAAAAAAAAAAAAAAAAAAAAAAAAAAAAAAAAAAAAAAAAAAAAAAAAAAAAAAAAAAAAAAAAAAAAAAAAAAAAAAAAAAAAAAAAAAAAAAAAAAAAAAAAAAAAAAAAAAAAAAAAAAAAAAAAAAAAAAAAAAAAAAAAAAAAAAAAAAAAAAAECOK8jx6wOQn94l6d2SVkmqlVQt8fcOCRmQ1C9pq6SnJd0jqT2hVwIApl2RpM9K2iwpJmmcB59BGr8DFgDcLemkaf9mAwDiKpZ0h6TBNP6xT2fHwblyLxB5RdI5cb+NAIBp8QlJfTnYwRA0hCNoeEhS+bR80zOEHAAAYVMo6aeSrgxbw5FzLAC9VNJjYbyySBgbDSBvVUp6U9K5efsJIEhsCupjkvZJejFIDUsEAQCAsLDOf7ukuWFpMPKCjaS/V1KzpOfDdMVMAQAIAxv23yFpQSKNjUQiOuuss3TmmWdq7ty5mjVrlqLRaCIvRQ7o6upK+So6OzvV2tqqbdu26emnn1Z3d3ei57Lcjcsl3ZfoC7KNAABAGDwg6T2TNbShoUGf//zndfnll3udPvJTS0uLxsetP56akZERPfvss7rzzju9/yZgWNLCQ6MBgUcAACDo/oekf/drZFFRkb7whS/oU5/6lMrLQ52YjTRIVwBwpCeeeEI33XST9u2z6X5fVotiue8zAoIcAABBZgV+npRU4mpkZWWlfvCDH+ijH/0ow/zw9PVZcn56LVq0SJdddplee+21yYIAG3rqkLQ+vS1IP0YAAATZtyV9wdXA6upq3X///Vq+PBQ3XJgmmRgBmGDTAp/5zGf01FNP+V2NJQ7U+D0hCBgBABBkP5cUN3vPEv3uuusurV27NsjtRxZkYgRggn3v1q1bp0ceecRLGHSwEavAjwJYZi0ABJGtry5zNczm+y+88ELXYSBjqqqq9K1vfcsLBnw4R66CggAAQFA5/4DW1dXpc5/7XFDbjTywdOlSb7WJj0ZJs32OZx0BAICgWuFqmN39210YkE32PZxkFOD/y2b7JkMAACCIVktemdW4rrjiirg/B6bT7Nmzdfrpp/u9pe0TEFgEAACC6GJXo1avXq358+e7DgPT6oILLvB7v8V+B7ONAABAEJ3hatSaNWtch4Bpt2rVKr/3rPU7mG0EAACCyFnHd86cOUFsL/KUTQP4sEJWgUUAACCIKlyNmuQPLjCt6uvr/d4v0H1soBsHIG85/zZZ3X8gKML8fXT+IwMAALmLAAAAgDxEAAAAQB4iAAAAIA8RAAAAkIcIAAAAyEMEAAAA5CEW1ALAJLq6uvTqq6+qo6NjkmciW6LRqFasWKHGRtuFF4kgAAAAHz/5yU90/fXXq6+vz+dZCIrLL79cf/EXf6HiYudmkjiEKQAAcNiwYYOuueYaOv8Q+eUvf6nbbrstRC3OHgIAAHB44IEHFIvFHEcRVA899FBQmxYoBAAA4NDf3+84giDj95YYAgAAcDj//PMdRxBk5557bpCbFxgEAADgcPHFF+vDH/6w4yiCaOHChbr22muD2LTAYRUAAPj4zne+oyuuuEJPPfWU2tvbfZ6JbLJlgKeccoquvPJKL2lzfHw8m80JBQIAAJjEunXrvAfCgSWbiWEKAACAPEQAAABAHiIAAAAgDxEAAACQhwgAAADIQwQAAADkIQIAAADyEAEAAAB5iAAAAIA8RAAAAEAeIgAAACAPEQAAAJCHCAAAAMhDBAAAAOQhtgMGgEkMDAxo48aN6u3tneSZyJbCwkItWbJEc+bMyVYTQocAAAB8/OIXv9C1116rrq4un2chKK6++mp96UtfUlER3dtkmAIAAIdNmzbp05/+NJ1/iPzkJz/R97///RC1OHsIAADA4b777tPw8LDjKILqgQceCGrTAoUAAAAcenp6HEcQZPzeEkMAAAAOb3vb2xxHEGRr164NcvMCgwAAABz+6I/+SH/8x3/sOIogmjt3rr74xS8GsWmBQ5okAPi4/fbbdcUVV+jpp59WX1+fzzORTQUFBVq6dKk+9KEPaWhoSOPj49lsTigQAADAJC655BLvgXBoaWkJR0OzjCkAAADyEAEAAAB5iAAAAIA8RAAAAEAeIgAAACAPEQAAAJCHCAAAAMhDBAAAAOQhAgAAAPIQAQAAAHmIAAAAgDxEAAAAQB4iAAAAIA8RAAAAkIfYDhgAJtHU1KQXXnhBbW1tkzwT2VJcXKyVK1fq1FNPzVYTQocAAAB8/OAHP9DXvvY1DQ8P+zwLQXHhhRfq5ptvVnl5eVCaFFhMAQCAw4svvqivfOUrdP4h8sgjj+jv/u7vQtTi7CEAAACHhx56SGNjY46jCKrf/va3QW1aoBAAAIADw/7hNDQ0FM6GTzMCAABwuOCCCxxHEGTnn39+kJsXGAQAAOCwbt06/emf/qkKCgocz0DQLFu2TNdee23QmhVIrAIAAB833nijLr/8cv3ud79TR0eHzzORTdFo1FsGeMkll6izs1Pj4+PZbE4oEAAAwCTOOOMM7wHkEqYAAADIQwQAAADkoSBPARRLOknSXEkVkkrz8PcD5Ks614W//PLLqqqqch3OuNLSUq/K3Ny5c7Vw4UJv7hkIo6Cltq6VdJWkCyWtlgIdoADIc9b5r169Wu94xzt05ZVXasWKFXn+iQRDS0vLtCUBjo6O6rTTTvO78KD1s4cFoWERSR+S9KVDnT4AhJIlCn7uc5/zMtFZOpg9BACJyXYOwNmSnpX0Yzp/AGFnewd87GMf85YNbtq0KeyXgxyXrQDARh6ul/SUJNbWAMgpzzzzjC666CLdddddOXVdyC3ZCABsyP8Hkv6aOX4Aucrq0X/xi1/Uddddx4ZCCKTpXgVgnf/dkj4YyE8DANLszjvvVCwW0y233JLmMwNTM90BwLeT6fyXL1/uLbOZM2eOt/QGAJI1ODiY1jtwO19zc7N2796tHTt2JNScH/7whzrhhBN0zTXXJPR8YDpM5yqAD0i6Z7KLWrBggb7whS94S2oaGxsnezoA+Dpw4IB3B54J27dv1wMPPKB/+qd/8t7HT2Fhoe655x5vySAyi1UAiZmuAGCmJEuJrXc1q7i42Nt04/Of/zx3+wDSJpMBwIS+vj7ddttt3sPWhbvYiOaTTz7J37gMIwBIzHQlAX7Nr/OfNWuWfvOb33jJMgz1AwibiooKfelLX/Ky/v2qFO7atUv/8A//ELbLQ46ajgCgQdL/dn1+ZWVl+tWvfqU/+IM/cD0FAELhXe96l370ox95I5ou//iP/6je3l7XYWDaTEcAYJ1/meuKLDlm7VqrAAwA4Wd/z/7qr/7KeSEdHR362c9+5jwOTJfpCAD+l+tirFzmBz5guYEAkDs+8pGPeGWBXSwZEMi2TAcAiyUtc13kX/+11QICgNxi+wBYTpPLCy+8oK6uLtdhYFpkOgBwrndZtWqVTj/99Gm5SACYbueff763ZXA8tlLg2WdtGxQgezIdAKx0XZptlgEAucpGAS6++GLn5b355pvOY8B0yHQlQJsCiMv20AaAXLZypfMeSDt37kzp0sfHx71l0zaC0NnZmdI50iESiWjZsmV63/vep/p6Z4kXBFimA4Aa17VbWUwAyGUNDbYKOr6enp74B3yMjY3pE5/4hB588EGfZ02vb3zjG7r77rt9kx5zleVxWBXIsMr0FICzgH9tbW1YPzMASIjf37n+/v6EznGkn/zkJ4Hq/I0ta7Ty7fnEdnq0TZ7e85736F//9V9De+mZHgEAAKSJlREOoo0bN6q1tdWr6prLLHnzl7/8pb73ve95G0KFHQEAAISElRwOItvoKNfLuD/66KO69dZbtXXr1mR+BWPJPHm6ZXoKAACQJu9973u91QVBY6sdKisrg9astHjppZf00Y9+VJ/97GeT7fyNe2eoAAj1CIAto/mXf/kXbdu2zcuMBYBj2XxtMn8frINdvHixV81v3rx5x54uq9atW6cbbrjBK6I2PDyc1bZMOO+88/Stb30rEG1JJ+tXvvvd73p3/lMQ6I4ptAGA/VIuvfRSDQwMTOF3AwDxWZKXlewN2pLlP/uzP9NVV12lV155xduGOFssUDrppJO0YsWKQI5KpMq2Er799tv185//XLFYLNXThEJoAwD7R0DnDyBTbJneV77yFd17772ZeouUWbKd7TyI9LFVGZbR/8///M/eqFFybFom0Df7cYUyAGhra9OmTZviXhAApIvdZY+MjCgajabrlAgY+/3+4he/0G233ab29vakWheNFmvmzIVqbd2h0dHwjRaEMgDo7u5O6pcEAKmwzsFGGgkAco8VVfqv//ovfec739GePXuSusBIJKqZM+dpRu0J3goICwDCKJQBAAAAqXrmmWe8xMVkR5ILCgo1Y0aD6mYtUiQS/u4z/FcAAEACNmzY4N3xJ78TY4GqqutUP6tR0WJngdvQyb0AYOEyFX7x9tD9IgBkz9iNH5EO7M1eA5BRO3bs0N///d97myglsyTUlFfM0Oz6xSopDWYRpqnIvQDAfklLT5vKZwIg3+TQXR3eYrslWq2Yf/u3f/PyOZJRWlql+tmNKi937mkXerkXAAAA8polbv77v/+7t1Nfb29vUp9FcXGZZs1apKrq3N7XwBAAAABygt3l29bEN998s7dcPBkTS/pqZjTkVGEjPwQAAIBQs3n9++67T1//+te1ffv2pK6lsDCiGbVzVVe3wPv/yQrg1gwJIwAAAITW448/rr/8y7/Uq6++mtQ12JK+6pp6b7i/qKg4qdca6/gLCiIpBQ1BQQAAAAgdW8N/00036de//nWSbT+4pM86fpvvT1YudPwTCAAAAKFhVftsl74f/ehHXjW/ZBxc0teoktLUti62qn8HpwmCtyVzKggAAACB19HR4dXrv+OOO5LeCvngkr5FKi+fkdJ1FhYUqqAwknPJgQQAAIDAsl36bIe+W2+9Nel9YKLREq9sb03N7JSur7CgQAWFRTnX8U8gAAAABM7Ekr5vfvObam5uTqp9E5v11M48wUv2S1ZBQYE31J/Ka8OEAAAAECgPP/ywbrjhBm3bti2pdlmnPbNuvmpr56qwMPnu7WCCX5E3158Pkv+EAADIgOeee85b0rd+/fqkzm537LaWf/bsE70lfbHYcJKvD/+SvlQQAAAAsmrz5s3eUP+9996bdDuqa2aroeGkvF/SlwoCAABAVuzevVvf+MY39NOf/jTpJX1213/iiWeptKwqpbZbZn9hxCr/5caSvlTkx0QHAATMk08+qf/4j/9Iepe6XLBx40Z96lOf0rnnnut9Bsmu5zdl5dUpdf6W2W9JgoURu//N387fEAAAQBb09PTo05/+tNcJfu973/MK3OSywcFBPfjgg7r66qv1zne+U/fcc8+Ugp+SkoqkPq63Ov5ozi7rSxZTAACQRTYM/rWvfU033nij1qxZo0svvVQXXXSRTj75ZBUVhftPdEtLizfS8cADD+i3v/2tt6Y/XUpKEqvmZ5n9tiIg15f0pSLc3y4AyBG2o93LL7/sPWxXu5KSEq1YsUKnnnqqli9frtraWtXU1Bx+lJaWZv3Kbei+s7PTK9DT1dXl/f+dO3dqw4YNev31170AIFWRSJEiRVENDw3EPUVpqf8IQL4t6UsFAQAABNDQ0NDhgCCf2J36vHlLtPjEU/XUk79wXrorALDkwEjEivgkv7VvviEAAAAEQkPDIi1ZerrKy6vV19+lsbHRuO2ytf6RyPFb+FrHb8P9IyPjcV+HoxEAAACyxqruNcxpVGPjKlVWvrVZT29Pp7NNx979WwVA6/zzPas/WQQAAJAFRUVRxWIjWXjnYLC7+BNOOEmNi09RSUn5cY3q7XUHABMJgAe3583dzXoyjQAAALJg5sw5Wrz4VO1v2q7mpp0aGkpfhnxQFReXqr5+gWY3LPSu3+7cXfp8AoDSskovgLD5fqSOAAAAsqS6Zpb3WLZsrXp6OtTWulednS3q6mrV8PBgllqVPtbBV1fXacaMes2qn68ZM2Yn3Gn39nY4G1JePiPh88CNAAAAAqCqqtZ7TBgc7FNfX5f6+7o1ONTvLYeLjY4EctrAOvqiSFTFJaUqKSlTeVmVKipnqLy8KqX192Pjo+rv73X+VkpLE6sBAH8EAAAQQJboZo+6uhMC2LrM6uvt0vj4WNw3KS4u82oEYOooBQwACBS/BEDu/tOHAAAAEBh2d2/THy6p7v6H4zGOAgDIOtua15ZGWiXAnu52Z3sYAUgfAgAAQNZ4Hb/t0Ff41oB0T487ACgrq8paW3MNAQAAZEFBYcTr9MbH4ie75TRvh7637viPZMWR+vt74l6+rftPdhtguBEAAEAWFKjAK4xjO+qNjcU0OjoqjedwDXvr9Asi3h2/df6uIj69Pe71/8XF5b7Fg5AcAgAAyKKD5WyLVVQkbzRgdGzU+++YLYMLeUBgIxzW0VuH79fpH6mb4f9pQwAAAAFhHWbREXPh4+Pj3nr4g/+10YHxQ/8L1kiBjWaooODwXX1hQeFRc/rJ6PUJAEgATC8CAAAIKLt7zrd97X1XAJAAmFbUAQAABIbfFAAjAOlFAAAACISR4SENDcbfFdHqA7ACIL0IAAAAgdDd0+Zsh+2L4Fo5gNQQAAAAAsF3/r+UAkDpRgAAAAiEHp8aAKVlbAGcbgQAAIBA8C0BzAhA2hEAAAACwS8AYAlg+hEAAACyzrYAtlUA8VgVQSubjPQiAAAAZJ1vAqBXAKgg623MNQQAAICs8x3+LyUBMBMIAAAAWee3AqCMACAjCAAAAFnnOwLAHgAZQQAAAMgq2+2w168GAEsAM4IAAACQVQMDPYrFRuK2IRKJKhotiXsMU0MAAADIKr8VAGUM/2cMAQAAIKt85/9JAMwYAgAAQFb5rQAgATBzCAAAAFnlNwXACEDmEAAAALJmfHxMvb2dzvdnBUDmEAAAALKmr7dLY2Ojcd/fsv+LiqJxj2HqCAAAAFnT28fdf7YQAAAAsqa/r8f53qWlFc5jmDoCAABA1vT3dzvfu7i43HkMU0cAAADImoGBXud7F5eUOY9h6ggAAABZ4yoBbKLR0qy1Kx8QAAAAsmZ0NP4eAKawkC4qk/h0AQBZMzoac753YUHEeQxTRwAAAAimgoJgtitHEAAAALKmKOIu9DM25h4dwNQRAAAAssav0t/oaPwKgUgPAgAAQNYURYud7x2LDTmPYeoIAAAAWVNWVul87+GhfucxTB0BAAAga8orapzvPUQAkFEEAACArKmoqHa+98CAe58ATB0BAAAga6oqZzrfe2CgS+PjY87jmBoCAABA1pSWVTjzAMbGxnw3C8LUEAAAALKqdmaD8/17elqdxzA1BAAAgKyqrZ3jfP+uzibnMUwNAQAAIKsa5ixyvr8lArIaIDMIAAAAWVVeXq3qmlnONrS37XEeQ+oIAAAAWTdnzmJnG9radrMaIAMIAAAAWTdv/hIVOHb/i8WG1dGxP+ttzDUEAACArKuoqNGs+vnOdjQ3bdX4+LjzOJJHAAAACITGxlXOdgwN9am9nVyAdCIAAAAEwuyGhd5IgEvT/i0aG2OL4HQhAAAABILlAJy87CxnW0ZGBtXcvNV5HMkhAACAPDI42Kctv39Rr736uHbueD1wd9QnzFviuySwpXk7dQHSpChN5wEABFxXV6ue+d19GhkZOtzSHdtf1/nvuFJFRdFAtN5GAZYtW6vnnn0wbntsc6D9+zarcfHpcY8jcYwAAECe2PDqE0d1/qanp90bEQgSqwxYP3uBs0mdnU3sEZAGBAAAkAcsea6z80DcK21vC94a+1NOOU8Fhe4uau+ejSwLnCL3pwsAyBlWTMeGz+M5ckogKCqratXYeIqzOYODvV6FQKSOAAAAEEi2IqC4uNTZtv373lQsNuI8Dn8EAACAQIpGS7Rs+Vpn20ZHR9Tc9HvncfgjAAAABNbCRStVXV3nbF9r6y4NDvQ4j8ONAAAAEFi2LHDV6nc422f7A+zZu9F5HG4EAACAQJs5c47mnnCis429PW3q6mp2Hkd8BAAAgMBbecp5ikTctev27t2ksbH4qxwQHwEAACDwysoqdeJJa5ztHB7q14ED253HcTwCAABAKCxZeroXCLg0N20NZE2DoCIAAIAQsyI+27a+otdefUI7MrC5z8BArza+sV4vvvAbbd3yskZHY1n7tGwKYPmKc5zvb9UObZ8AJMY9oQIACDSr47/+mQc0ONB3uJ07t2/QeW+/wltDP1VWOtg2D7Iqgmbf3q3atWuj3va2y1RaVjHV06dk3vyl2rnzDWf54vb2vaqpmaPyipqUzp9PGAEAgBDq7+/R+qeP7vxNT0+HNm1cn5Yreu2Vxw53/hP6eru8oCOb5YNPWXW+tzzQpckrDjTuOoxDCAAAIGRsqPuF5x7W4OBbd/5Haj2wd8pXZCV2bfvgeGzk4ZWXHo13aFrU1MzSggXLnO81MNDt7RgIfwQAABAydofv6pxNUVF0yldk8+1+y+6amnZo547Xp/w+qVq24hwVRYudL7eEwLEs5iuEAQEAAIRId1ertm97zbfF833ujhNlQ+wLFi73ffqmjc9qeHjA9zmZUlJSpqUnn+k8veUttLbudB6HCAAAIEzeeP1pr/ytS339fDUuXuU6nJQVK8/1rcNveQBvbn4hqXOm0+LFp6qycobzlK2tuzU83O88nu8YAQCAkOjsbFFrq3t+v7y8Sqef+Ye+CXLJsCmAtedc4t1tu+zetSlrowCFhYVaecrbXE3T+PiYNxWA+AgAACAkdmzb4GxpQWGh1p7zRyouLnU+JxVlZVVac9oFzpdaXYDdu990Hs+02Q2LNHv2QufbdHcfUG9vm/N4PiMAAIAQsI62qcld6nbBguWqqpqZkSuZ3bBQdbNOcJ573x5bdpc9p5x6vgoLI84GNO3f4jttkq8IAAAgBNpa93pL8+Kxzu9kn4S4dFi2/GznaWxFwtBg9ubaKypq1Lj4FGf7hob6vAJBOBoBAACEQFvbfmcr7e4805X5bEtevzr8fu2bDicvO0slJeXOtzrQsl2jowcrGuIgAgAACAFb/ufSMKfRdegwvyFyv2NHsvl2l56e7M6zFxUVe0GAy+joiA4cYFngkQgAACAE+vq6nK2smznXeWyCdZC2SiCe6ppZ8X58HBsFcLESwdlm+wRUV9c5m9HRbtMoQ87j+YYAAABCYGjIXXCntDSxjXmWLV973JXaUr8lS0477ufxlJa6h9iHhwfjvWTaxbvGCWNjY2plFOAwdgMEgICzwj+ubXhtLXy0OLGd/+bNP1mRomJt3/qqt5mQ1dRftmKtKnyK6Ryp2GeOPTYaP0FxOtm6/xkzZquhoVHNzTvivnV7+z7Nql+koqLEPrNcRgAAAAFnZXntEa8CoP3MOr6CgsQGdOfMafQeqXAFISbRPIJMsjt8s2TpGrW07HR8XmPeioDZs0/MZFNCIbFvDAAgqyKR+Bv8WAAwXcPvQ0PupX5FjvZNFy84OlQiuby8xjcxsrNjf9zgIN8QAABACJSVuef5bTh/OvT3dTvfpqy80nlsOtgoyJFOOmm1sySy7WHQ19c+Hc0KNAIAAAgBK3bjcqBlt+tQWrW07HKez29TnukwMfw/wUYB/FYtdLS76yrkCwIAAAiBGbUNzlb6dczpYvP/ba37nKerrXUvEZwOY2Ojx73N3HlLjvvZhN7e1rivyScEAAAQAnV17rX+nR0t6uhozuhV7NzxurPDtBoDtqIgm46dAjANDQsVjcbP9rcRg4F+95RGPiAAAIAQsBEAv3K/mzc9l7GrsD0Itm552Xn+OXMXe7sRZos3/D9+/LsXFkQ0q37+8QcOyfc8gOz9xgAACbNlgPPmLXU+v/XAHu3bu9V5fCo2vvGMbyGi+QtOnsrpp2xsLOY8x0yfkZPe3g7n6/IBAQAAhMTiE0/1Cv+4vPLyo+rqPOA6nJI9uzd7w/8uVnp31qx5rsPTIt78/wS/MskDAz2+r8117m8SACBQrOTv/AXLnW2yRL3nn3tYPT3pWeK2f/82vfrKY873M36ld6eDVwhpLM74/yElJWWqqHStoLAaCu7aBrmOAAAAQmT5irNVXFzqbPHAQK+eeuLnXuc9FVu3vKQXn//NccvrjmTz64nsRJhJfnf/Eyorap1N8CtulOsIAAAgRKzzX7nqPN8WW9LeC8/9+uBoQHdyowHNTTv1xGM/1cY31vtWy7Ps+jWnrfNtx3QYGz1++d+xyiuqj/3RYcNDfc5juY69AAAgZObPP1ltB/Zq9+7Nvi1v2r9dzU07Dt6pNyxSff18lVfUHFUhz+6gu7vavFoC9vzu7jbfcxpLSFxz2jtVVhZ/e+HpYsP/iYwAuKcA5JvcmOsIAAAghE5ds84b7m9t3evbeuskrVLgRLVA67yLS8q82v3DI4MaGR7yfX08K1a+zVv6l22JdP7Gb7tkvxUEuY4pAAAIIVsNcNbZl6guyQx8CwiGBvvV19eVUue/bPnZOvGk1YH4xPx2JzxSUVH8jZTMqM8SwlxHAAAAIWUd2znnvsebEsg02+7Xhv2XnnxGpt8qIQez/4/eAMilqNA92J1IDkGucn8qAIDAs475tDMuVN2sE/T6hqe8BMB0s41+Tj/zD7Ne7vdIid79m0LfEYDJkwhzFQEAAOSABQuXq372Aq9q3769W3wz+BNsZ07mAAAddklEQVRlIwxLlp6hE09a41uAKBuSCQD8cgUKCwqy0fxAIAAAgBxhyW6nn/EuLV16hrZufUX7921NaUSgrKxSCxau0OLFqxQtjr+ZTjZ5Hfq4u/jPsUZH3aMihT7TA7mOAAAAckxlVa03X7/q1Ld7y/tsyWB7e5OX+BfvztnW9FdV1XrTCPX1C1Q7c85RSwWDJt41+PGbFolEIn4vzWkEAACQoyKRIs2de6L3mDA42KfR2IjXKdrdvW3l61dZMGi8tf8JFP85UmzEvdSREQAAQF7wWxMfBn7D+S59fd2uQ4r4JAjmOpYBAgBCI9nhf9PX2+m8vpKSSuexXEcAAAAIBW8uP/Hcv8P8RgBKS8pDce2ZQAAAAAiFVO7+x8bHfLdHLimtCMW1ZwIBAAAg8LzOP4mlfxM6O5qdgYPVOSgqCt4yx+lCAAAACDy/pXx+2tr2Ow+XV8x0HssHBAAAgEA7OPefwuS/pHafAKCysjbQ151pBAAAgMCydf+pzP0b2y65u7vNeW2VlYwAAAAQSN66/xTv/ltadjqvqaSkQtFoqfN4PmAEAAAQSOPjYxqNxVJuW1OTOwCorqlP+by5ggAAABBIsRH3Jj6TGRjsU3dXq/Np1dUEAAQAAIDAsR3//LbxnUxLs/vuP1pcptLSqslOkfMIAAAAgTMyMjylNjU373K+fkbNbOexfEIAAAAIlFhsOOXEPzM41K/urgPOa6pi+N9DAAAACIzxsakl/hkb/rflg/FY5n9ZWXW8Q3mHAAAAEBgjsaEpt6XZJ/u/huH/wwgAAACBYEP/42Px79wTNTQ8oC6f4f9qAoDDCAAAAFlnGf9TWfM/wX/4v4Th/yMQAAAAssrm66ea9T/Bb/i/uqYhq9cZNAQAAICsitmSP0fSXjKGhgfV2dnifAnFf45GAAAAyBrb6W8qBX+OdMA3+79E5eU1WbvOICoKYqOmpHWvxv/5ximdAkCe6XLvGJcp/QM93pK3gsLU78Os49y9a7Oamrart6dDY+NjKiurVEPDIjU2rlK0uGRKzbf59D173lR3V5uGh4dUUlKmurq5WrR4laqqpraVbm9vp3Zsf11trXs0NDSgSFFU1VUzNfeEk1RfPz+ldjf7VP+rrqb4z7FyLwBob9b4f3z32OsEgECxOvWPP/ZTrT37EpVXJL8u3ba5ff65h9Xf133UdQ0N9quzo0Xbtr6qM878Q9XPXpD0dY8MD+nFF/5LBw7sPuq1w8MD6ulp186db2jpyWfq5GVnJX1u8/s3X9Cbm1/wNvs5bHhQA/09Xic+a9Y8rVr9dkWLEg9ghkeG1NHhN/xPAHCs1ENPAMCUWGf61FO/0OBgX1Lnsbvnp5+697jO/0gjI0N6dv2Dam3dm9S5R0djWv/MA8d1/keypL03Nz+vNzc/l9S5zaaN67V503NHd/7HsDa/9MIjGhsfPfaQ08Hs/yMCiiNEo8UpBVm5jgAAALLI7thf3/C7pFrwykuPeh38ZOwO++UXH/E69URZx+6XSHek37/5orp8dtw7lo1MbPn9S8f+OC5by79zxxtxj8Xjt/lPlXf3XxDvZXktlAHA3LlzFY1G8/oXByDzqqurVVFRkfE32r9vq/r7exJ6n/a2/eroaE7oucZGF/bt25rQ8y1Q2LF9Q0LPNTYSsH3bqwk/f8uWxDr/CRYAHDVN4GDD/+3t7s+E+f/4QhkAlJaW6uKLL45/RQCQJpdddpkikUiazubvQMvR8+0uLS3uXe5cEj23BRfJjBaYAy17XG97nETbMcFGObq6J0/QbGnZ7QwUioqKyf53CGUAYO644w6ddVZqCSgAMJl169bpq1/96mRPS5uBgcRGAAYGepN+T0uuS0Qq5x4a6tfYWPy59yMNDvQmHVyYRPIjWpp3OC/P1v4XFDD8H09oVwHMmzdPTz/9tNavX69NmzZpdDTxZBEgFfZHLhaLaWRkxPu+uXYbQ7jZ9OLy5cu1evXqae04IpHE/hwXFiY/IpHJc9syxsk6WK/M71hqf6Mjhf6fi20e1NHe5PzSMfzv5v/JBlxRUZHOP/987wGkm3Xww8PD3mNoaMjr+IFMqaqamdCpE33ekaqqEz138mv7qyprfQMA6/xtKL8oElVpaUVCd/RHqqz0L97T0rLHOQJRVBRVecWMhD7XfBTaKQAg3ewO3zr6np4etbW1qbm5We3t7ert7aXzR0YVF5cmvF5/ztzFSRcPOmHekoTaXzOjXhUV/h3usebNd597ovPXoQ3+5sxpPPblvmpq6lVWVuX7HP/sf4b//RAAIG90dx9dMMWG8wcGbOvQLh04cOCoDt/u+hnix3Q5efnahIfpy8urtHjxqoSbZpX1amsT3wRnxSnnJnxua0vj4lPjPv/Yzt9YBcFotDTu849l0wpLTz7j2B8fxYb/LXHRpYbiP74IAJCTtmzZom9+85u68MILtXDhQpWUlKimpkZlZWVqbGz0fn7LLbd4+SP9/f1eMABkw8JFK9TYeEpSb718xbkJjRjYHf2a09Ylde45cxYnVOGvuLhMZ519SdzAxVYSWDXBiTv/CcXREq05/Z3e0Lwf6/yXLV87aeByoGWvcx+Bg8P/yU9p5JNMp0b+t6S4374NGzbolFOS+9IDLpaUZ49nn31WX/7yl/X444+7nnoU+0Nz6aWX6vrrr9fixYsTeg2QqOeee06XX3553KdbMt/KVecl3flPsPXxVlJ365ZXjsuut8S8RYtWasXKc+N20InYt3eL3njjaQ0OHF+lcPbshVq1+h3eCMCxrPP3dvfz0dvXqU1vrI9bz6CsvErLl5/tlQOezMsvP+pcWlhbO1cnzFsx2SnSYtPGx4/7HRxiH0Ti9YynWdaSAG2+NZGlI8h9E0Pt9t94/9++J/bzie/Msf+1jt/u4q+77jr97Gc/S2ro3s57//336+GHH9YnP/lJLxCYrnXfyG/1s+en3PmbgoJCnbxsrRafuNrrBK08sH2frVOe3bDI27hnKixvYM7cE9XWtlddna2KxYa9JD7rmCsdyYK2s99obPJk2cqKGTpr7bvV09vhZfDbZkC2Xr+mps6767drm0xsdERtrfucT6uuofb/ZLIWAEwkWQFT1dTUpI9//ON69dXEK5IdyzL8v/e97+n111/X7bff7k0XAJlUkKYZ2Gi0JOEkv2QVFhaqvn6B95iMZfqPJbkc21YQ2CMVFvS4thGORKKqYPh/UpOHWUCAWaa+DeFPpfM/0mOPPaYPfvCD3ogCgMkdXC47mHTnP1V+FRGrquoSGkXIdwQACC1bsvcnf/In2r/fnQWcCstP+cxnPsMUFTAJm44bHh7UeAKVANNpsuH/mhmJr3rIZwQACK2bbrpJL774YkLtt0polrWcaBW1Bx98UHfddVdC5wbykZfpPzJoOwJN++W3HtjjSrrz/q0z/J+YrOUAAFOxY8cO/fCHP/Q9hc0Dzm5YrNoZc1VcUn74uYMDPWpv36vW1l3OOUTz7W9/Wx/4wAe8HeEAvCWV+f50aml2b4hUVTWL4f8EMQKAUPrbv/1b3+p8lZV1WrFynRoaTjqq8zelZVU6Yd5yLV/+dpWWHr+MaYJVAbRNpwAcZEP9w8MD0z7ff6TRsZhaW/c6fyVk/yeOAACh09fX5w3Ru9jw30lLzpq02IiNCiw9+RyVHDE6cKx77rknqWWFQK6yIf/hEZvvn/4h/yP5Df8XFtrwf2L7HkAEAAifRx991EsAjMfm+BsbT0t4CNCmCRYuWh3vVJ49e/bojTfecB4Hcp0VHLJEP6+4T3b7fk9zk9/wf523dBGJ4ZNC6DzxxBPONs+cOU/R4sRqjU+wEQObN3T57/+2gpZA/vHu+rOQ5e9iw/9WmMilhuI/SSEAQOjs2+eu/lUzY05K1zPD53VvvvlmSucEwurgXH9w7vonWOU/qzYYj43+VVQy/J8MVgEgdPzW/ZeWVqZ0PSWlFc7XWTIgkA+sqM/oqJXzDebmWM1NO5y/hsqqWQkv88VBBAAIHdvC1yXV+b9IofufgivfAMgl3iY+dnedhXX9iRgbH/XN/q+pqU/kNDgCUwAIndmz3Zt82PrkVHgFTRyqqtxLBYGws3r6trTvYJJfALL8HFonGf63pb9IDgEAQqehwV3ms7c3teH6nt425+ewaNEi5zEgrA52/IMaGR7K+tK+RDQ37XQ+zTr/RKt84i0EAAidlStXOtvc1rpbya5Vsj+EHe3u/QROO+005/sBYXN0xz8WiuYfHP63f9vxMfyfGgIAhM673/1uZ5sHBrrV6vOHIp79+3+vWCz+1EFxcbEuuOCCeC8DQuXgkr6BQ3f84ej4J7S17VdsxJX9X8jwf4oIABA6y5Yt0+LFi53t3rtno7q7DziPH8n2AzjQst353Le//e3kACC0LKvfEvuGhg7O8We7il+qJh3+j7iTeOGW6QDAmVFi20gCqbLtel2sctn2bS9o//43nZv92B3/7l2vac/u112n8Xz605/2PQ74GR0ddR8ucB+aKhvmt4TY4aEBjQY4sz8R9u+59YB7+L+a7P+UZTps6nO1rLW11XUImNQHP/hBb6OezZs3x32u3fk0N21V64Fdqq6uV3l5jSJFUcViw+rr61BPd6szOJhw0UUX6dxzz417fiARLS0tzqdFi4qdx1JhxXusUp4XdAQ4mz9Zbe37NWJliOMoKChUVaW7iif8ZToAcKZWNzU1+bcM8BGJRPQ3f/M3uuqqq3x3BbSiJh0d+7xHMmpqanTjjTcm8xLgOM3Nzcf9bEJxkiWr4znY6Y968/u51OkfyW/4v6pqphj+T12mpwC2uJq2fv161yEgIeecc463LXC6WXBx2223qbGxMd2nRp555plnnFdcUTnDecyPDe/bmn2b17c6/WEf4vdjw/8HWtzD/1XVFP+ZikwHAC+7GvfrX/+aPABM2Yc+9CH9+Z//uQoK0jOhGo1Gdcstt+hd73rXlNuG/GYVJB977DHnh1BdM/nQtU1leR1+bNjr7IcG+70s/ly+4z9Se3uTs7iX/Zuv9tnEC5PLdADwuKS4WTCWA3DfffdN3kJgEhYAfP/731dZWdkkz/RXW1urH//4x15QAUzV3Xffrf7+/riniUZLVHNMADDR2Vvn7iXwDQ94SXxehx+LecP9+aa52a/4jw3/R/PtI0mrTAcAXZKce6nefPPNvvO3QKIuu+wyPfTQQ7r44osTfclhNuR/9dVX67e//a237A+Yqr6+Pn33u991nmZ2w6IjOvrBg8P5hzp7G94fGx0N7ZK9dLGAyG/4v5qtf6csMuUzTM6WAl4Z72ldXV3q7u7WhRdeGO8wkJS6ujpdccUVXidumdC2bfDgoLvGv5UUfv/7369vf/vb+vCHP6zKytR2EgSOdc011+j5558/9seHLTv5TJWUlHudXK4m701VR3uT9uyJvxW3Df/Pm7dcBYXT0YVNrrV1p5evEIeNgN8U5+eBkOlVAOb/Svq6pAXxrvjOO+/UkiVL9PGPfzzeYSBplhxoj1gs5v0R3rhxo7fqxIICm+OfN2+eVq1apTVr1qQtdwCYcOutt+o///M/nR+IDf3XzpzjPI6DmlsY/s+06QgAbAGnRUB3uC7my1/+sne3dt1116W8nStwrKKiIm8dP2v5MR1GRkZ0ww036K677vJ9u5OWnO57HDYoMq4W3+x/946gSFymcwAm/EDSs65m2S/bll1deeWVvsNmABBETz75pN773vdO2vk3zGlUXd3cIF5CoHR0NHkJkPF42f/VbP2bDtMxAmBscuR/SbJJMefm6s8995yXzHXeeefpPe95j9atW6f58+erpKQkHdcKAGlhuSW7du3SI488ol/96lcJ3biUllZoxYpz0vL+ua6leZfzEisqahWJpLeKYr6argDAWDbHxyTdI/knH/7ud7/zHhNseVZ1dXW+/o5CwYY/Ozs7vf96iU1Iit3V2M6DM2bM8KYuEFz2PbcE5mREIkVavWadt/wP/rwy3i3uAKCa4f+0me6/ND+X9H8O5QMkPP3Q0dHhPYBcZsGTLR9DbrHgzjr/Y9f9I77Ozhb/4f8ECighMQl3wmlk+QD/U5J7fRYA5Ai7+2feP3F+xX/KK2Yw/J9G2QgAjC0NPE/S79N4LQAQOLHYiDra3ZsC4Wi+xX8Y/k+rbAUA5iVJayT9paT49TIBIAf4rWnHWzo6WzQ46JoGs+x/Nv9Jp2wGAMbWedwgybZds1oBe9J5cQAwXYp8EvxsS1tHpTgcocWn9n9FRY2Kisj+T6fpTgJ0OSDpq4eCAZsasK3Y1kpaJskqPrAEAEBg2Lx+UVGJV863rLxGlZW1Ki4u1+ZNT3q79x3LNvfp6GjWzJnUAPDjt/yP4f/0C0oAMMHqBTx56IHweEPSinjN/fl//kLVNTXxDuW1vXv26qMf+4jrM3j6UI5MPrtZ0nXxPoAT5q1QbW0wO9LKyjp1d7fEa7bXuREAuHV2HfAf/mfzn7TL9hQAAOSMmhr3HLVlt1Mjw81v+L+8oprh/wwgAACANKmsmqVCxw51w8OD6uhkNYBLS/Nu1yGG/zOEAAAA0sQ6/8rKmc6z+c1x57Ou7lYNDPQ4PwKy/zODAAAA0qjabxrAWw1AqexjtTS5t/4tL69WNFp67EuQBkFLAkSOsfr2JcXZrX9uf3AP/tEd1+jomMbGLdcUyIyqyoPTAPFWAwwPD3jJbrUz2M72SNT+zw4CAGRUVVVV4DZyGhsb0+joqFd7f+IxLu7KkB6FkSJvGqC721Y3H8+S3QgA3tLd066Bfp/hf7L/M4YpAOSdwsJCRaNRlZeXq6amRnV1daquqlZxlCIjSA+/OWubBsBbmpt2OD+OsjKG/zOJAAB5z3ZrKykpORgMzKxTWVmZClSQ959LlrnnaUIwh17lrQaI/+d1aKjfmwbAQQf8tv4Nyd2/T17H8VWhAiT+NxTIU/ZHu7KiUjNnzsx67kKecxWEVywW/I1EbRqgwnc1gPuuN5/09LSrr6/becl+IylBMTYai5vvcUhXUNoZDwEAEIcFAtXV1aqprlHEsa4bGdXhOvtIbNh1KFD8Oq/mpl2Bamu2NDe7Pwcb/i8uLstW0xI2Ehvye26738FsIwAAfNgqhtraWkYDpt8W11sODvS6DgVKddUsFRTE/xNrO951dbUGqr3Z0NLizofwC6CCZHDQncAY9C3v4387ARxmOQI2GlBRXsGnMn1ed73VwEC3Yv53XYFQGIl6mwS5+JW+zQe9vZ3q63WPkIdl/r/bP5DbEOTfJQEAkCBbNWCrBTAt9knuUYCuzvgb7gSN3w52tjdAPvO7/tLSqlAM/9v8f2+v7yj/o0H+HRMAAEmw1QIEAdPm1653amvb6Zd4FRjV1e5pgIGBXnV1twWmrdOtxScR0m9TpSBpa9ulsbGYq0k2V/U718EgIAAAkmRBQFVlVZKvQgp+7HrNyMiw98c36CadBsjTmgB9/V3q9Rn+r6oOfqXEWGxYra3uDYwk/UzSQJC/owQAQApKS0tVVhr8DOWQe1py5wIcaNmhvr7OwF+iX2fW7HMXnMua9runP0pKK1VSUh7oyx8fH9Pu3a9NNgr1T4G+CIkAAEhVRUWFokVU084gq8/8N67zW/GVPbtf8+rrB9nBaYD4haVsGsBK4eablhZ3HYQwDP/v37dZ/X3uBEbJm/t/Kui/V0YAgBTZ6oCqqmqqBmbW3ZJedr1FLDai7dteUH+/7x/jrIpEoqqocK8GyLfSwPa76u1xj9z4JU5mm23wtHv36+ro2O/XFKtieZ3fE4KCAACYgkgk4q0OQMZYKdU/ldwlVW0udsf2l9TWussbmg0iv04t35YDNvkUQbKh/5KSYC63teWn27e9qO6u5sm+YndIenayJwUBAQAwRbZ3QFGEqYAMekbSTX7nt46/qWmLfv/79ers3D/Z3Oy0q66x1QDxpwH6+7vV0+ssfJhz/Ir/1ASw9v/gQI/27H5d27Y+P1nRH/OGpGvD8kvjrxYwRfaH3UYBunvcNc0xZX8l6UxJ7/U708jwgPbu2aj9hZu9Yfey8oO7yRUVFasgy/c7JSWVzg5k986NmjNnsd+l5YTh2JB6ut05D0XRUvVlORgaHR32VpkMD/erp6dNIyMJ7z1hF/Z+yb2PRdAQAABpYEsDi/qLFBt1rgnG1NhUwIckPSzp7ZOdamxszPvjbY8w2Lt3i/fId/v2bgrrR2Br/t8nKVQXwBQAkCY2FYCM6pf0bkkPZPRdgORYlHlx0Iv+xEMAAKSJbRxUoPjzvEgbCwKukHSj5GVbA9n0vKSzJa9mRegQAABpYlsIWxCAjLN5lq9JukjS5oy/G3A8Kz7xFUnnSdp2/OFwIAAA0shyATBtHpG0WtJnJfnWZAXSZFjSP0paIenrkkbSdN6sIAAA0igajabxbEiA/UH+e0knHZoauEdScKsCIYwsAdWWol4jaZGk/1+Su5ZxiLAKAEgjmwawmgCsBph2dif2y0OPiKTTJZ0qaYmkWZJsH2f7eVBYm+ZLyufMUZvKsQQ6qwscpHyOHsl7bD+U1W+df04GlQQAQJpZdUACgKyyOzZLzrIHAAemAIA0swAAAIKOAABIMwIAAGFAAACkmavmOwAECQEAkGYEAADCgAAASDNbCQAAQUfd0nCzVRx/IOkMSfMkZWtj+qskzYj3US5ZskSRPNsqd3x8XKOjlojuFouNaOdO51Ji23DclrRlg21puPdQadPnArY8CwDy3kxJ3zy0hnZc4sFnkJHvwD5J1+X5WnUACAzbCMX2nabT4zOYru/ALknnBuZfAADkoT+XvCIn0/WHn/fhs574DgxK3lQPgBxBDkB4vF/y6pzzO0O2WLndP5T0eLYaACB96EzCYaGkjVlM8gMmWILgMkl9fCRAuFGzNBxulbQ2HE1FjrNNdWwvdEYBgJBjBCD46iXt99vJ7IILLtD73vc+zZ07lzK0SEh3d/dxSxVjsZj27dune++9V6+99prfeQ5ImnsoHwVASBEABN8nJN0Zr5lWce6OO+7QJz/5yXiHgbisRkFLS0vcY8bqGNx888267bbbnM85VH/iCb8nAAg2SpYF39tdTfzEJz5B54+kDQzYCL6bBZbXX3+9zj3Xd+Wf83sJIBwIAILPhlrj+tjHPhb354CL3d339/e7Dh9mQcBVV/mu+rPKkwBCjAAg+Ga5mrhwoS0OABLX19d33Ny/y/z5812HjOWmAAgxAoDgc/6O2HQGybC5/97e3oRfMsn3i/whIOScnQuA3GFD/x0dHd5/AcAQAAB5oLOzUyMjVsgPAA6y7WQB5Ci747fOf3DQSvkDwFsIAIAcZYV9bNjf/gsAxyIAAHLMRLJfIsv9AOQvAoDgc96+2R96wIyNjWl4eNgb6rdHOpL97Jw+nN9LAOFAABB8za4mvvrqq5oxY4brMPKAddIWCGYiGNy5c6ffJ+j8XgIIBwKA4NvjauJdd92ls88+23UYSJkFFnfffbff63f5HQQQfGwHHHwlkj4Ur5mbNm1SeXm5zjrrLK90K5AOljT41a9+VQ8++KDf6a6V5N5RCEDg0WsEX4XkDbfaf+NavXq1LrroIjU0NMQ9DiTC7vr37t2r+++/X9u3b/d7yRZJS/2eAABIj5tsl1YefAYB+Q6wCxWQAxgBCIdqSW9I7MCGrHtB0jmSWIIChBylgMOhW9JlkibfxxXInDZJtkcwnT+QAwgAwuNFSR+QvGAAmG57JV0sadt0vzEA4KCVkp4PyFxwUOakaUdm8yMekjSXf4AAkH2Wu3G1pEclryIbHSCfQbq/AwOS7pd0Ufa/7gAygSTA8KuTtOZQgqCtA6S2A1I1fGjJqRWfsimn3lRPBAAAAAAAAAAAAAAAAAAAAAAAAAAAAAAAAAAAAAAAAAAAAAAAAAAAAAAAAAAAAAAAAAAAAAAAAAAAAAAAAAAAAAAAAAAAAAAAAAAAAAAAAAAAAAAAAAAAAAAAAAAAAAAAAAAAAAAAAAAAAAAAAAAAAAAAAAAAAAAAAAAAAAAAAAAAAAAAAAAAAAAAAAAAAAAAAAAAAAAAAAAAAAAAAAAAAAAAAAAAAAAAAAAAkHb/D9mTjcJMZxhMAAAAAElFTkSuQmCC;" vertex="1" parent="1">
          <mxGeometry x="147" y="140" width="152" height="152" as="geometry" />
        </mxCell>
        <mxCell id="6XTI--pssBej2aboavZY-32" style="edgeStyle=orthogonalEdgeStyle;rounded=0;orthogonalLoop=1;jettySize=auto;html=1;entryX=0.5;entryY=0;entryDx=0;entryDy=0;strokeWidth=4;fillColor=#e51400;strokeColor=#B20000;flowAnimation=1;" edge="1" parent="1" source="6XTI--pssBej2aboavZY-6" target="6XTI--pssBej2aboavZY-13">
          <mxGeometry relative="1" as="geometry">
            <Array as="points">
              <mxPoint x="340" y="735" />
              <mxPoint x="107" y="735" />
            </Array>
          </mxGeometry>
        </mxCell>
        <mxCell id="6XTI--pssBej2aboavZY-34" style="edgeStyle=orthogonalEdgeStyle;rounded=0;orthogonalLoop=1;jettySize=auto;html=1;entryX=0.5;entryY=0;entryDx=0;entryDy=0;strokeWidth=4;fillColor=#e51400;strokeColor=#B20000;flowAnimation=1;" edge="1" parent="1" source="6XTI--pssBej2aboavZY-6" target="6XTI--pssBej2aboavZY-18">
          <mxGeometry relative="1" as="geometry">
            <Array as="points">
              <mxPoint x="410" y="735" />
              <mxPoint x="647" y="735" />
            </Array>
          </mxGeometry>
        </mxCell>
        <mxCell id="6XTI--pssBej2aboavZY-6" value="&lt;font style=&quot;font-size: 16px;&quot;&gt;&lt;b&gt;Backend&lt;/b&gt;&lt;/font&gt;" style="rounded=1;whiteSpace=wrap;html=1;shadow=1;" vertex="1" parent="1">
          <mxGeometry x="242" y="560" width="270" height="110" as="geometry" />
        </mxCell>
        <mxCell id="6XTI--pssBej2aboavZY-7" value="" style="shape=image;verticalLabelPosition=bottom;labelBackgroundColor=default;verticalAlign=top;aspect=fixed;imageAspect=0;image=data:image/png,iVBORw0KGgoAAAANSUhEUgAAAgAAAAIACAYAAAD0eNT6AAAABHNCSVQICAgIfAhkiAAAIABJREFUeF7svQm4bEdZ7l+r9z4nA4QwBVCGIDIJCgp4ZRIIEoYwo4kgggxXcPiDIpPjvUFUwhhAEPXhivMQvA6ocQIOgRDEa9SLV/7i1aAGIYwJJOTknLN71X1WVXVVffW+X1eP+/Q+u37Pk+693m+or761ump17z7ZnWk0GhvB+YcObf/tZeNbdCcdvcXhnZNuuj06dpNjY3taZ0Y3M3Z8E9tvnzbatjex4/7U0cjczPZ2ZEaj03tjtjtrTrN9f9B05kZ+Mt3pnbGjycSsMSPT29OtOlNruq47Yqy9PsZYc60xZsd0ZtxZ86VB7425vuvMEWvMNaPeHrbWHu46c/V4tHXYGnO9sfaLB4z5Um+3ru63dq4+sNV/YceOr373jzz56q7renX4RqOx63S7PmKjsY94wqsvPe2GrWO33TZHb2X67rZ2p7+12TZf0ffdbTozuoW19pbG2FsYY84wlmzQbsfm23ZULbcnrEuhewVL4SAPuc8Em3vTgYYbDPNFa83VpjOf7mz3Wdt1n+2Mucp23Wf6HfvZ7QPjTx+1Bz59+qmnfuqPXnLW5/bRZdJoHBfaDUCjsSDDO/bL/+bo7c1Wd4edne7MvuvO7Ky5Qzfu72CNuYMx5g7W2FNp+rR7RzPsm04AVfovvfmHMYph5GE4UkqZZfPPwZJZ4u6Gke2v7M3WJ+1ofKUxW5+w/fiTB7bsf3Tb3b/f6rSTrviNF57jPpVoNBqL0W4AGo0pDJv8P3zk2Fddf/jgnUejY3fu+9Fd+m585y3T3bk35o7G2gMiPNvLxMaYE32SM2yBTgA1ksy6j8OqVQTwowGZMRypw2T5qU+RDXxAENNWq7dmWLw+bzt7hbXdx7tRd4W1/RUHRqOPm5OP/vO7f/jcK43pSPJGozGh3QA0Gsa4jf5//dX2Hbrt8T1tb+8xHu3cc2RG9zB9/zXWmFNXuXF50t4Eu1QUwOJwanrQCUXzLCFJYZSH4UhNcPw2/4QvjpR41HTdvxhj/3HLmCt2RqOPbo3tP97yNsc+9s7vP+86vWmNxv6h3QA09h3DZv+hDx+422h0+L5btrtv343ua4y9j7X2FN+MYhuE3QWEmd+1JpSNK6YmY+yrzT/OViLakg64rPTQmitsZz7YGXv5QdtffvUd7vS3lz//fvHLj43GfqHdADROaNw7+8vtvW3X32+0M7qvHbmN/uusMQf5/iA3Ddz8B4qNJTv0P5KNh+9Qikzi81F5URnzf+mvmHXKRUspPphXfERF4ANCbIa3ELtsQkwPnk4AtQhP9q7rdoy1/6fbsu/ZHh34s6/5/MEP/OzPnnNETKDROAFpNwCNE4pzL7po69pP3uo+oyPmYZ3ZeajpRg+xxp7mJ3libVyc+Tf/Abqd8j10PV/6C2P5J3XgAK12corn2vwZnbFfNsa+dzza+rNTD47/9C9+4ryPM79GY6/TbgAaexpr7eiJr3nffWzXP2y8ZR5qrHmI6c1N2KTW8m31Xdi4Btww+Da6YNnNP46kvYHelz3sOvPXdmR/7aann/Lbf/SSx7d/ntg4YWg3AI09x/Auf+c/znjAsa4719r+W601ty0+PwZO/M3f3yAo750Dy33jf509dOVr1cdJLfbO3+ee5QZqeg87Y8bW2kNdt/1rXz7zDr/bvjfQ2Ou0G4DGnmD4H+qMuyOPNqZ7sunMOdaY01Ph4m04sPc3rmFK07f2E/mf+3lqm7/eo9S+1fWwM93nR1v250/dNm+5+PzzroKLrtHYA7QbgMbGMny8f84bL3nU1o75bmvsY4yxJw/FymV8+uYv3lfS9b/IBj4giAKWf9eKM5owz8alZwmWYhp7q4dpdnA2ogCWFJUaqbPgP5nsTHfEjuyvn9SbN7znVed9VB+g0dg82g1AY+M4922X3fb6G3aeY8Y7zzXWnJkXuFkb1wDZeISUDrhM4idZ17hxJcL4vIxduIHaIz0sypTtGo46OzL2T3e2u5+67JXnfShrcKOxsbQbgMZmYG33hNcdOqcfbT3PmP6x1tqtclPCRZfvv57svTnd3IpsM/g4xH5Jg7J7gmQHTyeAmg+xli/9FbMOvdJKaf9qojjhEXpmJ6Id/Z45ZetHLj3/Kf+cIhqNzaPdADSOL9Z2j3vdJY+znf3vxpj7+mLCSqruT6oh0DauhTaugnV+d8KfQXk7Eoky3WazS4THp3BuFwPh9yKlfaBIIw/DUeEz/L8FrO1/6SYnj/57+45AY1NpNwCN48Lw+/0nvfF9T9npu/9mrP26VARfUGdZdCfs1Y1rwM3zOG5crYc5eHcw73XYdd11Xd+/6vqrv/Tay3/x+cdE+kbjONNuABq7zhMuvOQp/di+whr7tTj48otupHhX5imWcPABQbwDXP5LfyR/XhkWhKz5D/ys8wZqYP099KNMZc09FLMc/nDRyHzE2NFzLr3gvMun1tVo7CLtBqCxazz5LR+469HD4zeZzj6aD7rfN/+hK/oNgmOXNy7keN9A6T1K7av3UM8SLEWKYta+Leow/Psnw68FRt3o5868+eEf/bWXPvPL2NtGY3dpNwCNtXPuRfbgkf94/0+MO/ty+PO5keU2//IdF7LujWvAjwH7QhTAkqKcidsjC/5TtSxBNiCDb1wQH8APK0j9mVR/5z+QAkS2eEDGmEQ5E7dHNqCHXdf984HuwHMOvepbP5gKazR2n3YD0FgrT379B+69Y/tftaa/l740b/rmP0Cq5zuUIpP4PbZx5eDmT3qUTdn/SHowSw9lo4CYgheVMf//KllWDBMqKG5xyHQnV8fwaUDf9T922aue9trhnxCWmRqN3aDdADTWxhNf/4Fn9l3/Ntv3p+or3Ao3/wEYCASyT6DPRPIWYhdjJTt4OgHUIpzbE5uzcU3AkskcguSfiF20JtnB0wmgFuHcnpi/h3LULL8y1CLfnbB29EdbWzvfdekFT786K7bR2BXaDUBj5Zx70WWn3PCJY2+3tv+OsO4qhJVUXVtVQ2SRRVdCVnNRFrEPRDnZwdMJoBbh3J7YzI1LQuYQJP9E7KI1yQ6eTgA14s263bNsD7MalKGWug677l9OMubbDr36qf87zazRWD/tBqCxUp72xnff+rp++w+stfcP665CWEmLBVUecp8JSy26DrKaiyGJXYQlO3g6AdSIN+t2T23jCmMUaeRhOFKGOvF7OJwG9dsHos85u9/D7vC2Nc9+/2uf9juikEZjjbQbgMbKeOzPfeBOo8P9u63pvyrsXVNY7qP/dW5cA+qWEXeGtEXA3uoEUCPerNuTo1pFYL/3cHqfHWvuobhS6CmVIp72zN6ZvrP2Bz74mqe/JV0Ejcb6GK0vdWM/8eS3fPiu3ZHxJdbYtW/+YnNddtGdkOVRt93ok5xheCeAKofRzZmjWkVguc1/83uok1pcaSTutgXL95BcEhmyPiynqN+akbXdzz7wJb9zQVlpo7EO2icAjaV5ypsP3e7YsdFl1tjb76l3XBOydVjddsVa7Q9g+5m+G3iz84FISdgpdK8N27iKKSndKaadZifmuW96SK6DrBGdGf3y2efc+rvPP+usneLqaDRWRrsBaCzFM3/lw7e4+nOHL7XG3L1tXAN823ZqetDZsM3flQ1TAiFO21uIXbQm2cFzSo+iLxZUUPvuRMiUDS7rUA2B4jYRJiEm64/ABwTs4chedLsrDn7HO9953ricYaOxCtqvABoLc/6hQ9vXfP6Gd7rNPyxoZFkLoEVddCnqe3M1/zz4WrBGSbJzz5rK7YlaFRgvFbSX9dc8ShbauBhx4FQB1OIEUB0pnNsT82/+kiy/MpSQqY8UsWQSFCT/FA767rxP3HHnl4yx7Y1aYy20G4DGwlz+d6PX99ae5ZZn/FQ6Q6xuhGxBJGvjgJAVHzEi+ICA77gYMSzFQyYngCrrxoIKlu1hBi9FytRHilgyCQqSfyJ20ZpkB08ngCrBgkqHynUYKIaho1JxSJ8ZqI8UsWQSFCT/VNrtM+//kt98VTnTRmMVbK0iSWP/8fg3vPeJ1nYXTlbcctlKiNUtQv2peDwW3UCsJxUGJToBVAnuAqXDCjYu3uc0laxGWq4UsWQSJCRiF61JdvB0AqhZ7YNZt+eO073wLlX6hyMlyTo3fw8fuDPmwWc++Lzrr/zg716WJttoLE/7aKkxN09+7QdvtTPa+Qdr+luRNbVgsxdd9RcLcS1OizIsz04ANeLNuj05qlUEluuhuIWi5UgRSyZBmaRWH32SM2RyAqhFD6f7OE74HhrbbY+ec9kFT/vl1J1GYznarwAac3N0dOyN1ti1b/5iY6B7hBR3f+PSmWXPcpz4G1cETiEIktTDmmPFPsQXLsWVE85FUUBWeTRRnyIb+IBQv7QHRJjt7M74Fx/wQ7/1QK3KRmNe2g1AYy7OeeMlD+m67qlkty3Y9EWXLMoDRAYpCmBJKZyJ2yO4UxRseg8V5MbFnVbcQ2UUfw4KozwMR2qC7PMN6lNkoz54Wid491pQtB+wo/6373v+H92yTNloLEK7AWjMjLV2tN2bt5i+d7860pettnFN644j7BRTe1hQbDWlGbyne0y31vDRtRzJzj1rKrcnalVgvFTQLlF/uTEH+hhTq49hKT743/7AdV/61eGvCM1RRKNBaV8CbMzM39/87Kf1/fh7h4Daspaz+4uuztRFN1IuuiV89rWoMj/PMhAsqkNmUHyErPjk4DtXEiTKIvas9PwKAU8ngFqEc3ui9sVJUex0lKGETH2kiCWTIFEWsYvWJHvheZfb/vlHxv/5od9///SJNRrTaXeRjdmwtut3dn5iWImUZWuXNq7jtuiGifPZRxV3gYLFNi46KhWHMjMD9dnMHkaW7mGgmHsxa+9E+7PeHlYGBjuUaI3pRub8b3r5bz449qzRWIB2A9CYiSdd+N6zrbV3h8UowhdU6k/F9S66fkh14ECyg6cTQJW0jWvhd/4xstpDP8T0M4F3qdI/HClJ1nkD5ctXBw4kO3g6wc1vZMb925/1jnecPIlqNOZle96Axv5kbLe+t/ob0WK1Op6LbteZT3Rj8/93XfcxY7sv9d3Ol4Yz15vtm43M+GZj091t1PX3tH0XvlA1w6KrMFmTq+C+VIAO8/RQ3KDAzjFQZAMfEIqUxC7S1nqoM3sPa1fh/ulhZ+3d/ukfDr7cGPMKvbONhk77/wA0qjzxrZfcfuewvcIYq9wwLr/oxq2D7jH1javrzNh29i+3xqN3HjA77/2DH3nMv1UnZox51AXvveeoP3r2eDT69q7v7w/DTy8s27ggUhJ2W93r+PcQyIpVt10xIX8Ac2w9dCjdKe7LUvdIa0vnYQE/Yg6e8vUfetW3/ROcv0ajgrKgNxqJnev755tOu1aO78bVdd21trdvufHOjd/6zh9/4H/Oe97+/Icf/o/GmOG/Nz7iwku+ZnT4yItNZ59prD3QNi4PbOgT+A4l2YubP0Xtwkyom79A2fwjWIM15iR77IZfMMY+zJgOHRqNKbRPABpVHvv6S/7V2P5O6Hj8Nn/3jr+3bz3tjP4V7/yvj/4C1rY457zuPWceO3rsDZ01Tyk/Np+Q9rXamut7pHsFS+YgfVVDoHhvTgcqMoIPCHHa3kLsA1FOdvB0AqhFOLcn1t3DocKsBlqOFLFkEhQk/0TsK+zhqO+e/qELv/M3s6Y1GlXaDUBjKk9887vvsXN0a3iHXCBWN0exRCZ/uvYtsXF13ccOmv473/XyR/5NWdUqecxPXfz4ftT9D2vNGXneOB3cBQrm37gGUrtqPdz7G9f6e5h1lF6He7eHcWbDdTjqPnaHfz/pnu1PBzfmof0rgMZUjh05+Fh0wM1fMsvGlUEXZinGvbYzFx00J3/jujf/gT/98XP+6EY3tvfpuu5D0IO1b/61/uztjcuxdA8DxfVTXDlhrLyhiXW+868MDHYo0QmgRrw52Ht7t/+8w7HvSNZGo067AWhMpevs46hDsS7RZYqKy2xcW2/905c94mnvevmDr6U1rYHfe+E5n7jr1/dn2a77vSG9WHSngb8dQab2MBhX3sMJJLGQiD02QPyAnr5JON+AN+v2SLWH6CCzhiN1qMxAfYps4AOCaEb9i5MpHjI5AdS8NWDubf/fzj90qH2vqzEz7QagofLYV33gZsbY4o+PLLfoLvqOazSyr/mzH374/9d1Xa8WvCZ+9pxzjjzoASd9e9+N/mDKmpxo/1RNpbKv7WoP4/ZK91kprn7zz6ZadgsESephUaOxd/6LP7ryO8t0jYZGuwFoqGxtH3ug/Kd/y23+xdsjAl90O2t/5eKXnv3DJGDXOP+ss3Zuducvfkdn7QenDoo7RcHyPdz8jYvvYNrGBez5HiqItvAeVU5utYfjzvzI8JeDlQoaDUG7AWio7Gxv3S8Zj8/GNTKjy+98753nD7+LUAvdJd553nmHb3Ty1lO6rvsUHTJsXHqhx6eHU8mKVevehY1LXGf46TbYdUWdRUD9YD7al8GPXq9h+mg8Pqnc7rDmrt/8ot96yDJzaOwf2g1AQ2XUm/t44/HauLrrRqeMnzZ8BK8Wucv8/ksf9Rlj+u/CG5La0o+LtlTQLqltXLOgj1Gr3lPbgnj+WlTCX2c8y0CwqA6ZQfERsuKTgx9GkCBRFrFnpeefgoGnE0Atwrk9Yc1RO35OPodGQ6PdADRUrLHfyBYkuQTVF6Sah4Y15pV//AOP/L+a/XjxFz/22L8c9fbX0vibsHEVZwWaDkKxnxL7QJSTHTydAGoRzu3L9pBmpeJQYWagPlLEkklQkPwTsa+ghxEsqCDcqI/suQ87/x03La2NRkm7AWhQznnNodsY23+FMyrrmkDxETL1keJkjetM9883udMX3kiL2wBOGh17me3Mta45+AEJUsx9hlZE9svGRXuSM7WHwagkWWcPPerAYAdPJ4Aa8WbdnjsOXtbaUw5f252XDI0Gp90ANCjdyN7bGYp1Rx6GI2VtWmbRtdtbP/PO8847SovbAN71Y0/89JY1bxvmrkw/gA671UMPqU5IxD4Q5WQHTyeAGqmYhaOeJYxROMjDcKQmyQzUp8gGPiCIaau/nIlhKR4ygSBx5oqPb1FRhe2eXaRqNIB2A9Cg2G7rjuXCI9ehcKQuTpmB+hTZ8sORufKzp5228f9b062Dp1xoum7K9xOW2/yLXYYwpYcO0nhxWohdhCU7eIIgceb0oIO7LWYqxpKH4UitJ9sYqU+RDXxAmHPzT0CmKIDF4dT0oINFG2u7b3r4iy66rR7UaJh2A9DgbHXmjrmlWCa9ia9bbtWavrYV2Yo8dtz/6uXPv98xXtnmcPHLzrrKWPsnvKLlN/9lerj85j+F6YVle5Z6gXjCide9Nr2HCmJCyuzW3kPbXbd1hP9PvBqNQPsEoEHpd8ZnTgxyCQtHyrq27OY/xJ98YGvj3/1Huv7XsYHHe+MiZOdryqnLSF7cv6Zye8LbdS+0SAXtEvWD+ZVQq96TauTV1lRun7WHdqc/ZyWTbZywtBuABqXrRu4TgNUuurUFzQx/4Pzjf/iSR3yUFrWB3PRmN/5L03XZpxU4x9X2cBawhgneots9yQ6eTgDVEdXyIx2g9sXJkIkPI8dXfIRMfaSIJZMgURaxyybEWYOnE0Atwrk9Ue9hN7IPPffci7ayoEZD0G4AGgr9mXIJyo6UtUnIik8OrnHWjEz3PqWgjeSd33/WdcZ24a8Shkmrc19FD4uzAmOBEPcabyH2gSgnO3g6AVQJFlQ6uBR6lmApHKg/FYfcmYH6SBFLJkGiLGLfqB4GenP6v93xy19XnoFGY0K7AWgg1nbWdLdCg77+r2rR7az5X3TcDcYa+9exvGJvoFsFFde7cXnUgcEOnk4AVU4bd1Jk6uYPZTjkqOFIKWVV16FAjKUODMWD50w9lENTqj1MDt3O9oNpjkajfQmwwXj6b/zpadbY7K+K7d6i29v+Y6ymjabr/5m9rZVr+e71MJIVoP5GPPokZ9iDnACqHEY3Z45qFQHc2WTacKSOlRmoT5ENfEAQ01arj2EpHjKBIHHm9KCDRWOmbKzO2m8oPRqNCe0TgAZw9BMHsv+LWFhN1AUsM1AfKeL6Je3b2+bjUNCmY7evKOdezNrPgPZnYLU9xJTKwFFOdvAEQeLM6UEHTzxmKsaSh+FIrWe5f3lCb3CyseqbfwJKjAJYHE5NDzqhhzxLSFIY+67/ej1hY7/TbgAawLUnd+EGIKwm6oqz+kX35JvZL0JBG07X9dfkJcp27X4P8wKmnLo6MZhncWp60Flg49rdHhKyAvjsy3sGxWuWHjqU+Ii3615oGZSuN/doXwRsaLQbgAYwMsMNQFhQcF0JrH7zd2Pd5EvXQUEbzrgfXZu6krPaHs5LbcvwpBPMT3VN5fZErQqMlwraJep78znQx6hVv5IezvjpSK1K5mA7c/IVdzLtfwjUoLQbgAZgd+zNQRSsYtHl3OzqO2XfPdgbnGz6g0Ol6964cJ8gW0KQpm5cMSzFQyYngOpI4dyeWOwb/yJ+gjKUkKmPFLFkEhQk/0Tssgl6ic6kxMd5VexDPH41IkMUS2s5MP7ynfKIRmNCuwFoANujA6c6UVmbhEx9pIhrHAkK0ie+eO1NoKANpzu4dZpaIpkqtJb6LN5DH0mT5rt3LBk8nQCqBE9q6VDZuALFMHRUKg7pMwP1kSKWTIKC5J+IXbQm2cHTCaBGvFm3545Vr8JBHloz7uX/1bPRmNBuABrAzo7ZLheVCetedA/0O2dAQRvOTn/0VuWi61BW7nX2sDIw2KFEvzOpHfdm3R6Z+q51AB32Vw/VFmc9rH3SNlsPu50t/k96G/uedgPQALa7YwdAXPM7Lo81x+z4rmzsTWbHdndL9YWVXV3gMwP1KbZB8AFB3GioW0YMS/GQyQmgRirmzFGtIjDbxqWXktVIy5Xi7vdQJ/WQFi56OJ3Ze9ht2VtOz9XYr7QbgAYwHhnye/jdWXTHo+17QEEbzsiar/Elhh6pa3u2MVKfdW9cCRgeBIkzpwcd3G0xUzFWMWvvr9az7h4qqPVkRB/unNrH7ZHQQ91r9s1/YNzXvtPT2K+0G4AGYPut4hOAdS+6aanr+vFDoKBNpzffHN+uqqv2unuoIOpRiosytzs1PeiseONClu0hIZuy/5H3IJHs3LOmcnuZX/dCi1TQ3pnuJDLzRqPdADSQkfgEYNlFFxekXCLWBz7rHYdOxqo2k2/5mT+5qzX2DtOrm+Ej8SXwPSSdFCQ796yp3J6oVYHxUkF7WX/No46eYWr1MSzFQyYngOpI4dyeqH1xMsSraTJD9uPImj3zemrsLu0TgAYwGvfhVwC1jWs5/BolVzNrzKmfuerIY5fLvHtYOz43jqYszEJWfHJwnyBBQWI9xHpSPGRyAqiOqGJBBctuXBm8FClTHyliySQoSP6J2GUTYpHg6QRQJVhQ6eBSVLKAA/UvxH40dv9MtdEoaTcADWBst7pBFOvIDCsNrnEkKEj+idiNMX3fPQOK2lTG3Xe60vhU5C0U9ZHiqnqY0qb8MLwTQJVgQaXDCjauUINSirgNpT6L99BDk66kh77FSv6c6uaPDsWsp06l0WC0G4AGZZ2Lrl+qlEVxkEfmcY97zV/chRa2QTz8Fe96TGfM3fWpZHOk0y2WcPABYZa7shNq41rndTigfsYVW5/OAZwNJ4AaqZgzR7WKQNv8G+uh3QA0CMeSRtc3Ka5647LWbo2PjV9CCtsoRqb7Ud6fgaxHa+ihumXEsdKgMDwIEmeu+PgpqlUElt24jncPE9AOECSphzXHin2VPWw0CtoNQEOHrk1SxPWLBGWSumVEH/9D342e8+iffve99OKOL496xbu+1Rqj/K31bJakHeXuuvoeJmD4os8lzpwedLDoguU3/+mlyplhOTDz+j1ZnPsEkkP4cPu8PeRZwkCFsZi1L1RNoL7aGg1HuwFocOiiUiw/4ANCsegS+wCRrbHbfde/2Vjrvo+wSZz71otuPDbdG3hN6978FUQPSUMHosztTk0POuHE8ywhSWGUh+FITVDbuNTAmfDRtRzJzj1rKrcnalVgvFTQLqn1sNFoNwCNmSmWn9r6M5D5qO7CUHr1D33kq9794plL3CWuufrUt1hjyD/9W++i67tT9qgk2blnTeX2RK2K2eKnITLU0g2XGfiAEK/FqdXHsBQPmZwAqiOFc3ui9sXJEF9Lo5ciQ8fZ0I1GRvsEoLEi9NXKW3S7J9mFZ9f/zNmvee+DVlTk0jzylX/83H5sv4slEnXT6UoR9wkSFCT/ROwDUU528HQCqEU4tycW27hoVioOFWYG6iNFLJkEBck/EfsKehjBggpqPQwUZRaz9k7qVDKD4tNoDLQbgMYMFMsPLCogrO4dV28PdDtH//ARr/7j8L/bPX488pUXP7zv7c+xCtrGFSguheLK8U7kchlYZw8rA4MdSnQCqBFv1u2543Sv5b47Ue9ho5FoNwCNCnK5wjWOLGdB8k/EPhDlZAdPJwwLor3F1s72nz/ydYfuXil2bQyb/7gf/6E1Bv6nKvVFV85snh56oDOFPEMPFSYtroL7UgE6FLMuai7JvOl0l+uh+suZmHY3eqhWEVh3DxsNSbsBaExhuUVXfce0wKJrjb396MgNH3jET118/ykFr4Vv+amLv723/cXGmBvjAJu+cem4ytODzi5sXOSSyFjuOlS3XZnWARIIknl6OJ3lN//pPWw0kHYD0FBY96Kb8sMaC4KnN+aWo270gUe96uKX78a/Djj/0KHts1/xrgtM3/+WtZb8QZVsa6E1r7uHCRi+shs4c3rQwY8rCta9cS3bQwWRFrrnWXEPlVHCp1yyzmLWRT0l812HjcaEdgPQqIJ7AFnKMolYPaohI/pwZ/fPA8fdBWf/9J+9d53fCzjrJ//4vpe+/9oP9aZTbjbmW3Sxh4S5e8h7VO/hjJt/SKSMwt4vF7565OSCmO6SpE0PAAAgAElEQVQx3VrDR9dyJDv3rKncnqhVgfFSQbtE/Xyj0ahC/u57o5GYaePK/d3P9UVrAvesqc7+sO7Y1t+e/aqLf+GU0fZr3vXyR34yr2NRHvMzF99jp7c/3lv7VGu6jpeyikWXzzF1T7d7kp171lRuT9S+rR7i1TSZQfERsuKTg9ciCRJlEXtqsLhOwdMJoBbh3J5YtocyFUNUQMuhYqPhaDcAjTkhC0qQ/BOxD0Q52cHTCaAW4bndnmzG5gdu6Mff84if+tPf7az91Zve7br3vPO88+b6l8/Dnx/+xJVHntB1O991bGf8aDv51zG8FClTHyniPkGCguSfiH0FPYxgQQWLbVy0aioOPcwM1EeKWDIJCpJ/IvaN6mGgKLOYtXdSp5IZqA8VG41IuwFoqOyVRXf4/XxnzNNNZ59+zcdudM0jXnnx+8xW/8Ftc/Cj/UF7xfjolz978zvvXGuM2dr599NPu+awPWNre+duxpqvGY27h175iS8P/0vfU+S9BW/LXt643JTwpBbUNv9A0R95GI6OQw896sBgB0/fpLIpEW/W7bnjdK/lvzshiyqZPnqjMdBuABoUXOPIgiIkYh+IcrKDpxNAjXizbs8drTE3NcY+yYy7J+0Mf9TosDGdOclc/bHhO3zDonvMbA0BOz5q7LRJhvCDMtQ6N3+POjDYwdM3KbaipGJO4L5UgA5y1Ok9FOeZlltkAx8QipTEPhDlZAdPECTOXPHxY9V+RbR8D8l0MmSRc30c1thXtC8BNpC+lMiql0nqckdWKchUWVUr5sQuLLoRmMSAFDdz46KFix5OZ3c3rtX3MJtqOVFyreak6xAiJVh06VBeKuWV4/3VYdbw5dPGvqXdADQqkJUok+qbfwIygSA5cRZdMtEFewjEPGSMyW1JaqRO2Lh4lpCpMMrDcKQmWHbjIokziVg9wqB4RZnbnZoedFbVQxX11cYm22hUaTcAjSmQBTGTiNUjDIpXlLk9rbfcHlnVoqsOs+zGRcjGUocVJC/uX1O5PWui+1H3QotU0F7WX/NYhlr1nlQBr6WmcnuiVsVs8Q7FVciKT071w4jGvqfdADQWorbcedIqxdermsrtiVoVGC8VtEtq77hmQR9javUxLMVDJieA6kjh3J7wH0nrXsGiOmQGxUfI1EeKWDIJEmURu2xCnC54OgHUIpzbl+0hzUrFocLMQH2kWC250Wh/DKihQ1aZIPknYh+IcrKDpxNALcK5PbHsxiVTMUQFtBwpYskkKEj+idgHopzs4OkEUCVYUOngUuhZgqVwoP5UXMXGRRKLsoh9o3oYmNpD3ucUmgXT6UqxetobjUD7BKBBgG8Bxl3CLzV0FdqgjStwXBdd0iMhEftAlJMdPJ0AasSbdXvuWPUqHORhOFKSLP+ulSQWErGvtIepVSpTb6BCMUv0UJxnWo8U8bTToEbD0W4AGnV2ddGdYcFa86K77o1L/cVCnHrqAXTDCaBGKubMUa0igE2Wo4YjtZTMQH2KbOADQrEXErtoTbKDJwgSZ04POlg0ZirGkofhSK1n2e+fqIkbDUe7AWhMJ1tD1C0j+iRnWHpAkDhzxcfRNi6V1MNKI/fixpVNqX4dJqATUQCLv7zcNRYfdEIPeZYQXxjlYThSE7TNv7F+2g1AQydbnDZp0dVZ/l1rnDJdmIslHHxAqH+CO0DCgOmFebPzqSTb+I2LkE1JnZ0wKF6z9HCmE+ITKaPQcyB99cjJ+DWPRmMVtBuABidbgdTFSBgUryhzu1PTg85ublwUXv+s+OhajmTnnjWV2xO1KjBeKmiXqLeJc6CPUavek+J5poqKd3UwxyEFzzIQLKpDZlB8hEx9pIgl06BGA2g3AI2p+KWktqAkO/esqdyeqFWB8VJBu6TYuGru/jcRkAMIeaZWH8dKg8LwTgDVkcK5PbHYN/5F/ARlKCFTHyliySQoSP6J2GUT9BKdSYmP86rYh/gFNn+alYpD+sxAfaSIJZMgIjUaA+0GoKHi1w1l9YhysoOnE0B1pHBuTyy26FKUoYRMfaSIJZOgIPknYpdNiOWCpxNAlWBBpUNl4woUw9BRqbjejcsPqQ4MxYNnpYfeDFHI1M0fynDIrOFIGapt/o3dpt0ANCh+jVJXqkCyg6cTQJVUF91VbFzHe9FVehDlxXvoW6zkz6luXOggs57oPaQvAbhWp7st10PxWqEDFWcEfECovvwajXYD0FAgC8pAlJMdPJ0AasSbdXvuON1rsxdd9TfiK+uhcupy2r+aUEmXaaWR1Wt1+euQXBIZsj4sh9RPpEajpN0ANGaHrFKwzoAgceaKj2MXNi4ynQxZ5LyLbn3zT0A7QJCkHtYcK/YhvnApZu0HVtOs4Z+qZWNNGbZODOZZnJoedEIPeZaQpDDKw3CkJli2h4RsLHXYRqN9B6AxM2QlASkKYHE4NT3o7IuNi/do1T1URvEnojDKw3CkJljDxpXhh1UHDyQ796yp3J6oVYHxUkG7RL1NnAN9jFr1jUb7BKBRR6wxyoITZW53anrQmeUdV4EckY+fqC26tfjp+OhajmTnnjWV2/M5DuheaJEK2iW1Hs4CGSNI/onYxaSSHTydAGoRzu2J2vdPRLGELL8ylJCpjxSxZBIkyiL2RiOj3QA05iAtKHxpqancnvB23UusboQsUkkiZMUnZ2WLbhwrDQrDOwFURwrn9sSyG5dMxRAV0HKkiCWToCD5J2KXTYhlgacTQJVgQaWDS1HJAg7Un4pDaGagPlLEkklQkPwTsTcaBe0GoDGduI6kBQWWFieA6kjh3J6oLbohvkhDs1LxOC66qQlxulCiE0CVLN3DwNQeBqNSyjo3Lo86MNjBs9JDb4YopLr5o4PMuqE9bDQK2g1AQyeuaml5g+Wzsug6qotubfMPFIPviUV3BT30LYbOI7gvFaDDJvVQ/cXCynpY9oOwC18+jdB6ijMCPiCI+0a1h40God0ANDi7uujW3vuiwzwbV7FCEta06M7cQx2Xgqz5wIm6cZG5gwSCJPWw5lixD/GFizwMR2qaZb84SRJnErE2GlNpNwCNKaQlBRYXECTOnB509vyiqzSCyCBFASyO/dNDBdEW3qNV91AZxZ+NwigPw5GaYNnNn5CN5X8kgxOp0ZjQbgAaVWANiQJYHE5NDzph8+dZQpLCKA/DkZpg2UWXJM4kYvUIg+IVZW53anrQ2c0eUnj9s+KjazmSnXvWVG5P1KrAeKmgXbKKD+b1MWrVNxoa7QagoaAvOB5uTyq3J2rLFsZLBe2SVSy6OrXqyx7xamsqty/Tw7JHNUQFtXKGexbwASG+a5/awxiW4iGTE0B1pHBuT9S+fxLia2n0UmQozSNFLJkEibKIXdQzzubbaCTaDUCD0EcNlhYngOqIKq5gBcsuutn4vBQpUx8pYskkKEj+idhlE+KcwdMJoBbh3J5YrIc0KxWHCjMD9ZEilkyCguSfiH0FPYxgQQW1HgaKMotZeyd1KpmB+hTZwAeEWS7u/MVYTrrRiLQbgIYKLB1OAFWCK1jp4FLoWYKlcKD+VGwbV2RqD3mfJ6xz8/eoJw/s4OkEULPaB7Nuzx2ne+GFKv2Pbw/Vz7hikdNn12i0G4AGBZYOJ4Aa8WbdnjtWvQoHeRiOlCR7f+Oip0OC+1LVYZ4eivNM6ymygQ8IRUpiH4hysoOnE0CNVMyZo7p9BrDJctRwpJaSGahPkQ18QFi4h42GRrsBaADpFwABtxaRBWk2c2IfLbrQLRAkqcU1x4p9iC9c5GE4UtOs+4uTysBEBgmE/dpDhUp/Go2SdgPQmE5lUXHm9KDTNi71JmreHuqnZNM3fwUxIWV2Ueb2jewhhdc/Kz66liPZa56N/U27AWjo7MVFl654UqzeiwxkITRl4QNvuyesqochkVoLsRSz1s9zmMx0j+nWGj66liPZuWdN5fZErQqMlwraJcWvFWruw1UDPiDEUzu1+hiW4kmmRkOw3frRKLnNbU7+2c9e9eW3m6607A5fhGFqhdTsBTjAceb4FDQyW+f0pvv1YfJis5hh59jVjcvVw4tK+x63Jxb78ilFGareQxmIJZPEQfJPxC5ak+yKZ6MhaDcADeCXn33WDcaY4b/GCczDfuR3v9zb8Vq/OLn0xuUSVLYz3EkLapt/oBhGHoYjpZSN/vJpo6HQfgXQaOxjNnrjqmz+3qzsyDn41YgCdJhn86//vqjIBiWDUKQk9oEoJzt4gtBoJNoNQKPRUN5kb+7G5SqbZXPbhX95QvbhjHX3MAHtAKHRkLQbgEZjv0M3ik3YuGhhXnUmbo/gW+2C5d/5xwpoKcv2UEGkpQPTTwcajZJ2A9Bo7Gfo/rG5G5erLD3ohM2fTs+BlmLWeu4QP91jurWGj67lSHbuydVGY0K7AWg0GitjnRtXbbtL1KoImdT9MTMoPkJWfHLwwwgSJMoi9oEoJzt4OgHURgNoNwCNRiNDbhybsnGlfa+2sdW+8R/iizQ0KxWHrTUzUB8pYskkSJRF7ANRTnbwdAKojQal3QA0Go2A3Dg2buPCggpqmz+dZjlr76Tsoevc/CsDgx1KbJt/Y07aDUCj0YB3jbjXwnZT7JzELtImO3hWNq6KOYHf6StAB1lLOIICJ2QG6lNkAx8QRA/VP08Uw1I8ZAKh0ajTbgAajX3P5m5crrL0oIO7bcHymz/ZhzPW3cME7PXTC0P/RiPQbgAajX3Nhm9cc2z+sDFGNn3zVxATUmY3y+Y/VvI39j3tBqDR2LfInaH6Jnog24eULWnhXw3kpNzqKAFv173QIhW0S9QP5ldCrXpPrRt8DlxtNBLtBqDRaCjoW8iubFzVO5Lal/5C/eo0MoPiI2TqI0UsmQSJsoh9IMrJDp5OALUI5/ZGY6DdADQajY3ZuCLVjWuxzZ9uh1QcttbMQH2kiCWToCD5J2IfiHKyg6cTQJVgQY2GoP01wCU496KLDl7/r19xu/Ep41tsWXt6b7oD9tj4xp3pTxmNtk7udsyNbdcdSEMck6P1sw/uXecIoPB4rjJ6M4dzpJi1Z/ZBp9JD8gUTx7AUv1AmLIgyPfdifU5Mzz7hqLH3HP6QMu4TZGMRErEPrGDj8vuakj8Hf62PFGnkYThShlrn5u9RBwY7ePom4XzzSN08F9a+6BRz1YEXzhW0KWyZw6Ybh79quv0lM7KfN+Odz5mR/Yy5xRs+1XXdbC+UE5h2A1DhCa++9LSjW8fu3Vnz9cb0X90Ze/vOdre31t7+y/8+uo3ZOtqNjg77on/Fub9MbzvTj3sj/0z9YE9/t96tceLP2JNXbJD8EwR4YliKh0xOUOIn63Z10R1W3A5zC3BVlqOGyqDAyVQyA/WR4lByN2MP/Txp0qw1yS7rjk2S081wFiwICX+cRpQt8H3OHYpZe2+lFL9xhezUJ4ndUAv4gCDeaKq/EY9hKR4yOQHUSMWcOapVBPh1WIw0pZSsRlquFHe/hzqph7Tw+fnPM04125+/YP7ADUBs7zvGf+WlM6bvjPn0S4/aT7/kSmPsFaYffcRs9f9g+v5vza3f8I/76cag3QBkPOsdh06+5nPm/mPb36833X1sZ+4zNkfvMrLW/6rEvabCJjjsPOGVv/ffLcywWOCaWoAOxTLp/dWhMgP1KbKBDwht4wKOdw91XGXpQQdPfMHy12HsErmkyrsGLIcEZZJ66zI9zDO9sKx9JFmjvE4OGmu+2hjz1abrz/Y3CyNjPvPSL9rPvOQyMx4dMgfHf9Ld4vUfLSNPJPb9DcBjf+4DdzLXH3uE6UaP+Nzn7KOtsafZ7G1lfMGqrynx6ibIwNUvGCk/lAiCxJkrPo5deMcVy6D1rLuHCRgeBK2HNceKfYgvXIpZh3NRFBDJthbqU2QDHxCKGygFEgZEH+7s1PSgE2+4NY53DwnZlPnsy9eg4rWqHjamY+3pxprHmG78GHPMvMZe9ZKPmy37TrPV/UZ389d9ZHrw3mP/3QBY2z359e970LgzTx1b+2jz5WPDXaAx1n+IL19+4Uh5TQ6r1vTXZZEN8oBQLLrE7mrFCw2k6YV5s/OBSAkWXTpACpkxHKnDrLuHCqIepbgV91AZxZ+DwrjOHs6Lr0Wv3pPs3LOmcnuiVgXGSwXtEvW9+RzoY9Sq350eNubHfpUZm5eZsX2Z/fRLPmJG9m3mlod/vet+7rr5c20e++YG4ClvPnS7I0dGT+9ef8lzjxpzF7exFa9XumCor+llNy5CNtaUYTMUryhzu1PTwxR8PM8Skwikrx7pqS26tfjp1Kqf1DCBj1ZTuT1RqwLjpYJ2Sa2HCN7TkTGCNLX6GJbiIZMTQHWkcG5P+Neq7hUsqkNmUHyETH2kiCWTIFEWscsmxOmCpxNAlWBBjZUyXIP2XmZs3mY+c8oF9jM/9PPmlJu8oTvt/M+sdJhd5oS+AXjBxRefdMU/3eipXW+fdfRo9xDT9SP/MsIXk1TQLpl/0UX0MbQayxom8Ew1ldsTm7DoFjOGkkGI6+TUHsawFA+ZnACqI4Vz++p6KFMxRAW0HCliySQoSP6J2GUTYlng6QRQJVhQ6eBSVLKAA/Wn4hCaGaiPFLFkEhQk/0TsK+qhy4wFNVZKcf6GXxP09uXmui++wH7qB3/enNr9dHf6hV9Y6ZC7xAl5A3DuRYdufOQ/Rs+94qP2Jcb0t5MvQvHKJGQnu/a6HaA+UsTXJwkSZRG7GCvZwdMJoBbh3J6oLbqi2AjNSsW9vej6ZioTy7ux9MbF+zxhnRtXmGSaTk6Ukx08nQBqxJt1e+443QubLP3DkZJk7/eQn6LGKiDN9RfuJPmpxnQ/ZK7vnmWv+qFXmltf99au+0X4h8mbzAl1A/DMX/nwLa75zPUvuP7K0QuM6W+uNr44r+Q0q2vXOhcMXwetJqsn2cFTXpyc6qJb2/wDU3sYjFCgZ509nIxAifUs3kPfYmViObgvFaCDzDq9h+ICpeUU2cAHhCIlsQ9EOdnB0wmgRirmzLH2SduJ3kOd1EO9z41lIH3FF1Ggv7mx5kLz6VOfbT/3A8/rbvmmDy8z8m5yQtwAPOKCvzz91O0DP/aFz17/fbYzNxq+0MdZbsHY+xsX74oAW1SADjJtOFLHygzUp8gGPiCseOPScSOT4YFd2LhiGbSedfcwAcODIEk9rDlW7EN84VLM2g+spslezdSnyAY+INTvyQZIGBB9uLNT00Nj5RR9V3sNfvcyO90H7adf9Dpzqwf8t6477+jKS1sxe/t/BWxt98TXf+CZpxw88LHe2JdaY26k92f5BSNCX5dSnH/BoEmzBSPZwRMESbp+a44V+xBfuMjDcKSmWfeiqwxMZJCiABaHU9ODzp7voYJoC+/RqnuojOJPRGGUh+FITbDsdTgdP6w6eCDZuWdN5fbGMgw9LfrqDlmvFc3aLdP3LzdXXfZBe+UL77JMNbvBnr0BeMob3/eNj7/wksvGZvwrtre3nt6sE2fjAuJ1yC7I+TcuniW8CNhrIxKMaoJlF12SOJOI1SMMileUud2p6UEnbP48S0hSGOWhHjmZzHSP6dYaPrqWI9m5Z03l9kStCoyXCtoltV8rzAIZI0hTq49hKR4yOQFURwrn9sYykJ66PhN9Fs3a+5kt82H7iRd+yzJVrZs9dwNw7i+9/4wnvOF9v3a07z5srbn/yhZddp4dy25chGysKcNmJC/uX1O5PeHtuhdapIJ2ySoWXZ1a9Z5UI6+2pnL7Mj0sexRRhhKy4pOD+wQJCpJ/IvaBKCc7eDoB1CKc2xP+Rl33ChbdQaRiiFCaR4pYMgkSZRH7QJSTHTydAKoEC2osxdDvoudOYueB+JZadHHxNzNb3Z/ZT/3g9y9V4hrZUzcAj33zoUfccLX9+96a7xw+/p+cOHaqPGiRCtolq9i49DG8RbeXcwBPJ4DqiCq9kHOWXXSz8XkpUqY+UsSSSVCQ/BOxyybECYOnE0Atwrk9sVgPaVYqDhVmBuojRSyZBAXJPxH7CnoYwYIKaj0MFGUWs/ZO6lQyA/UpsoEPCLNc3PmLMbWDTF+7DgecPxbUWAo4C6HHRJ9F8ydJnkdrt43t32I/+YI3WXvu1lLlroE98SXA4f/Rf/U15vz+2Oil1oT/L//QbfxkPyOcRHYuHZlB8REy9ZEivj5JkCiL2EVpyQ6eTgBVggWVDgv1kI5KxSF9ZqA+UsSSSVCQ/BOxb1QPA0WZxay9kzqVzEB9imzgA0Jx6RD7inroMmNByNTXciimKLOY9XHtofpWIRaZqoVu+yZhTwIVc2Mhin6rTdbOS6bHH5lv1F5orrrN7ax93lM36Z8KbvwnAI9/w6X3/NzV3V+N++7ls2/++SsnwU4PF9e7cXloNVk9yQ6eTgA14s26PXesehUO8jAcKUnWufnvTg9Tq1TWvHGJ80zrKc4I+IBQpCT2gSgnO3iCIHHmio8fS90+A9hkmTYcqWNlBupTZAMfEI5DD0kNjQUY+lj00h2y/mpapscfNd8Ma55irjrpt609tDFvvDf6BuDxb7zkudbsXG6subc407geFKCDPD3hiJ0zdymwEyzPpDiCPCCseMEg+QPOopsTbdFVST2sNBJPfMFy16G4EmkpUsRySFAmqdvu9DBP9CHOk0vQmbg9gkXvsR4qVKbtWFUPGzNCToq7/og+ixav7znirX2Kuer3f8lO/sLscWYzbwCs7Z7w+kPn27F9u7HmJNGjtnGpxOuRXpAZe37RZS84/joGzyiAxTFvD3mWkKkwysNwpCbItmfqU2QDHxDEZUGsWQMmKF5R5nanpgedUDTPEpIURnkYjtQE6i1OQA2cCR9dy5Hs3LOmcntjHoYeFn10Eust8S216DJr/EDwHZ76/hnmky94+ybcBGzMRxETnvHaP7/RNW+45Nd70z0JTjE9YTmb/o5LgV1HJdGHOzs1Pejs5qJLS5Vi9ZTGeXloysIHXuwTZukhJiP4RGotxFLMmuTMqW1cy1Gr3pNq5NXWVG5P1KrAeKmgXVL0sOZO9wMSFKSp1cewFA+ZnACqI4Vze2MeSA/VvhLfUpty3sBXns38xA6WZ5urXjj8IaEfnmc2q2ajPgF4wqsv/covbp30PmuMuvmzUxQbXRjlYThSE9QWXTVwJnx0LUeyc8+ayu2JWhUYLxW0S2o9nAV9jFr1nhTPM1VUdXGYsNgXJxPZ+LwUKVMfKWLJJChI/onYB6Kc7ODpBFCLcG4XPcB7dWnXh5EoQwmZ+kgRSyZBQfJPxC5qTnbwdAKoxbwq9sYMFD0cDmlfnYHky7ToovlpekgdzXnO/mX2qu9/Khl419iYG4Bz3/z+e/QHdv66t+Z+OHvfNNZiD1qkgnbJfni30DYu/iLPoIuDcHAp9KspWAoH6k/FIXdmoD5SxJJJkCiL2AeinOzg6QRQJVhQ6VDpYaAYRh6GI6WUdfbQow4MdvCs9NCbIaoxF0P/ih6qfWe9LuKji+ZbksWLEKipM2PzS/aT33vfMsNusRE3AE9+y4fvemTHvttYc1uceG3BCE1l56ZE8Zl2jjwyEF+fJLEoi9gHopzs4OkEUCVYUOmwgkU3oJSyzkXXD6kODIWBZ6WH3gxRyNTNH8pwyKzhSBlqnT1k1URiPakwKNE3KcUUVMxiLD3LADZZ+ocjNUlmoD5FNvABQZxE9TOuGJbiIZMTQI1UzI2ZIP11J5nos2jxpCwQH0OmjW9PMWb0P+21LzhjpumtmON+A/Ctb/qru+wcueFQb+1X4NxWsXGFs8DOn7ssMgP1keK8Cwa/yHI55YfhnQBqxJt1e+443Wu5RXfv9xCvPKB9+VQlXaaVRu5CD2MFtBQp4kuHBGVSffMXLzkJSZ0zcw8bCkMHiyY7iTWe+JZadJk1fiD4ivQzxFt7prm2/43j8aXA43oDcO5bD935yPiGQ9bYr6RnFfelAnSQ7c5OCCXzZuepzAY+IIiQ+oKR4iGTE0CNVMyZo1pF4ETvoU7qod5nB574guV7GCugpUgRyyFBmaReAdPDwtwnUyXOkyvUmbg9gkUXbHoPFcS0lR6sqocNBdJ3d70RfRYtXs/zxAdfca7niLf92eYTL3iBMsG1cdxuAM55y3vOvP5I95f8Y3+/6LL2JTZ9wVCqJzJIIEicOT3o7ItFVyH2kDdz3h7yLOFEFEZ5GI7UBNn2TH2KbNSnIPNR3YVB8Yoytzs1PUzBx/MsMYlA+uqRHvUWJ9qXoVb9pIbpo/E5JJXbGzWKvg2H9EXiDCRZpkUXzU/TQ+po1vwUfTJuN77Afv759yBFro3jcgPwzF/58C22j2y9p7PmjnRm9ATmbPrmryDOP7sY8muU252aHnRCD3mWkKQwysNwpCZYw8aV4YdVBw8kO/esqdyeqFWB8VJBu6S2cc2CPkatek+K55lqKreLHuLLVdoH1DSZQfERsuIjRgQfEGI93kLsouZkB08ngFqEc3tjGkPPir6pvWb9LeKji+ZbksWLkDnjpfvJ5vDof+zm3wzY9RuA+/7C3xy4+gs3XNQb89VlSx2zbFwFsofsBOTUFt1a/HR8dC1HsnPPmsrtiVoVGC8VtEtqPZwFMkaQplYfw1I8ZHICqI4Uzu0Jv2vpXsGiOmQGxUfI1EeKWDIJEmURu2xCnC54OgFUCRZUOrgUehZRrF7LlFLElUgHkiKWTIJEWcQu6kl28HQCqBIsqFGF9NT1keizaPE8LRAfQxYYXww3ibf3N58848XVFqyIXb8BuO11173J9vbhvH7fEXYaPMGiOmQGxQd6XgFfnySxKIvYB6Kc7ODpBFCLcG5PLLboUpShhEx9pIglk6Ag+SdiF61JdvB0AqgSLKh0qGxcgWIYOioVh/SZgfpIEUsmQUHyT8QuWpPs4OkEUCPerNs9q+hhGEMZap09jHNgxHpSYVCibxKLdnizbm8whn4VPXMS6yPxLbXoMmt8PHNFqjnjobRyTv0r7JXPvwvrwKrZ1RuAx114yRj2uvsAACAASURBVPf3xnwvn0RtwQhNKnvFklFxby+6/tpTJhap9TAwtYe8zyk0C6blSBFLJkFCIvaBKCc7eDoB1Kx2bbEomPquNYxRDCMPw5FSyt7fuMqGEdbcQ3GeaT3FGQEfEIqUxB5OvSfZwRMEiTNXfBolpGHupBJ9Fi2ehHnig28MmXd89qKg459sTPfasgPrYNduAM554yUP6XrzBj6JtnHxi9bjr1V2oRSw60uADjJreYGX0Zk3LafIBj4grHjRJfkDzqKbE+1fTaikHlYaiSe+YLnrcDiRsQJaihSxHBKUSeovuKaHeaYX5s3OhyRrKBS9Gg7xpIaesr6Kk5ufhAKXuBSTJsyan6JDahBk/Z19ov308x5Jilkpu3IDcM5rDt1ma2z/pzX2IK0e14MCdJBtDkes947MQH2KbOADwoo3Lh03MhkeOOE3rgS0AwRJ6mHNsWIf4gsXeRiO1DT7YOMKPVRbsPE9VBATUmYXZW53anpoVBmaVfRS7R/reREfXTTfkixehMwZD+4g4DwHjnYXrvtPB+/KDcD2ga23W2NuWbbX0RZdfvLFWsEumIw930OF6osubx3vkVPTg87Gb1yEbMp89uWlpXoFuD2p3J7wdt0LLVJBu0R9b74SatV7at3gc6hFNUpIH91rtNSZNlD4ucMZfcv4mGqBeFHGvPH2HuZTv/PcsjOrZO03AE94/fu/u+/7x9KiN37RLS6iyTUUIFYPnHSCuKgQZ04POqvqoUpt0VW7MBM+upYj2blnTeX2RK0KjJcK2iW1Hs6CPkatek+Kh0xOANUR1RlvMnmWLJPqkBkUHyFTHyliySQoSP6J2GUTfFNYt5yJx0cVC2oAQ7eKPjqJ9VbTMj2mm8G3PLuilDnjRax2bYCTZ5jrZLje/qS133djaNOKWOsNwONfe8lXWWNfz2v1M2RtDV2AMKmgXbKKRVenVn05B15tTeX2RK0KjFd7iK4OISs+Ofg6JUFBmlp9DEvxkMkJoMq6saCC2vdPRLGEbHxeipSpjxSxZBIkyiJ20ZpkB08ngCrBgkoHl0LPIoqNUH8qDrkzA/WRIpZMgkRZxC5ak+zg6QRQJVhQAyA9dH0j+ixaPC/zxAffGDLv+OyFMMf45XVi7a3Mlce+B1q1ItZ2A+D+v8Zb3TussadhrYstGImsoay35SVDfaRY9p1eYOLaoEmzsGQHTyeA6ogqFlSwbA8zeCn7YNGt9TBQ9Ie2i4rr7aFHHRjs4OkEUCPerNtzx6pX4SAPw5GSZJ2bv0cdGOzg6QRQ89ZMMzdkp+QhvfaGXrN+Z1p00fw0PaSOZs1P0eO4E0AoB8jmq904WGO2zEusfdEpmffKWNsNwOPedOmLrO0fipXWFt3Q3KLHrOVcXO+i6+ug1WT1JDt4OgFUCb3wc2o9DEztYTAqpez9RVeZGLZxCviilFmPbw/Vz7hikala6IYTQI1UzJmjWkVguR6KGmm5UsTTToIySa0++iRnyASCxJnTQ4MyNKhopNoz1vAiPrpoviVZvAiZMx7cQcB5OobXR8W3N7c2n7z+v5aVr4K13AA85c2Hbjfqx+fTAnE9QIp+yMNwxHrm2pkZqE+RDXxAKK5PYvcDB5IdPJ0AaqRiFo56ljBG4SAPw5GaJDNQnyIb+IBQrOPELlqT7ODpBFAjFXPmqC79AbxQ5ajhSC0lM1CfIhv4gLDiHuq4kdODDhZdsHwPYxdIO8rrAMshQZmkXgHTwzzTC8vaR5I1yiYm3Ekse8a0gcLPHc7oW8aL81mOT8bKNeE+5/gwlBJv+5dZ+4KT/LirYy03AEfHwz9fMPjFhbboqsRrF68ICa5ypQOkkNdYOIILb0K2LFKfIhv4gCDqWc2iy9k/PVQgrQeiD3eet4c8y8Dxvg4JWbFq3cKgeM3Sw0kPGoShgUVvncT6rWmZHtPN4BvPS/CNsQOzxgdfETtn/DBXGA6EdENj7e3Mp65/lhtmhaz8BuDJr3vf2aY33wY10pObgw2R7chOGGUvbFzsBIfrwJm4PRJ6qHtteg8VxISU2UWZ21P7uH1TezgvfnaVOWZ27llTuT1rovtR90KLVNAuUW8T50Afo1a9J8XzTBW1ut7tV0jf6Lv+AeJbas5leJjBt8wZQ+aNL9fZOePptTFD/b15sbWmW+WVs9IbgOGLfztd92oocOM3LkJ2PtipKa8lfgHmMs+SVG5PeLvuhRapoF2yikVXp1a9p9YNPoda1Cb3ENcCMscgTe1hDJvSDWci+cVlyu2ih+X6JxDFErL8ylBCpj5SxJJJkCiL2GUTYt3g6QRQJVhQw1H0bTikvXIG0rNMiy6an6aH1NGs+Sl6HHeC4sf0Ya7gDgkDheNw2Ju7mP/47m8hjVmYld4APPmNlz7dGvsNsho/EZh3BC1SQXuZv+ZRR89Qq96T4nmmikpfBDn+wuFZBoJFdcgMio+QqY8UsWQSJMoi9qz0/JUBnk4AtQjn9sSyPZSpGKICWo4UsWQSFCT/ROwDUU528HQCqBIsqHRwKSpZwIH6U3EIzQzUR4pYMgkKkn8i9hX10GXGghquM0XffbNIbzQt0+OPmm9JNr4ImTMe3EHAeTqGF80cvmVeFxviR+b7ytktw8puAM69yB48Zsc/KYupLRhhUqw3k8ZNUHyETH2kiOeBBImyiH0gyskOnk4AVYIFlQ7++inliCi2VCVKkr286DqW7mGg6I885H1OoZk37XORDXxAKC4dYndzx+LB0wmgZrXP0kOfQs/CHaR/OFKSrPM69KgDgx08Z+rhJE8jQZqSb2iRwY/4llo8DzP4OjK/+OOMY+XxYrg546HUOeJhoeifYK/4/jNT35ZjZTcAhz916dM7a+6YyqltXIGiOdCrASoOcmagPlKEXrKgEOKfaNJdXHRX0UMxIWCdPfQc7x6uf+Pii0zO4tehL3/dPYTLAmlf4FVx7UsPDcfQkOLCchK72DQt02O6GXzL8UUps8aHOYjYybxKwMkzzBWGA2G+Xlm7ZQ6u7p8EruYGwNquG49fLNrC5l5xkK0JR6xfrmWZgfoU2cAHhOJkEfvkXMkf0NOFKvHzrBVr7qGokZa7XA/VbxXEtCk/DA+CpNLixC5sXGQ6eQGi8Hmvw3oPs6nKFk27BB2phxApwaJLBxirmHU2ICObJS1l2R4q0LFwatOKn7mH+wrSWPquf4D4llps8gy+Zc4YMvwwT3x5Tc8ZT18zM45f61U/+m77N887sIpLaiU3AI990wcfb625ZyxoFxbdNBZrgxTxXJCgTKovuskZMoEgceb0oINFY6ZiLHkYjtR61r3oKgMTGaQogMXh1PSgs+d7qCDawnu06h4qo/gTURjlYThSEyx7HU7HD6sOHkh27llTuX1/UvRiOKSvQ2cgLcq06KL5aXpIHc2an6LHcfH6SICTZ5grpGW+RHMSBJeTGY5vbW5z7FFZMQuzkhsA0/cvixXQCeRgg+SUwxHrg2PZBYMkziRinQxbJwbzLE5NDzqhhzxLSFIY5WE4UhNsQg+V4qLM7U5NDzqz9LCA9lBFvU0M8PpnxUfXciQ796yp3J6oVYHxUkG7pNbDWSBjBGlq9TEsxUMmJ4DqSOHcvv8Y+lD0Qu0f61kRnxpMWqlpQRdmzbckjA/uIOA8HcO+NodviYudJ3709DLFIix9A3DOa9/7TZ3tH+R74CfApuE53ps/IStWrV5MKB3wedZUbk+oVaQeFsiM9fw1j2WoVe9JFfBaaiq3J2pVhHg1TWZQfISs+OTg2kCCRFnEPhDlZAdPJ4BahHN7wr9Wda9g0R1EKoYIpXmkiCWTIFEWsQ9EOdnB0wmgSrCgfQrpE93QBj/iW2qx9zP4yhNanNs544X7jLVOxoeh5oin11Elvu+fZP/1eacve8EtfQMwGm39aH4SoA8RtEgF7ZI1vVsI+NHrNUj/DBfK46NKT3SRBO+RykG0YaSBlyJl6iNFLJkEBck/EbsoLdnB0wmgFuHcnlhs46JZqThUmBmojxSxZBIUJP9E7CvoYQQLKqj1MFCUWczaO6lTyQzUp8gGPiDMcnEXG4RSoktN8uf+WNA+ZOhR0Scnsd5pWqbHdDP4OrLxsx+hptJXEBZcMeSs44e5gjsIstYJrmbNt0RMcJjiyeaknSeXXvOy1A3AUy88dMfOmMe5hi+1cWWwfpSnlPpIEftKgoLkn4hdDJzs4OkEUCVYUOmwUA/pqFQc0mcG6iNFLJkEBck/EftG9TBQlFnM2jupU8kM1KfIBj4gFJcOsa+ohy4zFoRMfS2HYooyi1kf1x6qbxVikala6LZvEvYkUDHvI0iP3LVF9Fm02NgF4mPIvOOXF/qc8fS1NGP9q+jVeLz0rwGWugG41mw9w5p+BH1kFH2Rh+GI9W7NG5dHHRjs4OkEUCPerNtzx6pX4SAPw5GSZJ2bv0cdGOzg6QRQ89ZMMwtHPUsYo3CQh+FITZIZqE+RDXxAEPNafuPScSOT4YET/gu8CWgHCJLUw4rjCU8x/+EQL/ZwwbFeZZqLnfiWRGNBiBdmbRxFh9SKH9OHuYI7JOTzd24QzH0dmW8cImhdd5b97HO+suzOPCx1AzAa908famHTSaCD9A9HSpJ1b1zLL7pK4dOu65ITftFNPYJugSBx5vSgQ19UOctdh0MRsVRasxSxHBKUSfXrMAGZphfmzfuihwqiYdA9z6p6eEIzNKno39zvZLP4qT1n5ykbX5g135IQD+4g4Dwdwxoyh2/J0r3K5u/L2TJH7BPLYeZh4RuAx134vgdYY+/G2pFYftGN0IGkiOeGBGVSfdFNzpAJBIkzpwcdLBozFWPJw3Ck1rN/Ni61BYNlo3uoIGpWZhdlbndqetAJ1yHPEpLM0kMV9dUW0EeeBR9dy5Hs3LOmcvv+gMydrl2DH/EtNecyo68jyxl/XCBelDZnPExrxnjnBsGzzT8OocT35vjcAIx2+mdMv/BPhEVXIZ4LdlLy9ZbbI6tadNVhlt38CdlYU4bNUL0C3J5Ubk94u+6FFqmgXVLbuJajVr2n1g0+h1rUWnrIS5Gy4pOD6yUJCtLUHsawKd1wJpI/V7GgfcJ/Ym+GVtF+sB46Z3mpqf0ufB2ZJswzjBUJe5EImSN+mCu4g8A3dOem+ZaICWZhU+Ktfbj9+A/etMw0Kwt9AnDuRRcdtF13HivLgw2TvuFITVBbdNXAmfDRtRzJzj1rKrcnalVgvFTQLqn1cBb0MWrVe1I8ZHICqI6o0kUmx19nPEuWSXXIDIqPkKmPFLFkEhQk/0TssglxwuDpBFCLcG5PLNtDmYohrkRajhSxZBIUJP9E7ANRTnbwdAKoEixo/+J6wfo1gxZ7PYOvPIHFuZwnvtyL5qyfnvsZx9+VXtkDZvSlRy56QS50A3DkP2/9uN6YW/BBsTlSQXuJ8Ki7k3NEgoLkn4h9IMrJDp5OALUI5/bEsotull8ZSsjUR4pYMgkKkn8i9hX0MIIFFSzWQ1o1FYeznBmojxSxZBIUJP9E7BvVw0BRZjFr76ROJTNQnyIb+IBQvPyIfUU9dJmxoP3J0AzaC2cgPcm06KL5aXpIHc2an6LHcScofkwf5grukLAs0OPcIJj7OjLfOMQc8aOdhX8NsNANwHhsvn3SUkkomtVeovi0RTdQ9Ie2i4p7e+NyU6IvHrzUlOknpvYwGJUk67wOPerAYAdP36SyI5GKWTjqWQZwEZT+4UhNkhmoT5ENfEAo1kpiD2V7kh08nQBqpGLeU3Sd3Vm44JueccC/HlmvNC3T44+ab8ngF3xFyJzx4A6Ccv6Ha34O3xIXO0985ut+XCC+785Z9G8DzH0DcN9f+JsDXWf1jxyKucvDcMT646ZeNqOkyAZ5QCjOBbGL6yDZwdMJoEa8WbfnjtO9llt0934Py3NOaP9qQiVdppVGVq/V5a5D8WqmpUgRyyFBmaT+gmt6mIf45Mzcwz2Ctf0NC5f6pWtPwtihQ6yJhRYbWfrOEB9DZvCNhCAx3Bzxw0VYljprvBsGgmfb0GOJC8T7cW9qbj5+AJ6nOnPfANzm+msfaq0lXzrA5snphCM2R0dmoD5FNvABoUhJ7GLYZAdPJ4AaqZgzR3XZCpzoPdRJPdT77MATX7B8D2MFtBQpYjkkKJPUK2B6WJj7ZKrEeXKFOhO3R0LRutem91BBTEiZ3ap6uIewtju6cLm9LW4AWF8HLdPjoeZbksWLVFp8qYcgETtQ+k00ouMLefZ4l47kVLXMN/64QHwesn3kEWVXZ2HuG4CRHT0eE2/6gsGay88ZeIIgceb0oEMvsJxN76FCpT+O6MOd5+0hzxIGKozyMBypCbLtmfoU2ahPQeajuguD4hVlbndqepiCj+dZYhKB9NUjPeotTrQvQ636SQ3TR+NzSCq371Xs1ujahWvfzm8AWF8KzR0ODzP4OjK/+OMC8WK4OePpC3nG+l3sjL6lnwtbMD4OGeL7rbMXOcdz3wD0Y1sMdCJsXOwE7vONK8N3R+lRJNm5Z03l9jK/7oUWqaBdUtu4ZkEfw1t0uyfZuWdN5XbRQ3y5SvuAmiYzKD5CVnzEiOADQqzHW4hd1Jzs4OkEUItwbt/LbPfmcwvXv2VuPtMmNbRN7W80FoReCzPr/5R4MM0RP5xrcIeEfJN2bhDMfR2ZbxxigXhRXhbf9d9o//07blZ2uMZcNwBPe+O7b21G5u4pKU5AKmiX1BbdWvx0fHQtR7Jzz5rK7WWPdC+0SAXt8/VwFsgYQfJPxD4Q5WQHTyeAWoRze8K/UHWvYFEdMoPiI2TqI0UsmQSJsoh9BT2MYEEFi/WQVk3F4SxnBuqz13u4N7Gj7vMLV36suyXGDueRnWt20jUt6MKs+ZaE8cEdBGXtGV4Lc/iWuNh54jNf9+OC8WLIYnxrtkw/emhZao25bgCu6w98y/ALJZ80FMD64CgnjUybDwPPGRlclEXsorRkB08ngFqEc3tisUWXogwlZOojRSyZBAXJPxG7aE2yg6cTQJVgQaWDS1HJAg7Un4pDaGagPlLEkklQkPwTsa+ohy4zFrSGHooJAevsoed493DvMrLm04tX350hY4vz4C9AfAE6AztnmRZ/nME3EhYDkXqO+OG1AmXNGO/cIDjMU9MDcQjNT9PL9KzWoG3Zub8HsD3XhWHtWd4/FFvUzKbAxb296DrohZCzio2L93nCvlh02euV9LnofMaJ3kPZDcqaeyhe5LQeKeJLhwRlkvo5YfRJzpAJBIkzV3z2OuPR+N8Wn8POLY0Z3vMVTSK9T7CGZpowV3wjwQ/cQcBaJ+CFp/iSnE4i+ixaDFsgXoRU4vtu7huAuT4BMNZ+c3k+Ym/jT1mjWL1r3vw96sBgB08ngBrxZt2eO073wlVZ+ocjJcm6N//lF12l8El3dXPWQ7WKwHI9PDE2rkojq9fq8j2MFdBSiqsafEAoTguxx4tIAp7TC/Nm5wORJxQ3t6d8fPEJbd0R+hN7xvpW0cQ5qfhGgp9wHw7miIcLb454FzvHWDkubMH4OOSM8Z25q/2X77nVPOd65huAp73u0C37rrurm0zRC3kYjli/HJmB+hTZwAeEIiWxi2GTHTxBkDhzxcePdaJvXAloBwhaD2uOFfsQX7jIw3CkpsnOEfUpsoEPCHNeh1OIqckYk2GcidsjoWjda9N7qCAmpMxuVT3c+1z9nrd+1+LfARiN75SuJ3HxFUQj0cs9kJ2zKfFgmiN+eA2AOwhlgR437oy+jsw31rxAfIwtckaEQybbzpz0pQdnSpWZbwAOG/NgY/uunI+cXjhic3ZszqILJUYBLKHyaRd/Br1ghANckJvVQwVRJO/RqnuojOJPRGHc3R4SsgL0uovrIMD9ayq3J7xd90KLVNAuqd3kLketek+qkVdbU7n9RGJkzP9Zaj525G8AYqtYzzQt6MKs+ZYMfrhWwuLpUHLStVjxLXGxM/pOap3gwhaMF0POOf7g3m+lT+lnYOYbgGN29KCyHlleOGI1O9a9+StUG5qfZ168U9ODzqrecanUFl1e/6z46FqOZOeeNZXbE7UqMF4qaJfUejgL+hhTq49hKR4yOQFURwrn9oRfOHWvYFEdMoPiI2TqI0UsmQSJsohdNiFOFzydAGoRzu0nGtbYhW8A7MfPP9l0/e1SP8ueDcelVvQ+mmfwjYSNX6SeI344t1DWjPHODYLDPDU9EIfQ/DS9TM9qZVoIzE22X88NgBmNH5hOUNlfNjHpXfNYBp+7NkKyc8+ayu2JWhWzxTsUVyErPjl4HZOgIE2tPoaleMjkBFDldLCggmU3rgxeipSpjxSxZBIUJP9E7KI1yQ6eTgBVggWVDi6FnkUUG6H+VBxyZwbqI0UsmQSJsohdtCbZwdMJoEqwoBOWzmz//cKTO+n6rzW92eL9ZD0etOxERpeKbyTEgzsI5Y6ZpdB8S7JaJ7jQBeNj2ALxImTO+NK9s/e2n33OaeVsNWb6BODciy47pevN/XiSrIKymEB1fkUgnkOSOEj+idjFuUx28HQCqEU4tyfaoqv1MLJ0DwPFqZCH4Ug5XevcuDzqwGAHTyeAGvFm3Z47Vr0KB3kYjpQke7+HqVX7gR3bXbbwPEeH78WvSdbETIs/Dj9UfOUVXrjPGQ+vjzniXeyctU5wYQvGxyEXiBflhvjebJvrj95/1nM+0w3Alz95+ButMQfFfEtY71xbMgP1kSKcQxYUQvwTTZqFJTt4OgFUCRZUOrgUlSzgIP3DkZJknT30qAODHTwrPfRmiEKqPUSHTeqh+ouFWGSqFroxUw+xZcAJ/+XTWg91UotnaeQJQtdd85G3PfejC8+m3763jB16x/oXNGHW/BQdUit+TB/WF3AHgW/SbtwZfcsiY82zxk9qKEuZMz6OO6GI77uZvwg40/8HYPvY1oPGps/LD4SBWf1r3vw96sBgB08ngBqpmIWjniWMUTjIw3CkJskM1KfIBj4giGkvv3HpuJHJ8EDbuFRSDyuNxBNfgItkceV4f3WY7EqhPkU28AFhzuswAZmiABaHU9PDfuKDpuv8wr0Q9r4pjPU204S54hsJfuAOgrKQ4DXtmTEeL9LZ490QbBxNz3zjjwvEQwgIxnQ7D5nMpMZMnwDsdMb9qUE5VDgi43vYhHOKbJAHhDkXjBQPmUCQOHN60MGiMVMxljwMR2o9+2DR3fM9VFDPaUb04c7pEuT2SOih7oULpfQNR2qCZa9DQjbWlGFZsyQxmGdJKrefyHTW/vmi83NfADT9/fxCyHoXtOFJnIMpvoJwTQp3kSyD5ByueZBnjHduEBwmoumBOITmp+lles1P0eO4UEjRp8Fx9F/s3zzvQG7RmOkGoDP2frKscMRqdSy7YJDEmVR/15qATFEAS6h8vs2fZwlJCqM8DEdqgnX3UEHUoxQXZW53anrQ2c2Ni8LrnxUfXcuR7NyzpnJ7olYFxksF7RL11TYH+hi16j0pnmeqqHSxP/Gx/Ul/tvAsb/z5bzKm/FPAA0OvQ79F29k5yHwjQQN3EModM0uh+ZaQ8V3ogvExbIF4ETJnPLiDIOdk+1PNGdfdq+wGo3oDcO4Ff3kHa+1XZN33P7IaHMtuXIRsrCnDZiheUeb2pHJ7wtt1L7RIBe2SVSy6OrXqPbVu8DnUoo5bD3m5AlxXSFCQpvYwhk3phjOR/LmKBRX4d0E8S5ZJdcgMio+QqY8UsWQSFCT/ROyyCXHO4OkEUCVY0L7Ajrp/+vtfePb/XXiyx7bI75GzXscfhx/YOZiiCdOc8XA+54h3sVPqEhR+7nDB+JhqgXhRxhzx/fi/zHLuqzcA149G35QSseblrGLj0sfwFt3uSXbuWVHhAitpiy5/EWXq2nuYwU+nlKmPFLFkEhQk/0TsA1FOdvB0AqgSLKh0cCkqWcCB+lNxCM0M1EeKWDIJCpJ/IvYV9dBlxoL2EfY3lppst/NIGZ+duHja2PkbNEUHk+LH9OFcgjsIYexCd+PO6FsWGWueNT67gGNspgmEQ4b265ESJX6Ya9+t5gagG3Xf6IfNGsB6UZ526iNFPCckKEj+idjFwMkOnk4AVYIFlQ4uhZ5FFBuh/lTc24uuY+keBor+yEPe5xSaedM+F9nAB4TipBO7mzsWD55OADWrfZYe+hR6Fu4g/cORkmSdm79HHRjs4DlTDyd59ifdzkm/s+jM7Reed7oxnfvel9gQRU9ZgzWNLZqab8kQO4dviYtdMN6FzRsfxopDLhAP5YKgz2nSq5HJ3rjrVD8B6G1xJ8FqceVkBuojRTynJChI/onYRR+SHTydAGrEm3V77lj1KhzkYThSkqyzhx51YLCDpxNAzVujvFAL2FogQId5eihqpOUW2cAHhCIlsYvWJDt4OgHUSMWcOdY+aTvRe6iTeqj3+USn6+xlS338f+RGjzLWHIjX6tDK2E5xkF+UpK3aO1nFt2R4cYLrjOM7NwgOE9H0QBxC89P0Mr3mp+hxXCgkA5w82Ku7248/66Z5JGPqDYC1dtQZcx9xIRD2/sZFJlXSFl0V174N6WEsg9YjRVwfSFAmqdvu9DAP8clx5vSgg0UX4KJZzLpSTzZLWnORDXxAKG6gFEgYEH24s1PTw77FjraW+/jfjB/H13zW90Er9aCVMgrljpnAC4uMo8Sr1wAUhONHF823JJu/CJkzHtxB0OfPejX8YaDRseyfcXKm3gA87nXvu4c1vf/fCrJ6HJmB+kgRayVBIiWxi2GTHTxBkDhzetDBojFTMZY8DEdqPetedJWBiQxSFMDicGp60NnzPVQQbeE9WnUPlVH8iSiM8jAcqQmWvQ6n44dVBw8kO/esqdy+X+hMd2zrqL1o0fmGf/73BBcfWzn8wPo6RROmOeNhrZgj3sVOqUtQ+LnDBeNjqgXiRRlzxsNUs3hrq78GmP4/Atoy9zVjpZ/hChHzBmR1cF6xeiHB3CaohozphXmz86kkC0XrXifCOy5ldrvZftQbqgAAIABJREFUwwJZkVJfdkFM95hureGjazmSnXvWVG7P5zige6FFKmiXqJ9vzAEZI0j+idjFpJIdPJ0AahHO7fuKzv7W5b/4PZ9beM4nXXOO6c3pKZ71lGnh/IAJBPU8kg1C8SU51euD+JZadJnBNxJ8Rcic8eAOgjL/QZ7B1/bVLwJOvQGwO/03pAmX7Id3C77JrNUetEgF7ZJVLLo6terLOfBqayq3J2pVhHg1TWZQfISs+OTga4cEibKIfSDKyQ6eTgC1COf2hL/J1L2CRXcQqRgilOaRIpZMgkRZxD4Q5WQHTyeAKsGC9iGd7U/qXrPUxLudp7JzkmDnQZzo2XwF+CbKM2UsMQzzG2B6oU29tirx0cz8KuNDCAh6/cyVijZ8gV9n6q8A7GhU/L+gJ6xi4yKzCJJ/InbRk2QHTyeAWoRze2LZRTfLrwwlZOojRSyZBAXJPxH7HughrZqKw1nODNRHipvSwwgWVFC7DgPF3ItZeyfan/X2sDIw2KFEJ4Aa8Wbdvq8Y2T/43xc+7x8XnbP94otubvou/P6/7OlwXGrh3IAJhACJH84dyDPGOzcIDnVqelaKc9H8NL1Mr/kpuqt5UgQkK4uTzNsra7/S/suTb1VkEeg3ANZ2o97SGwCoH5CTx3NEmhMk/0TsA1FOdvB0AqgSLKh0cCkqWcCB+lNxCM0M1EeKWDIJCpJ/IvY910MxIWCdPfSsr4cuM55UpHodokNx5UydiriI6XSLbOADQpGS2N3cJ1NNdvB0AqiRinnf0Rnz2qUmfXj8DGP6UzAHOweDhtceP1/BVzDEanlLSLx68rWcmR5/1HxLsvFFyJzx4A6C3r9FezU6+PXlbHLUG4AnXfC+M62xNyuD26IbTlJx7uRhOGLn153izEB9imzgA0LxuiP2ULYn2cHTCaBGKmbhqGcJYxQO8jAcqUkyA/UpsoEPCCveuHTcyGR4YBf+5Uksg9az7h4mYHgQJKmHFcd9grXde/7urd/zoaWm24+/G+NZf4MmTMPBFF+BduMwY7x7Mc/oW/q5sAXj45ALxIty54yHqc4R3/f0TfwE9TsAx0aje5nwFwAnrHvjUn+xIBrvoT1BNatduWZKdmHRlUWVyJlt5sYF3Zdg0aUDnKpi1t5fHSa7UqjPunuYgOGjABaHU9ODzp7voYJoC+/Rynq4b+js9sicv8x07Wde9M3m2NF7phzKuRl0MIGgL7b0up4xXn3dzBAfXWbwjQRfETJnPLiDsN5eqb/G96g3AHa7/wb3LwDKZqj1yonheSYTz6T65k8r8ZDUOc6cHnSw6AK8+ItZV+rZnI0LiBPhzZy3hzzLwKb3UEFMSJndpvVQRX21BZT5zYiPruVIdu5ZU7l9XzKyv3n5W7/n0qXmvnP0xSme9TZoYAJB2dDwde+ZMV5dm2eIdy7MT9Mz3/jjAvEQAoJS1wp7ZfvFfgVgxUcH6964FES/WPPy/nG7U9ODTrjAeJaQpDDKw3CkJli2h4RsrCnDZiQv7l9TuT3h7boXWqSCdklt41qOWvWeVCOvtqZy+1p6qAwlZMUnB9deEhQk/0TsA1FOdvB0AqhFOLfvT7pruxsde9kyc7ef/YG7GdM93ved9TZsSMI0HCi+JcP5AtcZ450bBIexNT0Qh9D8NL1Mr/kpehwXCskAJ8+qe9WZu1t7Lvleh0f9DsDImq8NFdFpJlgTZsdH13IkO/esqdxezkH3QotU0C6p9XAW9DG8Rbd7kh08nQCqI6r0RZjjX+Q8S5ZJdcgMio+QqY8UsWQSFCT/ROyyCXHC4OkEUItwbk8s20OZiiGuRFqOFLFkEhQk/0TsA1FOdvB0AqgSLGh/s9X95N+95gWfXKoJR3deZmxP9oLhXGibd0nwFQyx/4+9NwG3Lauqg9c6975XHSAICGKCUv4gjZiYkEZDTNQYDMbwYaWeYBfxjxSCSVSUVrRiQ4omQUWDkt/EBBOVUlE0VFSagqoCDZagkdghbVFQDVBUFVX13rv37P/ba6+z9ppzjLn3Wvvcc5t39/i+d+/ZY44x11xzrd3cc5vH1tPiFG/uhwJ/klhajax+Yan0gxwIY4+v26us/hxNs+U+vMy+tSNBFt25S1/72pON8w9rF3+0Fwq43qQBkeo+kbjoUR8HZSCAVXYe77HuRTfLbwwlaKqRJJZMTJHqPpH4HvQwAQtSmNZDWjUl1U6kmnO9hxFq7mrWnYj2Z7M9HBkY4lBiIIBN6MJ2/DjC+8WfbJ1pfnyduTcf/a7Pc85/E+Zge6nl2BoYHNAVfnpDK/SHcQu1AVmh6eUEv5hvpV94K+un50U2/tKb3wagPwNw+/se8vCtxeltmA9AVo11wKxSr7sIiYv16OOgDASwEliQFoQUI1lAQPWUbK1ZgGokiSUTU6S6TyS+Rz0MmbEgxNo9FBMCbLKHHTbdQ5gSYrSHKJBph3vIL3I5VDaoGQiVksRbJLqPgzIQwCaMhI8nvFtuN9vf8c5Xf9vZtRqw3PkB55YnZQ7ca3x9jDXDzVPuNxebjaW4dFigDch0wlLqjzlADoQx/5Yu1RJdoAivucY9upsvgj4AnNi+51G7y0zMxlAkzoOYBEXiYj59HJTmxDt0YXAh2D4XQIHMGo+MoY7HjWvs2xvr9dA+SVdQKwJrAYRKSeItEt3HQQkE7J6YZ0w4Em/9SiIP45GZJlsjqlHZQANEZQ97QCYgJvbwmGGrWbz4na/6treuM+3mw5c93Pnmm/s1sPYRWySDYzQliRA3XgTRai5ImM7iM216OcEPFiCMuvCc7lDor+qVf9Sqkxr0AWDXLx6VfgWQ1aNIrIWYRL9JXPSpj4MyEMAmjIQz4XzjstD30O5zAC68Am5ymTEemcMchRsXL762hzxLaDJs98PVQwOiSGN2iebx4h4eP/xvt9v80NrT3t5+sVs28R6A+ww2XgJZL3otILoAxfcLrVDgH9xDI34RZlrGxfohBATOc4X97lXTmA8A9GcA/NI9cjVPhJwozoU0IqPM2+6wrQPR5Ajh/oMNLFoBTwY165F6Nn3jMjDSn4Ck4eLaHvIscSAV3N8eEmQFmHWLgKFKNI/3LI/36OK2CiOSwbiEebbtCcaq7zDWDT6HMdexhfe3nX9e8/XXv/qytd76b25+5uNd01zSXRDwegc36YB2VfR6tV7NrbQaxB+sE/3JNsEvLJV+kANhz2mtXrXjVIyVtP6vNh/73ov0arSgDwBN0zySjqNInAspLqNItIMIGKpE83hg+w82YtE8S0yigvIwHpkJ6m7+teiGNQeP6ONcOcbyeI+xKtAvGYxL7MWNyx5jrPoOvZ9nGmHx5IA5til4lhYxYgqygKERNNVIEksmJlEWiWel57MDZSCAVXYeP85YLJpn/O6PfccH1ulB01y65c42Pxn+z3hYhrbnrO8GB3SFn97QCv1h3EKtnmSqeYJfzLfSL7yV9dNzoXD8ZbNw97z/EWzP4ANAuyl88wUohuqr0LnHcvRxrhxjebzHWBXolwzGJepvXLiuZIxIDVafbL0fMgUC2IDezuOih/ONS627woZ6SEelZLueWYBqJIklE1Okuk8kLjdSagooAwGsBBY0o1m89A9+8hm/tHYjPvagy5xzfy0sgVgGtiYg6tCuD8iB4DfpkNLSaqjx06Hl13zmF6m0zqh1xasyyOT5XAN9CHq1y78NAA8AT3zZ1Q9yS0ffLsiB60caGqnuE4mveiZfoDJYuT+xWJBCtwg8S5bfFvQwNIKmGkliycQUqe4TiYvW9HFQBgJYCSxIC0KKkSwgoHpKttYsQDWSxJKJKVLdJxLfox6GzFgQYu0eigkBNtnDDoegh8cMjVv84rtf9e3PX3fazQee/tluufxRXEK2pgZH97ih1QjeQq3WdSfYNH8astavT9ZK/2HplY/f1leAHwJcnPAP2z2jZXLBcE5kQSPVfSLxFmJROoAyEMBKYEFasAc3LjEhwLG46OpzAYACuXLneg+hIYj5h09NlJzqxxRXf3r7r3yr8z7/3axpOHnip9xyed/ebG1awtPrLNEFKN5c3AJ/kjAt47LxRZhpGRf9EAIC57lCca9IzkARnnJKm2zav+h+rk8B3gHwp88+TGpkIpyXHkjXTuJC08dBGQhgE7qwHc+Fw6r1blyiRjqQJLFkYsoo8xsLSdOLIVMggFU97I9NzDcuE32LRxqJC6+w/j4kWyKDrA/LIfVn1Pg+7AGZhgvrwn0jZ/T44/s+6Lwnv/eVTzy9blOaG77jUrdcPnlgleK1Qq9euy81t9JqtDqlNdfVypnx6aWl1cjGF5ZKP8iBwHmuelLVK4XgrRgr1yYb8TdL8m198kOAO9v+8/qSZCKcFxsod5O46FsfByUQEiE8ounGMi9bEcfhosvR93CkkbjwCoe9hwZGph2QNFxc20OeJQ6kgvIwHpkJsn1ONSobaIDg1xYNYSM59rKHxw3ev785v/nqqy9/2m3rTr255TkPcd79xy5Pu05srQwO6Ao/vaEV+sO4hVq50dR5CxMYnr+QV44PQ1X48aQsm38ago0VuaZRX9h3gHcAFruLi6GZbRl0YgqZxrztQh6yFZOGiFf6EOLxBCwaC1Yp5GE8Moc5Bhfd2EOzBW3kQHtIkNXTvbSr79DHuXKM5fEeY1WgXzIYlzDPtj3BWPX708PjhfbP/J63ddGX/eErvuMj6868aZqFO3PHf3WNewCcrAHtCpM91p77QAPB/SGlpdVQ46dDy6/5zC9SaZ1R64pXZZDJ87kG+gB7lealIeZ/7+ZTl36mVsADQLNonxRk43AdSWMzikRJjYYq0Twe2P6Djb26cZkYu+jy+kvRucdy9HGuHGN5vMdYFeiXDMYlxnpYAnuMweqTrfdDpkAAG9DbebxHd2GwVTFiCrKAoRE01UgSSyYmURaJyyak6YIyEMAqO48fV3jfvHOx03zZ773ym27Ykx587Duf7Rr3j/g6sN7XvuWvENbTyAtQurRfJviTpXZ8ffOu9NP9W1j/fvbqFv3tffItALdssm8B1KObNpt8jj7OlWMsj/cYq6LMH2BIBW1oxIxBA0Qaa7D6ZOv9kCkQwMrpYEEK6964MvBSJE01ksSSiSlS3ScSF63p46AMBLASWJAWhBR2FlFsAtVTss2dBahGklgyMYmySFy0po+DMhDASmBBxxvev+Wuex7ylde/+rJb96IRzU3/+kvd7u6P8HUga9OuB9AtASRyQWbpLD4iDWHpLD6WkcKWzuDTuHkhGiDqUNwr4g+UUZNVa15isFb6/Rbc2+U7AOEPQzR/JZ8+1kgGjVT3icRFrX0clOaksqliQQrzRZdvjAxr9zBCLaA8FJsCsMkbVwfYXYqetg9bdNvUyJ+DXUs1jnUPdTOON3zjfuHht9zvq//sPz/pjr3oRPP+Zz7YnT17pXMO/7MfvfHCZmULYnFs41pajVaXadPLCX5hqfSDHAjjWlrbK4XQ54qxcm2wTfT7Hfg5APFrgE/991ff/7Zss+B+IEVHqvtE4qKHfRyUaWIDwIJ0Z7t9rGkNJZCH8chIMt+4WuCd7TD10PzGQiqyrxaWORDAJoyEM6FZRcR6PcSLgoZaEZgSEColibdIdB8HJRASIdx/OPbw3u0sG/f97/7py176rvYxYA/QNJeedDc2v+Ka5iGk+wq4F+1zgJSHm6vcP7gPyFg5l8JMZ9UQtcJS6Qc5EBGKD4dMyzilTRKmZVzmX4V3PTwAiHcAbm/OPDiVDjmBUHMhcTGHPg7KQACbMBIWQjtLHEMJ5GE8MpNkAapR2UADxAFcdEcw37hMhNXrP9jAhVfAC67aOZ2ebJdVIIWoRmUDDRCV+7AHZBourAsHDTiPJxp/Q7N98h/84aue8RK3Zzd/591HHvifXNN8qVwp0vN2cwANRFwvxbeHuLmMtQ1iUk7hWLlfpCr1x7pUGWTyfK6BXrNXZq0apFer+gEj88/DjRv+FsDO9snwAIBrSgbJKPNrnaTpxZAJCIkQ7j/YwKIxkxpLHsYjs55sllSjsoEGCHU+kHiauwQoEwGRPkUI8XgCFo0jqxTyMB6Zw2y6hwbMejIkDRcHtv9gI/aQZ4lJVFAexiMzwbo9JMjGGhg2g6mK4PGe5fHjhoVzb945b/G4d//Et719T+d+w7Mud275LX1O1u/9fhtbb5+2JqMuQKZLL2v9+uZd6afXxsL6g7dQq3XBNtGve7VoPle3VnwL4MQZ96AdqBOIQ3vjIpVG6MXXbY5OM8G6F12SOKNItIMIGKpE83hg+w829vPGRcHrL0XnHsvRx7lyjOXxHmNVoF8yGJcwH7UrYI8xVn2H3g+ZAgFsQGLphfR4wXt3+2LpX3T9q57+k3vy1/0yNDc881ud333R0FrwNeDrButprnGBv98EZMEZl+0cEWZaxkU/hIDAea5A92uhP8gKtata07jwIgPL2SLyIpwdND69w7+C+BZA0yw/Ox+GIs9HBXrOhmpwgnnbDH9CF7dVGJEMxiX24qJrY6z6Dn2NvNoxlsd7jFWBfslgfLCHY/J2/UEDhNrvJB4SrSrp46AMBLDKzuM9uodMWxUjpiALGBpBU40ksWRiEmWR+B70MAELOo74ze3zd7/w+p++7Cf2/Ob/kcue5Hzzn1z7LQC6lrVf9av9UP2VbOZPL9keszixOSMsrUarwy/8zL4AanulsHavYv0Aa/4FvfLNZzbNvzovTyn/L4CFe7ATf22aDdahi9jxXNWCK0fY0QvGfNEd7ezGe5iBL6ekqUaSWDIxRar7ROJi0/VxUAYCWAksSAv4tUZDDUNHpWSbPgtQjSSxZGKKVPeJxEVr+jgoAwFsQhe248cC3r/f7S6+890/8+1v2MR8m5u+4x+5s80vOtds87UovRkaa0nXz1pTxQ/uD5Yj49JLpjNqXWmFpdIPciAiFB8OmZZxSpskTMu4zC/CTBvW37sbP/RZzrkPr6oX7wDs7i7bYARJEqnuE4ln9eRNAGUggJWgGy7H2EVXFJtAR6Xk0b7oBqzdwwjVH3nI+9xbMzXts8oGGiDU1iHxMHcsHpSBADarvaSHXQo7CxdIfTwykmzy5t/BHBjioCzq4SrP8YP37uPNwr1oa8d94cZu/h97xle4Hf9rzjXn0/3cnlSwBkDEc0Hx7SGelMZ5E8T9IqfDwrFyv0hV6o91qTLI5PlcA71mr8xaNUivVvUDRuYvwpY24p4t8W0A8Q6A94v7NuEtAJIkUt0nEm+R6D4OykAAm9CF7XguHFUpgTyMR0aSY3HRZXtdAAU1PYSLAUBlg7UAQqUk8RaJ7uOgDASwCSPhTDj2LaJzvYc2+h7afT5X4Z2/1W8tf8qfWbziXa++7FObmmfz4e/8J25n91ec270Ax8C914GtB+HwhCz3D55AZKycS2Gma8H4yIkQ0w34qZyRhDsqvVruiG/zy28BNMv70N9EKWlq0vRiaFMggE0YCWfC+aJroe+h3eeAfegh2RL5Ioop4PlD6s8ocwcM2+LcxdCAmh4OAy/AatYj9WSzpDWrbKABgl9nNYgNkDRcHNj+w/HBwt/kvH/57uee/6o/+r5v+fQmJ958+Jlf5/zZX8A/9NOd3wi+VnBNNtetwD+4L0b8Isy0jIsbDUJA4DxXwBPH0JKcgSI85ZQ22Sb4haXC7xf2OwDOLe/n2p8fyZHlHr/o9mIoCQgyTNCMCUfirV9J5GE8MtNs+qJrDExooBIBkYDA9h9sHPkeGhBt4T3a6x4ao3QLoYLyMB6ZCer2YS26Yc3BI/o4V46xPH4uwrvF9d75V3/+yc94zZWvOHX3pufY3Pisf+ma3Ve5Rn0R1/actp2RhDOvDUSruSQp0AZkOmGp9IMcCOO+ctC9YnUO1LrCOr3yjf0A0Cz8vUVya31yWHOgGi4ObP/BRtycPEtMooLyMB6ZCeouuua5QucOp0sPUY9RXKJ5PLD9hwF0fp4lJRGQWtvZwXxMTPF1MFb9qobh0fgcepbHe4xVgf697SEC9yLWsKIGq0+2gW6EEMmfs1jQuYg/Xmw1v+jPLH7x+lc//S/bCf7BhmfZtD/IdcMzrnDLnefgUOyGxteJrh9ds0K/uScK/GTPSbAc5+Jc2TxbRF6EmZZx0b8KNbsPzHsrvwXg3GfgploNbyVfoY9z5RjL4z26uK3CiGQwLjF24yqBPcZY9R16P880xvK46CE7bxKi30yTBQyNoA1NDrzmEJMoi8RbJLqPgzIQwCo7j/foGmirYsQWiFQMwkrzSBJLJiZRFom3SHQfB2UggJXAgs4JNM7fs1g013i39YZt17zhf//U0/98PyfWNN97kfvIp/+L88tLYVzac7ZOhDPXlGg1lyQF2oBMJyyVfpADYe/T49yrXS/u8f0DQPsfAb3kjffRTxtdW1lz179gpKx0QXKse9G1Nl2P0b2oeoAlkx5F6ij3kMxKtyJBPEIVGA9LD/sJ0KLlLhl8gIpQaeSh2BSATfawgzHHRPdxUAYC2IQubMePFLxberd437Jxf7jdNL/vt5fX3OYf+vvvfeUTTx/EPJqbnv757iN3vM4591g5vrUh2ToQzlwvotXc4H4Y8acw01n7LGqFpdIPciAiCH8u9Grh75vvn/QAcOl/vPqiO8LvkPbneNcC0gixPn0clIEAVsJs6gpjN/8INQwdlZJthVmAaiSJJRNTpLpPJC5a08dBGQhgJbAgLQgpRrKAQOrjkZFkkz3sYA4McVCyHnp/xjsXfkhr2bhPdj1UP/+i0XjMLbDbHWVpzB7SocJfcOnQGqmmJ5tdLTFNAe0aeZY0FRnrdy57ldUzBmj84USz8GcWS/9pt2iaZeNu9b75+GLX3brcXtzgd9z7F1vN+89+3gV/tukf4itF89Gnf407u3iNc839hIee99YiKJ6dEwEF/iRhWsZleUWYaRkX/RACwq6/uFckZ6AITzmlTbYJfmGp9IM8Eo3xDsAnPnXheScWn1JzgiwdyKRAGQhgE7qwHc+Fwyq8s0l9PDKSHLkbV4aRFu9bD8U60z6rFQENEColibdIdB9Pr7y7oWn8e7xfvs8vt9+38Mv3NX7noyd3L7jlgp173XzVK594e97LGTMOG5rff/oJ96DtF7rl8kXONdnfbMFrXgd2nhAOT8ByPznnepCxck6ER7QJUQdyIIz7zUH3itU5UOsKG+vVkn8L4Lztu04s+y8A7O+Ip8L6CmGKgQBWzs0OZ8Kx78vj4sq08cgcKwtQjcoGGiDWv3HRDYAII/cfbGDRCuv3MHWBtEPvAyyHmDLK3AGZZuH8rY1313m/vG53uXjXRZ+58643veBffFzPdMaMo4Lmhmc9wvmdX3DN7t+Qpwier/oc68HOLcIxXYDShsOJ/mRj/oG8IAcigvCHcq6kznz+Isy0jIv9gxAQ7frxB4Azy52Tq+8HlFx0zbazMTOEcP/BBl08lUmNJQ/jkVlPNkuqUdlAA0TlzX8AKTUZQ7SPxxNi0bYKLyZq1l0qM8Gme8jhnbun8c3VbuF+c3vn5Fuu+feX/sle/VeqM2YcJJqmWbiPPvNfumbnP7jGXSRqwYtQ+Q05nMPsRC7gkqRAG5DphKXSD3IgjDm1dKmW6AJF+BIu2Sb4haXSD3Igujl542cA7rVYnLhnd5fa9JryRuQ0Gzy/7/N4wqG/cRFkUzJnZyww14+xPJ41EZdNAP2Swbj2jynWga7eN/7OpV/+2qLZ/uU7H3TmjYfl+7MzZuwVmg894wvdR77jZ51r/rbMiQ/qHdgZSDh6M2xBtJoLEqaz+EybXk7wC0ulH+RA2P0793t1n/ZXSX38cab0Q4B3LRYn/G77PQCrWdg0rhxjebxHF7dVGJEMxiXM9zcqYI8xVn2H3g+ZAgFsQGLNTbpCd8HgWbJMpiALGBpBU40ksWRiilT3KfzA2q7zzVW+aX7+noff+RvXX3bZXWmKM2acIwi/3nfDXd/n/O7z4a/64YljXh/guhFOJHKeUU5pk22CX1gq/SAHwphTS5dqiS5QhC/hkq3Un40lLJV+kAOBc2rfYXKXnu/cleGPVaUHgMXp3ZPNgiUQd55QOkkb+8T9iaULlOPcuHFR9E1IYehWIICV2FAP6aiUbCvMAlQjSSyZmCIVPnl3U7N0P3fevfxPX335N3yA9nPGjCOO8Hb/R571Le6jd/47/RfawnWAnCacJEI86SKIVnNJUqANyHTCUukHORD2/JmUkkS4dq9ITt2XBNarCX6wAGH36n2fPOmckw8Ay8XuCfpbRylvPwAMFQhgJcwmrzB2849Qw9BRKbnZG1cHc2CIg3Kkh10YXAjrupFjsIcxaAy1yZu/c/6PG9+8/Oxtd/yP61992Vmc3IwZ5wbCf9974zNf6tzyi+V/wd6CncTGCcl4ep0o9JvXoRG/CI9oBY7gXOMSdWBzZVxmGu3VgB9CQNh1rfbFBQ88sVKldwD81nbjdndWvJpbPwgMFwhgE7qwHc+FwyrcKFIfj4wkm71xqYeLHKmevjAoMRDAqh6KrBxH9LcmvHPvWCy2f/Sal1z6hvmH+Wacy2hufOZXu2b5A+7s8kvoPOm1kp38hDOvI0SruSQp0AZkOmGp9IMcCPvaOPeKbCGDy+k7ds5bGdMDwImts7tnd9lfMOmdkDoQwCaMhDPh2Pfl17v525t1BTkH3FdkjhllVp80vRgyASHR93BMOBJv/UoiD+ORmWbvf+K/adz/da65/O0v+4Zfnm/8M85VhLf6b3rW17id5fe75fJvw4kYgOdn4gHkJDXPf6LVXJAwncVn2vRygl9YKv0gB8Lu33Hv1fIsvgOw1SzPnnVb5p6D9gIhEcL9BxvmYqyAJ4YcOh6Z9ez9jSsfa2DYcSQzz1LbQ54lLoQKysN4ZCZYt4cS3vkbvV8+/9qXfMPPO++Xzn3jeK9mzDhiaO78Nw9ynzz9NHfDs57u/PJh5k2WXgPZyUi4/iKhQLRhyIURAAAgAElEQVQBGZ9eMi3jMr8IMy3joh9CQNgPJPvWK1VTOqyodaU9bL066dufAQhI7wA0u777M0CjxeZrw5qR3/d5PCEupq3a35t/Lbq67eo79HGuHGN5PGtieGmrMCIZjEuY729UII1x1i2aV93n0/d9UfhLfC+Zb/wzzi00zVu23Q2/+I/dYutb3G2nn+y8O+nCN/nZeYbXtw6GVoPeDFsU+JOkQKtzCkulH+RA2PUzKSWJcO1ekZy6LwmZNr2c4AcLENN6dfoMPgDsLu911rn8t6z6wdiwvPE5y126SbYKI5LBuET9jQv3CBkjUt0nEhdr0sdBGQhglZ3He3QXEFsVI6YgCxgaQVONJLHkLu6dv+bkyZ1vf8uPfPOfyXWaMeNoo2ku3XIffsjfc/6eU+7G155y3j/QNe1NfwV24rCbP9O1IDyeaFyn/SkVyUm5LK+wML9VwwHNNZXDamWcqn+jvRoYH0JA2Gtdsi8u3MJvATQnzuy6M6EDw7fxUAsrKGNpETnWvXFl4KVImmokiSUTU6S6TyQuWtPHQRkIYCWwIC0IKUaygIDqKdlaswDVSBJLbtpv7d+18O6Hrv13T31Z93b/jBlHH+Ht/U+d/Qrnm3/qPuK+2i1Of2b4r5nESUBPmiP0++rW+c/mNcBBCAi8UK2AFxVDS3IGivAlXLJN8AtLpR/kQNhzYlJGnl6mp9P0LYCL7rlg5/bFHSI55AsEsBJ0wXLsxY0r1mCUsic3Lg0xljlwRB8H5UgPuzC4EKM3fxTIrPHIGGoverhwi+u2L2i+6erLn/oBd8X8dv+Mo4nwtv4nf+mR7h73xW7pH+/84svcbWceGWZjnqvsxMJzsoOh1agdK8fgdWdk/BRmutAEXWnPiRDTDfhBDkQE4edekTWJvV6cTb/ulx4A3IW33+3u6T1gDwSwCV3YjufCYRWeJFIfj8wkWYBqVDbQACGmbX5jIdl6P2QKBLCqh/2xiUP+WxPeud3Gbb387ttue9H1L51/n3/G4UfTPP1C98n7PcDddefnuBPNxe6su9htLT7fNc1j3I1XfqFz/vx06qa399nJyjjrQYFpCWdeN4g2IOPTS6ZlXOYXYaZlXPRDCAj7WogXZUNLcgaK8CVcspX6j2ivFhemv7GSHgDed9ED7njAPbfmU+rB+qHDI5ousXn7jFj/5j+4hqpI3GdkEhllVj9si3PPO4YI4f6DDSxa4WB76J278YTf+vqrX3LqWl3ZQaFp/tV93G33vtidOX2xa9znOtc80Dn3WW6xdR/XqP9jfcbmEX7cOPuvRwdRqmtRcJL55qRzvvtPdnxzX9e4E841D3A3uguduyO8i+/ar4/az+Gd0pgTUgNhjI/nY4dCv3m+F/gHrycjfhEe0SZEHciBOEd7xeY5MFcaYjkMjtGUVMLtM+kdAPHH/57w4t+6u3HN+f2C5utER+vYEOLxhLiRbRWeKFIbj8wE2e2ZalQ20AAhptRFhzW5QSjTAfGvXCHE40elhwvnr/PbZy+95sXf/NG+6P1F07zsInfTR/+u2/J/zy3dF7vG/zXnmoftbxUzOpD9jCfewL5X/sFzhIyVcyPnID/3okmkZuNYc8BrGh+H+M25Fow/ONcR/+hcB/wQAmKf90XB+Ie6V0b9655DJ3Y+13/+Gz/ULkb/LYAW3t3uGtc/AAw2Z49v/gpy6kYjEsyvzSPG/MPo3GM5+jhXjrE8ns+xha3CiGQwLjHWw2EsmsXPfPbf8v/6ylPfnH6UdD/Q/s9W7pbv+etu6b/Gef9Ed/PHHuecP9F/4Tg27xl7D9LzQBG+hEu2CX5hKfXHWkEOhDGnli7VEl2gCF/CJdsEv7BU+kEOhDGnuVdF62ruSauvpP+rPXniQvIzAN1CtD8F+FndYCuQRKJkHu/RxW1VjJiCLGBoBG1ocuC5SUyiLBIXTejjoAwEsMrO4z26ryRslSh2GEYSQVONJPuSfbNYND907RVff/nwwHuL5rbvf5i7+/S3upuaf+Fc87ldQ2nhM/YVZA3MdSFazQUJ01l8pk0vJ/iFpdJP5Ywk3LHvFemJtdZzr4wzm/B5r06chz8D0MJ7d3vShRwkUc6aC7DCtBsXHZWSbYVZgGokiSUTU6S6TyQum5DPViKEDH9q0Ui89bN3EjVUGnkYj4yhpvbQO3962Syfdu0V3/ALupxNoGm++wL38a1L3E7zbe703f+wLWAT48yYCrYJ2aZjXIuMTy+ZlnGZX4SZlnHRDyEg7HOansuF/iAr1OZzFbYJfmGp9IMcCGNOLV2qJbpAEb6ES7ZSfzaWsFT6QQ6EMacN9Gr7dPpxf/EtgGWzuD381SqzwRnoAgrBob1x9SCLMLrI+Tr1Ysg00sMuDC7E6M0fBTJrPDKGmn7zb+5YNFtfe93LnvJWLHpv0dxx+We5e+78Xneze7prms8I2Y35zDgIkMUw9zbRai5JCrR6MwhLpR/kQBgbD89BqCuB5Fy7VySn7gsbf+5VBtbDjEsvma4F4yMHISBsP5NSkgjZvmr/9PoDXn/nauLiAcA3y9u6NCRZRIjY4R7WOZGAApk2HpljZQGqUdlAA4SYl/kd8WTr/ZAJCIkQHtEE7MNvTeTLgZBFrnro3eI255p/cs3LTv0uevYOze2XP8B9+q7vdHfd8d2ucffZu8wz9g5kI+PJNrDhlX/w5CBj5VwKM51VQ9QKS6Uf5EBEKD4cMi3jlDZJmJZxmV+EmZZx0Q8hICIIv5F9QcbJ55pNe1KvN94ro/6N9aq53ft+UPlDgI2/2XmjoFX7QtjWdA0fibd+JZGH8chMs+mf+DcGJjRQiYBIvxdDiMcTDmsPvfv48uTWV73jh//5u/pi9xbNnS94kLtj5znurtuf4by/cKxVMw4CZP+a+5poNTd43oz4RXhEK4DXIagrgOVsacYXckFWqNW6ZJvgF5ZKP8iBsOfEpJQkwkARvoRLtgl+Yan0gxwIe05MSkkipHsyG6txt4fDCP1bADfzgSIbxiOD5ogF2Co86aQ2HpkJNn3zNyDqMYpLNI8Htv9gY696aMJ8fyOC1+8W7vaTWye++uoN3fzDT/Tf/H3f7O488x+cb+7f/TL2jMMHsj/GLjwCyj94TpCxci6Fma4F4yMnQkw34KdyRhLu2PeK9MTqNe1VoT/ICrV6/GSb4BeWSj/IgYggfFmvPrXK0EJ/C+DmhvxYVT8UGVSgi9sqjEgG4zr/mGIdjFXfoa+A1zLG8niPsSrK/AGGVNCGJkfYV97ftd2c+Nqrf/SS3xfBPULzse9+rLt562dcs/ySPUo5YyNQGyYcsk3EOKVNEqZlXOYXYaZlXPRDCAhjTi1dqiW6QBGeckqbbBP8wlLpBzkQxpz2s1eqprlXEWSt2l/1zyB/CHBrcVP316969L0kyQS6r+xtVYyYgixgaARNNZLEkolJlEXiLRLdx0EZCGCVncd7TOshzUrJtsIsQDWSjDf/M8vdE09628sveZtY8j1A+Mn+j514rnPL57um/SttMw4nyGYx9zPRai5JCrQB1r6t9IMcCOM8xncuoa4EknPtXpGcui9sfGFjOQY4CAFxjvaKzXNgrjTEchgcoylJhPX7yn4H4OTO8qYzi34b9fuJDCxwSG9cukaNOK3ukzHHRPdxUAYCWDX8SLz1W9eYHCqNPIxHxlCTbv7tD4X45rLfffklb9TtWxfNjc95lLup+RXndx+1bq4ZmwTZUHQ/E10A27RMyzjlT5ICbQI7sSr8h3KuI/WLMNMyLvYaQkBEEH7uVb/t8v3HcBC98vIBQNzuty5obs7rDFOhRSqw80tD9UUexiPWu6lftQqQxIIi8W7giD4OykAAmzASFkI7SxxDCeRhPDKTZAGqUdniYftHft5+xVN/Lqt0T9Dc+r1PdlvLdzi3nG/+hxbtJlCbJVBsA1lcxqd0llYjGz97CTUFCEFE5GA4IAz/GnNdpTTH0lD1pxKtWjUyv7BU+kEOhNGr9iZgaTWyWlcI1on+ZJvgF5ZKP8iBsOe0Vq/acSrGyrW7C/Fn2sUDwJ1n7n/T6HpoHNJfVetBGpVR5o/DJU0vhkxASIRw/8HGPvSQTMfs0Wpveud/6dornvJv7cLr0f7Xqs3N33OF22l+Nf1O/4xDCLK5qy88GdJ5QPKOcWLzVvqFvD2o8MNFusJ/7Hqlt/C6vSr0h3ELtQFZoenlBL+Yb6VfeCvrhz1Z4Q/j7toPAG96wd/5uPP+00HXf7BBi8mBbw3IuccjaMgKm/6Jf2NgQgOVCIgEBLb/YOOw9tD7P7n//f/Kt4dvAewRmlsuf4i76X9e65b+uXuUcsZGoJa8PaT7NARIBRmXJJbO4vV13dIZPJRm6BjfzhXkQOgCO4RxC7UBmTbVPMGfvCpnghBkiHMVQ1aMv7Feaaj6q3uV+Y9zr7z/WN5Z+I5/0/gPdevPNkG+b7q4rcKTSGrjkZlg3Zs/QTbWwLD5JEmS/Jzl8cD2HwbQ+XkWMVCC1NrODub7GynO4L375Em/+Gevf+7j2/8bYk8Q/nb/8o63Otf8nT1JOGMDaPeT2lPhPGf7zOIyPr20tBrZWMJS6Qc5EPaczJu3Bsm5dq+y+QuQsY5drzKEdtT2KiK1stav72eV/n3dV0O92r4xD8MDgHfuA/yEh6x0W3bADSsZjEuM3bhKYI/RRey4ngNXjrE83qPbULYqRkxBFjA0gjY0OdIe3WqecfUVp95b0uUSNB9/9qPd6buvcY37f0r0Mw4CZIOYFy2i1VyQtB+0lnErbUSyFGgTrK9k9fhqrDSmvsCvdAX+UKals/iINEVLZ/G6vSlRBsZFI4SAyApUOCd6pTEwfwhZa0L4w9ar88+KbwHIPwQU9tTuB3VrJA7DjUs2Gs89thDdLLpPJN5NPqKPgzIQwKoWjcRbP7veJIhiNavGUscR037iv4V/9XUvfupredZ6NLc++2+5s/4q59o/7DPj8IFsIHOPE63mkqRAG5DphKXSD3Ig7POWnq+F/iAr1Gpdsk3wC0ulH+RA2HNiUkoSYaAIX8Il2wS/sFT6QQ6EPScmpSQR0j05MFaOoV598l4jDwB+64O+2RX5eozduCLUfMj0eB8CnakLjNgnYopU94nEu4GheFAGAtiELmzHO+xFD8WEAJN76P17P+ehi2dDwoloPvY9X+l2/K8711w0McWMjYLsVXP/Eq3mBs+PEX8KM10LxrPzgOkG/CAHIoLwc6+M3Ul42iuiY2sVZIVa7U+2CX5hqfSDHIjKfVXgH5xr0/5h1Xv8F//abfmiwTsA2437gHX7b3NYZaTGK4E8jEdGksk3rgSSWFAk3iLRfRyUgQBWjmyHhXBYhk2W+nhkJskCVKOyrQ69Wzbbzb+48lmn0v8UtQ6aG5/zOOd3f801883/cEJtjnDINgzjlDZJmJZxmV+EmZZx0Q8hIIw5tXSplugCRfgSLtlK/XOvivqa9wmWp7LXIAfCqOmQ76ulf3/Xpx7wALDT7H6A/DXgcMKwNvQ4oBtXAqkuo8zqyQkJmYCQCOH+gw160cmxfg/JdDLIieTlbC0X/+GaH/36t9vFl6O57XkXu9Nnf9M17l7lrhn7A7KZzX1JtJob3HAjfhEe0SZEHciBMC7SeI51KPSv3Ss2zkCtK8y9ysB6mHHpJdON9Hq0zwN+OhwjCbcf+2rRwM91wQPAvc/bet+dp9V7AGZx2e5Uc5KH8YjMu0N2e6YalQ00QIjr1PjNfwApNRlD3Pd5vG9RF7dVeGFSs161ysAaPfT+vXd9/uf/oJG4Ct1/4XvHVc67B1UZZ+wDyO7Dk8m4cRI+pCM5KZdphYX5B/KCHIgIwh/EXMVUSE2Uq+kVyxn9EAJi7lVVr4z+Fe8r4g8U4SmntMlW6G/wAQB+C+B13/eEm9tfA1ttjdXk2BBW86Q2HpkJ1rhxWcjGMocV6FVcP8byeI8ubqswIhmM6/rHFIPwW8+6/rLH3TWoKUDT/MyF7u47X++8e0SBfMa+od0daocEiu0ai8v4lM7SamTjC4vl13z0axqJOE8QTp/rKiXLaXLZ+OklqcnkolZYKv0gB8LoVfuFiKXVaHVKGw4n+pNtgl9YKv0gB8KeU1WvFIK3YqxcG2yV/mbrL3UJ8AAQ4N2fdy+64liJeTyH1NrOlX9MMQ47w2D1ydb7IVMggA3o7TzeY+yH/qLfTJMFDI2gqUaSecmLhXvd26+49LfH+1yAj733v7mmmf83v0MFsiGqLzxyO1dfeFZIpbQvSF1DHGzyCj+coxXjH7te6c27bq8K/WHcQm1AVmh6OcEv5lvpF97K+mFPFvpTiTD4eP8Wy8IHgKX/09BgfFc6QyyA1aFhaKD3AGnEnpHEoiwSX/VJvkBlsBr+FbAghWk9pKNSsq0wC1CNJPOSvfOnz+4u9+Sv8jU3PfuZzi8v0R2YcVBo111tiECxTUK0AWpvhcMJfpG+0g+lVfjbuYIcCH7hDOMWanWRqeZSf9ZXMd9Kv/BWrtXGeqWhiqzuVeY/jr0aXFcN1avt7fGfAWix2Fr+2e4OOXc01P6Uh/FIaVZY58bVgSQWFIm3SHQfB2UggM1qty4OCuz6o6GGkYfxyChl3R42zv/Y773sG/9Cl1SL5hMv+EJ35vTLa30zNgWyYejNrAXRai5JCrQ6p7BU+kEOhF0/k1KSCNfuFcmp+5KQadPLCX6wADH3atUT0RrWp3OyVzvutlvhb/zADwG22GmaP2u/D2AD72yyjfHI6O26Ny56Imdjjf/QXy+GEgMBbMJIOBOaVUSs10NRIy1XknBN8+5T9z7jX2qvcRma5mUXuZtubv9w0AVljhmbBdkMsPgtiE7zScK0jMvyivCIVgDPi6JaV5g611Q6q5Vx2VzFS6ZlXGYa7dWAH0JA2P2bexVWQYJxbQsZX8gFWaE2INOmlxP8wuL/wj/u+rN6tvQB4MTJxZ+evZsNGItTIXkYjyw7nVwOlQ3yAKFSkrjoaR8HJRASIdx/sIFFYyY1ljyMR2Y96/7gZHuRXbzst15x6hO6smrc8rGfdM7N/6XvgYNsFnOvEq3mkqRAG5DphKXSD3IgjIvpfl6kVU1HrlfsIcvqK+l/oAhfwh27XrE+FfbP7HOBXwzbHjR/FGwK9IcA7/XQO9/rnN/R4rDAaj7yMB5Zc96LG5dGNtbAsONIZp4lsP0HG3HBeZaYRAXlYTwyE6x78w/v7dz6OZ+7+HF7EmVobnreP3ZL961l6hmbA9ksYR8SvoQLton+NOQEvyi30g8X2gr/seuV3onr9qrQH8Yt1AZkhaaXE/xivpV+4a2oPwwD5rL5pxIn+MX0soOtrXfrVW9BHwCuPHXqjHNO/cTgHt78Kdhky9G5x3L0ca4cY3m8x1gV6JcMxiXGvq1QgjbH1k+u+xf/mua1J53f+YmSEWdsCu1+UXsmUGwfEW1Apk2SCX6RvtIPpVX427mCHAh+4Q3jFmp1kanmUn/WazHfSr/wqvVLAFGHjfVKQ41f3avMf1R7Za6rBulVgLUvNFSvEpR/Z/mH2tmCPgC08K7JDFiMZDAuoW5cY3J6XhJTpLpPJB4SrSrp46AMBLDKzuM9uguRrYoRU5AFDI2gqUaSWHL796Cbu+5/4YU/lRU+Dbf+7nPdsvmCaeYZ64NsgOqvZPWea49JXpOL2tGNaeWsuXlrtF4rrwbRVfcqQ0i3bq8m+GEaQNjrd6R6FZGmt26vKv3nYq/82fJ3AFostrbiA0BcBbbXNAyNoKlGkth/YhJlkbg4F/o4KAMBrAQWpAUhxUgWEFA9JVtrFqAaSWLJXdwvtn72Ny7/2lv1DGrQfOK5D3W7iz359cEZU0A2AC542U2qTRXSkZx9UCFqk9caSwgyxJNFDDmg1WjnCuUW+oMMzAfQK42B+iEEhF3/3Cvd6D3oFen/Yd5XvrnFP/oa8b8ArkB/CLDFjtv9o/R7AKqH8jAesT7v4Y1LQIxlDhzRx0EZCGATurAdz4XDKrxgSX08MpLs1c2//fLfn3ey/aG99XD27E845+f/4W/fQTZIt0lJJQVckhRoAzKdsFT6QQ6EfV7S87HQH2SFWq1Ltgl+Yan0gxwIe05MSkkipH0eGCvH3KsI0lfNBQnTWXymFTaWI3KNo2//tzC/BbB13r3+MBSm8srDNIABq9gVVDaYAxDqGkTiom99HJSBAFZWZocz4dj35Q9TD5dvvvbyr4t/5XEamk889/Gu8U+a5p4xHWQzhhOG8CVc2v8T/MkyYXwxXKUfLhAV/mPXK73TanulUegP4zIt41baiFRzgTYhmpLXGl+NtcI58Q6JmDzpf/MHab4K5gPAbz/7H3zYOffxXC+HYY2XarGeAJVNzwEmVXvz71GSWla+GgucEli0FsA0DrSHi+1X6QqrcXr5wmrPjDXQ7hi1DwPF9ibRBmTaJJngF+kr/VBahd+8SGvAIPFeVDqW8qfDUn/Wa5Gq0g/TqPBvrFcatb3SyPyTehVN6/YKUNjrILO0GqRXARP8wlLob06Y/8ur+QAQ8X9WL+RQ8YiNHyeWQlSjsoEGCLiGUQgbydFiuLAuHDSGf4VYtK3a35v/GLz3t5z+xG2vH9MNofnkC/66WyyfMKSZsZcguyvsO8KbXKZN+3qCX1gq/SAHwp4TXhxsrUZ1rzLsSa/aJBVzbbUgB8LOeaR6FZGmV9sr3YZK/3Hq1QUX/q4+NVYYfABolovwvQO5BdmGzFHwlvga6EYfr2EFrhxjebzHWBXolwzGJcZ6iMD9LMfwy+Vrr3/1ZfCXoKpw9swL278fXOWZMRFqj7SHuMjx7GT7KeOCd6XVSEGF6BdhpmVcHAtCQETEsXK0cwW60B9kYD6AXmkM1A8hIOz6517pRu9Br0j/j+K+cu4v/MWvv4k0KMD8IcAWC+/fLVubHbGe64cFQ5MDz1NiilT3icTFwH0clIEAVtl5vEd3YbJVMWILRCoGYaV5JIklo2l7ceIX2VilaG59/iPd7tmvK9XPmApcu44ifAmXbBP8oxtxICeEgDDORXbjH9BqhGEqxspx7HrF+lTYv7lXEayHijP3ZEGvRaqCsfKcrXyxMN/+bzH4ALDj/DvpWwSsjnDaZQGqkSTuP2KKVPeJxEUP+zgoAwGsBBakBSHFSBYQSH08MpJsoofeNR+6+iWXXqdnU4Wd09/rnKfbYcZegWwKc08SreYG9/yIP4WZrgXjIydCTDfgBzkQEYSnvSI6Nn6QFWq1P9km+IWl0g9yIPa5VwXjT+0VpAbiiM11pH4RZlrGxT2ch5befPu/xeAF/c0vesKfeOdv7zobsxrjbuLGNd6E/JztC4MSAwFsQhe247lwWIVPB1Ifj8wkWYBqVDbQANFNu9n69fZXAPuJ1KFpfuZC5xen6lwzytEujVqeQLElI9qATJskE/wifaUfSqvwt3MFORCrDS1bG8a1tBqqyHRo+S1el2LpDF6VQSavB+hxaHulkU1SzNfoCfDRBHIghnsFKPQHmaXVEBPMbBP8wlLp1/ItP/gOwOADgPd+6Xz7KwQxq06ekAWoRpJ4rhKTSEniYm36OCiBkAjhEU031tj35fECJtPGI3OsLD/VqGygASLNa3li93+qadfh1r98smuae9eZZpSBrVvLEd7kMm14OdEvhqwcH+RA2HPCzWxrNap7lWFPejWh19AaIOz5H6leRaTp1fZKt6HSD72q8O/7vtpIrz7pvuAz35NveY3BB4CAZfPO8Jnt0RgQ6wuQRlgTljizmLddUg9Qw4V14aABpwQWrQWQQs2605vDbO7m3zj36S94+Jm36oqrsNz5lir9jEKoDdEe0r0WAiRnxiWJpbP4mDqF2ViMi0YIARFBxm/nCnShP8jArCeTIdOmISb4RXmVfpgaEHb9c6/yxcz2FOHNXmmQ/geK5GRazaV0pf7Veutlr/TDNKJ/4d/i/ZW7etY5Bn8GoMXS+Xd62pCu6lQqq1mRmIaYMopEO4iAoRourAsHjeFfIRZtq/AiJrW2czWZYcVwdAzeL97yc0972j1jOgvNLZc/xC3v+EorPmMKyJqae5FoNZckBdqATCcslX6QA2GcX3jOQF0JJGegCF/CJdsEv7BU+kEOhD0nJqUkEeJFt7zXc68qe0X6H8D4jBPhEW1C1IE8I5bL3+n1HKMPACdPnn3n2TNMZn5tvifopgGzU+jjXDnG8niPsSrK/AGGVNCGJgeez8QUqfbTYuHepppWh527vtF5t1VnmmGDrRfhAhivuHDIdBafadPLCX5hqfSDHIgIwtNeER2bf5AVarU/2Sb4haXSD3Ig9rlXBeNP7RWkBuKIzXWkfhFmWsbFPQwhIJxb3mv0AWD0WwD/6/lP/oB37uZV6+kSkLH1iYbnLTFFqvtE4nHuHfo4KAMBrLLzeI/uqxRbFSNKQPWUbCvMAlQjSSyZmERZTfsWzjXZpOrhl5fUm2Yg2oVR6xUosoZMG5BpU7oJflFKpV94VU0JIIrls6/8C8cPKS2thho/HVp+zWd+kUrrVvM3eFUGrP+Q/9D2SmPdXkU/tBCI2D/CT90Xq5Qsp8ll46eXpCaTi1phqfSDHIj2v/N9v3/sVX+pV0tj9AEgwPvu5wAi9uXGxUAaDlMPBLASdMPkGLv5R6hh5GE8MkrZZA87tP/1r7vrIY9bmH8HegzNLS+5t/Pub47pZoyBbIKwBwlvcpk2vJzoF0NWjg9yIOw50XOu0F/dqwyTehWRypvQa+hz4Vxb3bHqld4ylb2GXlX4j9y+quhV40e/+m9R9ACw9Mt39OdEtpHZnlYkrA8zwclCkDS9GIYPBLAJI2EhtLPEMZRAHsYjM0kWoBqVDTRAiGmnh4vGvevKU6fOkG4W4hP/0DUN+/7PjGKotWoPcUHLbujBu9JqpKBCHF+EmZZxcSwIARERx8rRzhXoQn+QgfkAeqUxUD+EKuqfe6Ubba+12SsNWJD47Fw6lgSnM8EAACAASURBVPKnw1L/ag56KpV+mMaIf6vsAaDo4n7S+eu6vyGbDcrGVyT2mJhEShLP+pfnByUQEiHcf7CBRWMmNZY8jEdmPZv7if9uiv3AC+ferauvwnL55VX6GRnIBjD3H9FqLkkKtAGZTlgq/SAHQo6VwG78A1qNMEzFWDmSbYL/SPaKzbOwf3OvIlgPFRcOmc7iM+1gn0f8MCQQqi6/4y46782rmQ2h6B2Ae3/B3b/nXXNmeA6yKNyTpGjRHxLX84oA5XBhXThowCkRi7ZVeFGT2nhkJtj0zV9i122t9wDgll+hUs4oAtkAYW8RvoQLton+NOQEvyi30g9TrfDTXhX6w7iF2oCs0PRygl/Mt9IvvJX144W2fP5mr0bqF+ERrUC8fk7tVTvXqb0KZYK5rFdpihP80CuNgf5BCAir/rf5v/pbn9AjMRQ9AFx56tTdjfPdzYT1QJG0zxpZHppyNbcEQ5VoHu9ZHtf5bRVGJINxif3/rYkTfvePVBHFaG548f2d848tNszgJ2O7LegJEQKqa4pLh1pnjJV4XUqlH0qr8JsXaQ0YJN63rbE01u1V5heprPENHqZh6Bh/aHuloXqVUDrX6Ac5EHrjZkNZWg1YkNj6if5km+AXlko/yIEg148Vt/x13RULRQ8AXVq/xt+SZ8V36CJ2PFd1dTBwf2Lp5skx9kN/MRMfRi6EoRE01UgSSyYmURbGLzx74r2sW0U479YvcU1TvD9mYP+7RSR8CRds7Ycav9gQEZV+kANh14Sb1tZqBG/FWDmCbaI/DVnr11+NVvqPVa/00q7bqwr/kdtX6/bKObd14W/o08tC8QV+4ZbX9ScLnH0JuK/TGZaJupfdJxJvkeg+DspAACuBBWlBSGFniREloHpKtrmzANVIEksmJlEWiXv/qd96xamit4Eodre+iPIzCFT/20NcxLKbVPCutBopqJBthlQK0zIujgUhICLSAD3auQJd6A8yMB9ArzQG6odQRf3FvYJB4jNOxVh5XSndBL8opdIP06jwm73SgEEqe6X8R7lXvnmXf+Rvv193yELRDwG2uHC7ufbOs/q/gpeLiXuTLHakuk8k3iLRfRyUgQA2oQvb8Q5jN/9elkNmjUfGUJu8+ac5MDTN6O+ADmM5PwCMgiy6uS+JVnNJUqANyHTCUukHORDGucZu/ANajTBMxVg5km2C/0j2is2zsH9mnwv8c68ysDXIuME9OdJrSA2Efa7k0oUvfvu/RfE7AK9/4ZNucn6R3VRkgbg/yQQEReJijn0clIEANmEkLIR2ljiGEsjDeGQmyQJUo7KBBgh1zSfxWLb3/kPZTOvh/RfUm44TSO/DAhK+hAu2if405AS/KLfSD1Ot8NNeFfrDuIXagKzQ9HKCX8y30i+8lfXjhaFs/qlEGHzcL6Y3Ya5Te9XOFcotHD/IwDw+VyGZ4IdeaQzUDyEg7PpZr7bKv//fovgBIIib3fhzALJJ2HPSxIwyfxwuaXoxZAJCIoT7DzawaMykxpKH8cisZ9M/8W8MHOml87foGdWh+bw6/XFB22CyMeh+IlrNJQlbT+ZvEbUiXOmH1BV+duEp9YdxrbE0VJHp0PJrPvOLVFq36qnBqzKK5xrSWjc0DRgkbhWjJoDyJ9sEv7BYfs3H8TWNxPANDQAJuT/ILK1GrHWFZJvgF5ZKP8iBsOfE9oVvPuAe/vY/1LMdQtUDwHKx/RbdZKyDTCKjSLSDGciQNFwc2P6DjVg0zxKTqKA8jEdmgk3f/A1k9Wx5N/kBoPng8+7nGndfY5RjDLLgYS8RvoQLtlq/3nsT/FAuEPac8IS3tRr73quINL11e1XpP1a90ttg3V5V+I/cvlq3V3BidQmbxWu9pyezieKfAQhYLH/HLftcdH9rZMV2L6F6hT7OlWMsj2dVh5e2CiOSwbiE+f7GnmCs+g6N291xt04e8N6Lz3Fr/P3AcxNq3cMh2wuMU9okYVrGZX4RZlrGRT+EgDDm1NIVWp03WCf6k22CX1gq/SAHwphTTa9IzkARnnJKm2wT/MJS6Qc5EMac9rNXqqZzsVfL5rVhS1Sg6h2AN3//137EOf+ndn628B26iBEniwHKQAAb0Nt5vMfYD/1Fv5kmCxgaQVONJLFkYhJlkbhsQjfdxc4d2cTrcHrngXWGcxltP1XPwyFbB4vL+PTS0mpk4wtLpR/kQNhzwk1qa3XeMEzFWLk22Sb4j0SvFKq/ks0mmfo89wqherInvWqTVPYa5EDYOcfPwb/0X3Tt9Tj3YVQ9ALRYOP/GUCbUDkTqTxchcTHfPg7KQAArgQVpQUgxkgUEVE/J1poFqEaSWDIxRar7ROJGDxfL7dO6A+XYeUC59lwG6Xf1RTpDSNd+IHnHuGSZ4BfDVfqh1Ao/7VWhP4xbqA3ICk0vJ/jFfCv9wltRfxgGzGXzTyVO8IvpsbkyLtYFISAiSF3tXIEu9AcZmA+gVxoD9UMICLv+0l559991RSWofwDY2noT9p8siKBIfDVn+QKVwWr4VxEsCMH2nAAK5KjxyChlkzf/DubAEG+Vy+2d6Q8AW9v3wQYeJ7QdVP0OFFsDotVckpT6W0StSF/ph9Iq/OaFRwMGidO3xtJQ/nRo+TWf+UUqrVv11OBVGbD+Q/51e2XVBFBFpqkYcwKoXiVU+kEOhHFDa6+xllZDzXWV0hxLQ/nTsBPGF5ZKP8iBsPdaca8Cqt/+b1H9ALC88863OO93+naTCWWU+R1xsiCQKRDAJoyEM6FZRcR6N39RIy1XkriuxJRRZvVJ04tXr3yzNf27+Ls752fdO2Zga9FyhC/hgq3WH8dKQ07wQ7lA2HPCDWprNfa9VxF71qvKXh+rXultUNsr2Cw6oV7MHkduX+mpVcy11Rb3qr2LL/6Pf8x179HdLUH1A8AbX3LqU8653+2SQ5XqXkji0Bgjk2FdIYT7DzboCZoDmy2HjkdmPZv+iX9jYELnlF8uiKIQfnGiUHmOQbWsPaT7JwTI3DMuSSydxcfUKWzpDD6NuwIQeoAe7VwhLfOvcuTec6VXGsb8i3tF/HOvBs4ftQGreqV6nQ5VzrR/LV6fIpbO4FUZ5KTSA/Qw99UAdnd/aSA6iOoHgBaLhX8dnVTWD9aaABEwVInm8cD2H2zEizfPEpOooDyMR2aCdW/+BNlYA8NmMFXT4Zd1vx1y5NH2kG0E1luLYwtnaTWy8YWl0g9yIHCeAeu+NZvVL2CNn/HppaXVyMYSlko/yIHYo14prN2rbP41vT4WvcoQ5rturyb4YRsBsQf7KkP7a38Xnf/zci+UY9IDwIkTO7/qFp7NLKALmOGIPs6VYyyP9xirAv2SwbiE+cZ8Bewxxqrv0PvtTBOw3NZ/8/kcBulc9UU6Q0jXfiB5x7hkmeAXw1X6odQK/9R3SFZtomMVjH8QvTK/OoMG4vqHKVk6i49I7bB0Fq+3YkqUgXHRCCEgsgIVzoleaQzMH0JA6MXoUdUr3Wf/Vn/xmz+o6VJMegD4X89/8geca/5ADBL3YPcpHmgkuo+DMhDABvR2Hu/RvZVpq2LEFGQBQyNoqpEklkxMoiwSl01I0wVlIKb/DODxQNsk1blAQTeNE1f502GpP1tMkarSr8qAOaVxSF7zwqMBg8T7NsnJxtH+0V5pZONP6lU0wTSs+gk/da5pmUlOk8u06eUEv7BU+kEOhH1ezL3SG9g+L4t7ZcAvXmNEijDpASBMZ9e9Lo0Q59t9YpPP59/HQRkIYCVow3KM3fwj1DB0VEq2FWYBqpEklkxMgiJx0Zo+DspAADtDgPQnLBLhS7jU8xp/1CZL7fjW9+s1jJpwU5bPf997FTG5V3pqlb2ee6U3lW5ov0Agreg13VeF/jBuoTYgKzS9nOAX8630C+9Q/Qa8v8fd/elfMaJFmPwAsHX+8spUcwLMqINosKJWCBrDv4rQE1GBXRcFUCBHjUdGKZu++ZvfWNiDHs5IO6lH21e6r0KAtCzjksTSWby+Vlk6g4fSgNADZPPF/V984QzDGDVZta6QSpzgF9Or9ENrKvzFvYJBYksrxsrrOqd6pVHbKw3lr+5V5hepKtcKplHhN/dVJfzydf5x17c/lD8Zkx8A3vSCr/tz7/z/XY28yRtXaC3rr8Yx/HW/hJL+HGvAGRv3FGucxWV8emlpNbLxhaXSD3IgjJNl/kE/fhEx+mfevDWIP3gJb3KZNryc6BdDVo4PciDsOe1rrzJM6lVEmt6EXkNrgNiDXhWg8Wu9/d9i8gNAi2Xj/1s3VdYA3gNQAiGR1nhUOJKo9SuJPIxHZpp1f+KfJM4oEu1gBjIkTYn4OIL0hV6kWx3Rai5ICrUBWU6xVgVj5X4hrxwfhqrw03Or0B/GZVrG7VGvIDUQEdCU7h0OoAv9QQZmY/5krsE6wS/KY7UyLo4FISDO8V5pDMwfQkDYa21+1d/mmILFDe49D/ntKc4caz0A3Oe85uca587SIsS8jEkmmscD23+wEU86niUmUUF5GI/MBHU3/1p0w5qDR/RxruTs8UbbE9WXQLFeWVzGp3QF2oSoTd4WlX7hrfSbFx4NGCTet61aNZQ/HU7wT+pVNMFwQAxfpAGF/iCztBpigpltgl9YKv0gB8Lo1brvJp3LvdKo6VUFGv+z/tSVuxUOirUeAF7/wifd1DTLq2jmhH5Tse3FT5qc5S6d31ZhRDIYlzC/uWECr5lkjEh1n0i8RaL7OCgDAewM1pOwMKxXBVzqc4E2LV7UJkvt+PiuVVX9uBHL/fveq4jJvdJTq+w19KrCf+x6pS8v6/aq0B/GLdSmc/Cg91Vpryrg3dJdtP1fKhwm1noAaHFi2/1nyJ4m3c+e9gHZgN4OLoXuAmmrYsQW9DA0gqYaSWLJxCTKInHZhFQjKAMB7Azdk7ZFuDBlF5PgtfqcggpxTUSYrdOAH0JA2PW3c4XhmJ/MK8jAbI+VD5SGmOAX5VX6YWoVfrNXGjBIvBdVjDX3SjfVuH6pXqdDy6/5zC9Sad3IvlZlkJPKPi+K99UENM0b1vnd/xxrPwA8/svu9z+dcx9NSVOP+2ZD2wMBrAQ9sXKM3fwj1DDyMB4ZpWz6J/7NHqR6+sKgxEAAe8zR9kP1xOwT653yJ4ml1cj8wlLpBzkQOM+Amrcb1VyDnXCrvAClTSVW1LrSCkulH+RA7FGvFNbu1cReH4teZQjzre1VROpVrV8/QFf66b2L7cuJ2N7+TxOdgLUfAC7/8i/faRbxjxGIhneAaacF5ejC4ELoNQKgQGaNR+ZQWYBqVDbQACHuTeY3FpKt90OmQACbYEfOZZBZ04t0qyNazaUeF2gDMl16WThW7hfDVfqh1Ao/buDyC28Yl43FuKxXIjyiFYjntphvhb+dq/Ba9We1rhCGAbMxf+VPJU7wi+mxuTIujg8hICJIXedErzQG5g8h0hMUdajq1UR4/1H30a94w0Q3YO0HgBYXXrDzStesfhiwbxi0DgiJEB7RBOzDr/ulMmg9ksTrATFl1PjNvwdkAmJiD88ZtA1RTQkUa5TFicWJ6Qq0Adn4opRSf8whvKu8GiDqYF54NIg/UFatGsqfDif4hcXyaz4OqGkk7Bvy1LmuUppjaZBe9UkUYEK4rxIsrca6vVr33aTVHDSs+jM+vbS0GnGuMGSlH+RA4LVmNWjxvloTC//T/ssvz/433vWwJw8AVz33kht8sxD/HzG0bnBR82suOCVoo3Pg073MGI/MYep+4h/LIYkzikQ7iIChSjSPB7b/cAxA+hAWhPAlXOrdBH+y1I6v92ulHzdg+fyPXK/01NbtVYX/2PVKXz7W7VWhP4xbqA3ICk0vJ/jFfCv9wjtU/5rw/rQ778zPrJlFYE8eAFqcd4F7qT49E8TCIEK4/2AjXuyg3/lAKigPbWcH82vzFF8H3ejjNQyPxv09y+PnHshCmzdD1pOMa1+GQ0tn8fpaZekMPo07tOIg6tDOFdIaWi0MMjDryWTItGmICX5RXqUfplbhN3ulAYPEe1HpWMqfDkv9qzXQS1Hph2lU+DfWK411e5X5RaqKubbafenVHqFpXuMv/r2b9ihbwJ49APyvFz7pj5zzb2qTsiUYZ7mrRxe3VXakQxY3pII2NDnwukBMkeo+kbhoWB8HZSCAVXYeP7fQzlHN0+wN64fyJ4ml1cj8wlLpBzkQOM/VatN1tvyKD15Lq6G0yTbBLyyVfpADYc+pqlcK1b3KEEpU/Uuw6o98Ck/wQ2ogzpFeRexZryp7Xbyv9hDb579yD7MF7NkDQIsTW1svg+0WCGAD+rXj8R7dk5qtihEloHpKtrVkAaqRJJZMTKIsEpdNSNMFZSCAlcCCzkGQHtCLdKsjWs2lvhZoAzJdelk4Vu4Xw1X6odQKP90jhf4wLtMyLuuVCI9oBayvzqABfK3buYK0cPwgA7MxfzV+GmKCX5RX6YepAWHXP/dKbr20poSv6tVeYvFb/pFv+qO9zNhiTx8Afufyf/o7zi3elYoM/SNNzEFPNCEIKUaygEDq45GRZJM3/w7mwBAH5UgPuzC4zjG081NzDBSbt8VlfEpXoA3Ixs9eQk1aK2Dd0DTEAD3MC48G8QfKmquG8qfDCX5hsfyajwNqGonhGxoAEnJ/kFlajVjrCsk2wS8slX6QA2HPaeq+SCkrxsq153SvNoCtnVdsIOvePgA455ut7cULhzdHh7D+bO9ojN78USDTxiNzrCxANSobaIBQ+5zExdz7OCiBkAjhEc3RB5lgWATCl3CpaRP8yVI7vt6jlX7cdOXzP3K90lNbt1cV/mPXK311WLdXhf4wbqE2ICs0vZzgF/Ot9AvvUP0bgHfvdo98x9p/959hT98BaPHmH/xnVzXL7mcBLKT1x65K0AtfDn1h1RnjqsHirbDpn/g3BiY0UImASEBxD4801NzbQ7onQoDMNOOSxNJZvL5WWTqDh9IMHePbuYIcEuoCOwQZmLk2INOmISb4RXmVfphahd/slQYM0k29uFfKP/cqomCtqnuV9Vq0vWCshP16522D2D7xb72nk14be/4A0OLEYvl844rczSKsH1vEDPGEtFV4cZTaeGQm2PTN34Coxygu0Twe2P7DOYh2cmru5nxZj5Q/SSytRuYXlko/yIHAeQa0e7tCqxG8Nf5MG15O9IshK8cHORD2nPa1Vxn2pFcTeg2tAeIc6VVEmt66var0F++rDaL96v8RV//6pkbYyAPAm374kne6hftlXXS/TdmGzdHFbRVGJINxibFf91sPY9V3GOsGn8OY6+iDzJve0Fod0WouSAq1AVnO9HKCX5RW6YdpVfjNixYkxbkGiaWzeN3eilpbLciBiCDjt3MFutAfZGDWk8mQadMQE/yivEo/TA0Iu/65V/liZnuK8FW92jA2+NV/i408ALRolsv2ZwHSfxWc2kxPuhzdSU2WJSJGTEEWMDSCphpJYsnEJMoi8dAUNQd2uQ0a7u/tPN5jLH4Y0das6g4Um4vFZXxKV6ANyMbPXkJNWitg3dA0xAA9zAuPBvEHypqrhvIn2wS/sFh+zcfxNY2EXJccU+e6SmmOpbHfvdKo7ZVG7btJalFCn2GhBrhMm15O8AtLpR/kQNj1F++rfUDj/tg94urXb3KkjT0AvO1H/vlfNFvNj4viaXNzTLv5s+XlZEuzDapqyIAlk9Ei1X0i8RaJ7uOgDASwEliQFoymOHwgc66+8GRIfSR5xzixTjV+3ffWW+Gn61roP3K90q1Zt1cV/mPXK3221/ZKo9AfxmVaxqkNkWou0CZEU/Ja46uxVmj3hfAO+fcJJ7Ze6Nv/+neD2NgDQItPP+TzftA7/5fdXoDuItgaaKg08pBtgh6bvPl3MOaY6D4OykAAm9CF7XguLFAdIqhq20M6zxAgdWdcklg6i9fXKktn8FCaoWN88YUHBonX14qx8vFTugl+UUqlH6ZR4Td7pQGDVPZK+edeRRSs1WivNLJei7YXjJWwB++8Adj4+4q3+Ee+baNf/bfY6APA9Zc97q6tE1vf7ho/3s19+A9+8v2CkCXidZVMIaPMnypIml4MmYCQCOERTcBoDw8T2gmpSYWms4laXManl5ZWIxtLWCr9IAfCnhNuMlursXavsvkLWPVH/lj0KkOY77q9muCHZQDC3iv7uq/W7VVEmt66var0F/dqH9F+1b/037cfI270AaDFm37wSW9pfPPzg5Ohi5AD3xqQp0M8YudIwKZ/4t8YmNBAJQIisfLVec7jCaM9PEwgc6H1tzqi1VyQFGr7rqqXE/yitEo/TKvQH2RgLpt/GmKCX5THamVcrAtCQOjF6NHOFcot9AcZmA+gVxoD9UMICLv+uVe60XvUq/1G8//5L7r2+v0YdeMPAC1OXui/23l/M51QPEHZ0nXAC4DUxiMzwbo3f4JsrIFhMxiqRPN4YPsPA+j8PMthQluhqjJQrHKLy/iUrkAbkI2fvYSatFZgD95uhHKB4BeuILO0GmKCmW2CX1gq/SAHgs+11U3dF6lN1lgaR61XGuv2Ss0/wepfxqeXllYjG0tYKv0gB8I+V4r31QHAuzvchff9wf0aeV8eAN70gq/7+PbCPaP9S4FyYt0hW7oOGJEMxnX+McU47Axj1es58ExjLI/36G5IY6qDB6mw+sIjpy1u6AJkrJxL4fbFiDYhaoW80l984SE1Hble6dbW9krv2Ao/7VWhP4xbqA3ICk0vJ/jFfCv9wltZv7knIale0Dh1Vivj9qhXkBqICFJ/O1egLf8BYbn4Yf+wN3xsv0bflweAFm/+oUtet2j8T/QTG7txxZWCBVshCxgaQVONJPFcICZRFom3SHQfB2UggFV2Hu8x1sPDAjWP9pDOLQRI0RmXJJbO4vV13dIZPJRm6BhffOGBQeK9qGKsfPyUboJflFLph2lU+M1eacAgI73SUP65VxEFazXaK42s16LtBWMFRBPIgdAneQ/zHDpE8O5d7vRdP7afFe3bA0CLO2695fucd28PC8oexjTU+rLl5mRLZ+oCI+4PYopU94nEWyS6j4MyEMBKYEFaUNbDA0U7RzXPMC82d4vL+PTS0mpkYwlLpR/kQNhzoutY6F+7V9n8BazxI38sepUhzHfdXk3wwzIAcUj21bq9ikjTq+2VbkOlH85By3+A8P608ye+xT/u+vS3c/YD+/oAcP2rLzt7fnPvp/jGf5xt9R74dCD18chIssmbfwdzYIiDMhDAJoyEhdDOchhAqoMTcdULotVcaozWtseaW+WNSOECbUI0idQV/nauUFahP8jAXHaTSkNM8IvyWK2Mi3VBCAi9GFmrz4VeaQzMH0JA2Gs990o3ekKvDiGW/of8o6/+4/2ubF8fAFr89o8+4cPNYvlt+PMAK+DFQC55PGL7ICALUI3KBhogVEoSF8P2cVACIRHC/QcbWDTLdEBoJ6AmGig2eYvL+JTO0mpk42cvoaYAIYiIHISs8Qk/da6rklhOk8vGTy9JTSYXtcJS6Qc5EHav516tNl4Gg1urV21OIy9AaZNtgl9YKv0gB8KeU3GvDgHav/d/+q6XHUQl+/4A0OJtP3Lq9Vu+eQ5OeP2b/+BeVRsI9wjZYBk1/rv+PSDTcGFdOGjAKRGLtlXYw/0Dqar6wqOb2OYkecc40e9Kv5BXjo+bqrz+Y9crvTMrek17VegP4xZqA7JC08sJfjHfSr/wVtZv7klIins1SFitjNujXkFqICJI/e1cgbb8hwDe3+lOnv+N+/3W/woH8gDQ4uofvfTlzvlX9EuACyfXMR7B4q5wQL/uJ2AWF8HjPcvjokd4ikL8YKBqbw+nXniC15ppCirE8UWY9XPAD6EKf/GFBwaJ19eKsfK6UroJflFKpR+mUeE3e6UBg4z0SkP5q3uV+edeZRhZ60m9iiZIDYTxQDJ0vTnEWLpn+oe/6f8eVIUH9gDQ4poXX/Jst1i8hjyyqWVnmyCH+bV5BewxuogRT3QfB2UggA3o7Tzeo3tAslUxYgs2hHZANSj96kzMVs4r9/cNIfVaHJu7pdWI9YMcCJxnQLsuFVqNtXsV6wdYNR2nXmUI067tVURqZa0fv6iBcyXAWKt93VcH3SvdhspeQ68s/yHCwr3CP/ba1xxkRQf6AND+HMCDv2j3XzbO/Q49BwKyk4OdJ2zfAKQR9gpLHC3dp7GB+zgoAwGsBBakBd19RtMJoth9BKmIzqXVEa3mUq+0tsCfLAXavG8gByJC19ROybrAE63mwjCWzuKzUoLE0ll8tKRwKCJ1owPjohFCQGQ5dNpzoVcaA/OHEBB6MXrMvdKNntCrw47F292jHvK8g67ygB8AnLvy1Kkz937wvf554/01q2aw5edkS2fqAiNec4lJUCS+2o/yBSqD1fCvIlgQgl07NdQwuzq+p2gHUwMGis3V4jI+pbO0Gtn42UuoKUAIIiIHwwFh+NeY6yqlOZaGqj+VaNWqkfmFpdIPciCMXtW+Q6LyhkNrLI1srsI2wS8slX6QA2HPaeo5FFKq+SdY42d8emlpNbKxhKXSD3Ig9qBXhwzef8hddO9LvL/yzEFXduAPAC2u+tdPvP2L77joq5x3vyaXPx6xPRG2RRagGpUNNECIa435jYVk6/2QKRDAJoyEM6FZRQQ+Hdij7gVI9uoLTz6/9nX7geQd45Jlgl8MV+mHjVThP3a90ntu3V4V+sO4hdqArND0coJfzLfSL7yV9cOerPCbvRqpX4RHtALxmjW1V+1ci3t16HCz2919wn7+tb8hHIoHgBavfOUTT3/lVz3w0oVb/Neu4LjCsNArZAGqkSSeH8QkUpJ4i0T3cVACIRHC/QcbWDRmUmONDL0myGC0xlbHKsm4JLF0Fq+v65bO4KE0Q8d488KjAYPEe1HFWPn4Kd0Evyil0g/TqPBvrFcaqsjqXmX+uVcZRtZahEe0CbHBIAdCn+RZCkt7FOBvc3751f6L3vGnh6Xa7cNSSIvL45XoUwAAIABJREFUv/zLd5xrnvb45/3Sbc77f0P3RcC6P/FPNlFGkehq2HEkM88S2P6DjbjReZaYRAXl4V5+E4BUQU/ENDkFq1CSd4wTlko/yIGwH1yYlJJEuHavSM6SXs+9ysB6mHHpJdMN7AsIVfqpnJGEO/B9RWrChkRErbBU+kEOxCGG/7TbPvFP/SOvfddhKvLQvAPQwzfXXvGU73KNv8x5T75HUnfzr0W3pcY2Vh/nyjGWx3uMVYF+yWB8OkgueuFpdUSruSBhWsattBEpfYE2YT/fblTzD2VaPbH4bK5BYuksXreX9Ypx0QghILICFcyv+gdqzdMdil5pDMwfQtY8CV/cKxgknj4kJ9MGZNqUboJflFLph2lU+M1eHRX4Tzq/9U/8I99y3WGr+BA+AHS49opTr95qlo93vvlg37Sx74cj8DwhGy9S3ScSb5HoPg7KQACr7Dzeo7th2aoYMQVmoBJtHpUrUCy/xWV8SmdpNbLxs5dQU+quzhtNmkZC3zF7TJ3rKqU5loaYIN1rWVHaLOsXYUursW6v5h/0q1rrqn2lELyV67pCsk3w78u+0qjZV4cUC/9+1yz+nn/MW9MPuR8mHNoHgBZvveIp77zfeRc9buEXv90ej+5BtbHxPCMbP1LdJxIXA/dxUAYCWAksSAtCipEsIKD6tb4DQP4/iuoLT4bUG1bpCJfC7YsRbULUCXmlH9aqwn/sekX2cela0V4V9jqMW6gNyApNLyf4xXwr/cJbWT/syUJ/KpHVyrisVyI8ohXYz3feDin84n+7889+iX/s2/7kkFZ4uB8AWvzG5V9764Pe2zyxccsf8M6fDiScREjiuUJMgiJxkbaPgzIQwCZ0YTueC4dV+HQg9fFoOEkd2ly09hAguTIuSSydxevruqUzeCjN0DG+nSvIgdAFdgjjFmp1kanmUv+qBl1KpT+Nu0KFf2O90lBFVvcq84tUFXNttUe1V/leERiZvwiPaBNik0AOhN64WQpLe4TgF7/sPvXgf+gv/r2bDnPVh/odgBWuvPLU7nVXPPWHt53/wvb/E8KGyg2D+4dsqIwyv7GQNL0YMgUC2ISRcCY0q4jAG5McNR7ZpdQjNJIltLiMTy8trUY2lrBU+kEOhD0n3Di2VqO6VxlCidn8Baz6I5/CE/yQGgh7/keqVxF71qvKXh+rXukts26vLP8hhff3uGbru9yjrznlv/TKuw9plQlH4gFghauvOPXe6654yhO8d6ecW9zc8fKihecauahllHnbHbaxoQEhRf/BBhatcFA3fw3rZFTNSnPWTRzxi/CIVsD66kyP34Jwbf+BLhw/yMBcdkNPQ0zwi/Iq/TA1ICJI3rlX+qSw17q4V6T/gaoYK1+rlG6CX5RS6YdpVPjNXh0htG/5u+Zx/rFv+3Hv6eQPHY7UA8AK117xlCvvdcY9arFwP5n/pgCeL2QDZhSJdhABQ5VoHg9s/8FGLJpniUlUUB7GIzvBHoEN0HIZnw4trUbmFxbLr/no1zQSwxdpACTk/iCztBqx1hWSbYJfWCr9IAeCz7XV4Qk2MH+VNxxaY2m0ukybXk7wC0ulH+RA2HOq6pVC8FaMBb2a6D/0vTqk8O4O5xbf497z4C/1j7nuPYe0SopD9XcAavBbrzj1Cefcv/qKZ//Ky+85cab9+YBvck1zsjRHt9fZSZajj3PlGMvjPcaqQL9kML4ZsHEUFw6ZzuIzbXo5wS8slX6QAxFBeHqBL5hrkpCcJf5zpleF8w+yQq3u31HrlTnXgvkPznXEL8JMy7i4LhACIoLw9BwiusOKhd91zfJn3QW7P3DYv9dv4Ui+A5Djzf/+kg++/Yqn/r/nnV5c3LjmZc77T3VxspEi1X0i8RaJ7uOgDASwys7jPbq3nW1VjNgCkWozaAdnBWRcklg6i4+pU9jSGXwadwVDx/h2bUAOhC6wQxi3UKuLTDWX+lc16FIq/Wncw9QrDVVkda8yv0h1hHpl1qpBehVgzVVD9Sqh0g9yIPTGzYaytEcA3i2d91e6syce4x/z9suO6s2/xZF/AFjhza849ZF3vPQbnvOIR9794KZZnlos3Bvb/20wCeKr7hPbfPn5A7YeIWT4V6CbO8fYzT9CDSMPxYQ2ADbHlsv41AtLq5H5haXSD3IgjDWqfRtbofqt2Qx70qusfwLW/GsedDSOWq8iUivW7VWln57z1roo7Pu+WrdX+vRat1eW/9DhZtcs/p274LyL/WOuPeX/2lv+7NBVWIkj+y0ACz/3tKfd0/4ng+2/xz/vv1/snLu0afylTeP+ZudhJ+Xe3PxDZnohUGDXZQEUyKrjkTkVI1CMZftfNWPRK6T0bBzGtWA1j2gFsCf2gxjJS9eF6PJaxXyZlnHZXMVLpmVcZhJhpmVc9EMICLt/c69CFyUYZ53vTEu4QBGeckqbbBP8wlLpBzkQxpxqenWIsHB3u8b/ptve/h/uEY+9yvtXdr+Kfo7gnHsAyHHtFd/4PufcS9p/f/+7XvPZZ09u/eMt57+qcc3fbxr30KQlJxNsayAkQnhEE7DxX/crKaIGKh/pVQ82dsaJ8Ig2IepADoS9AMU3NJIzUIQv4ZJtgl9YKv0gB8KeE5NSkghpnwfGyjH3KoL0VXNBwnQWn2mFjeUY4CAEhFEXe3i3tIcA3v+58/5Nzi+ucvd76Jv9g1/z6a6qqw9BcXuLc/oBIMc1P/bNH3XOtf/TYPjfBr/q8l9/yF133f13vdv9ol3nHu2X/tGNdxc711wA2zoREAkIbP/BhnmBXAFPFDliPOJlhCLM0CSobINzZCNnXHrJdF3tiKgVlko/yIGIILy5XkSruSBhOovPtOnlBL+wVPpBDkRlrwr9Qca0jFPaJCnQJkStsFT46b4o9AcZ0zKuZq4j/tG5DvghBEQE4at6tc/w/rRrmvc7v/hjt/TvcSfcH7i7LnqH/xtX3bLPlRwYjs0DgMbvXP6kG51zvxr/JfydF/yPB51/evHQu7fPftb2zvZnui13P+eWF3jnLtrdwd8yaN8s79C/MqHfVReIfqUBS3uOAbmCT6GTOyf+wqyjCNnJnF6SE5xyLaJWWCr9IAfCuJi2dKmW6AJF+BIu2Ur9B9kr/xfOLX+Vb92C/ZxQo20RN7Cw6U3d9k9zFti3rCxk2sH0O0aCZWFZpCfmlIh2EKxwza32n3fj7ZnYv0HsGOPWznVNLNu/a7640zWLe9yW+6Tz/pOu2bnFucUH3aOu+dhR+X39TeHYPgBY+L0Xf0P7pxsP9Z9v3FeYN8MWIzc5ER7RJkQdyIGwx2dSShIhfXAYGCtHSEdylviTbYIfLEDwuvzue/zn/dLzxBxmzJhxbDA/AMzgGLwhsRtMi8iLMNMyLvohBEQE4enNm+jyWkU6pmVcrFV4FYdBhZhXpGdjMS6OBSEg+I0/0E33FdqMGTOOLeYHgBkDKL2hZLpJN7RoguGAMG5o+LMTHQr9QVao1bpkm+AXlko/yIGw58SkM2bMOHaYHwBmGGB3iREuhZmuBeMjJ0JMN+AHORARhKfvGgyMlSOkIzlL/Mk2wS8slX5LPmPGjGOH+QFgRgGsu0bkR29IA34IAWHfZOnNu9AfZIVarUu2Un82lrBU+kEOhDGnlmbaGTNmHGfMDwAzRsBuHBk36YYWTZAaCOOGtu5b/mycgbFyBOtEf7JN8IMFCKOuml7NmDHjOGF+AJhhgN1gWkRehJmWcdEPISAiCE9v3kSX1yrSMS3jYq3CqzgMKsS8Ij0bi3FxLAgBYdz4ra/6mX/GjBnHEfMDwIxCZDeOSTe0aIL7DxDGDa3mK1mSM1CEL+GSbYJfWCr9IAfCnhOTcnLGjBnHFPMDwIwCZHeTwZthC3bniZwIMd2AH+RARBB+I+8aDNQKpZCaxvz70qsZM2YcZ8wPADNGUHrzHrjJQQgI48Gh5m1skjNQhC/hkm2CX1hK/bFWkANhzGlKr/Rfj5sxY8ZxwvwAMMNAduOZdEOLJrh/AWHc0NZ9y5+NMzBWjmCd6E+2CX6wAGHUtWavZsyYcSwxPwDMsCHuP6U3oxbshsT8UatBb96F/iBjWsYpbZIwLeMyvwgzLeOiH0JAGHOq+ap/IMeMGTOOJeYHgBkck25o0QT3LyCMGxp7cBjQaoRhKsbKkWwT/EeyV2yeM2bMOE6YHwBmDMC6STA+cqM3wxaGH2ggIghPb2hEx8YPskKt9ifbBL+wVPpBDkRlr2bMmHHcMD8AzDDAbiiMa8G+cmdaxtW8jU38gSJ8CZdsE/zCUuo/rL2aMWPGccT8ADCDgP2f3QM3OQgBYd+kmZSSREi/6h8YK0dIR3KW+JNtgl9YKv1UzkjC8V59TfO+Sz8h+sLmT9L12EV7bjiQXjFYkyD8LuFYXxgXrJafIevfxnrlr/KPees3stFnHG/MDwAzRmBdzEq/6m9BctAbEtExv3mRLfAPXmRH/CLMtIyL84cQELxPgS7VEl2gCB+45oRr3P26Hq+QadNLy88QtcJS6Qc5EMacNtkrDVXT4e7VvXT1M2a0mB8AZgxg4MILISCMizR7cBjQaoRhKsbKUX2RzsYRQ1aOD3Ig7DkxKSWJkD44DIw194qA9FVzQcJ0Fp9p08sJfrAAEeua/97DDI75AWCGAetioq91TAeiCHbzr/DTG1qhP8gKtbr+ZJvgF5ZKP8iB6PuqMbVXg3MdGf+ozfX/b+9cgO26yvv+X/voZUtYwRobbDDBxsaywIJETkmNcZDxBJwQ1zQjSFPGk04bl6Zp0k5oyKRNk0km05CUtiHDAG2YGChuEzVNi2kwfseWoSGW3UAtZGPLNjZDZPlty5Kle/bq7HX3XXet9X3fOWvte566328G5pz//v/X6x6vb+2t+/AfCW5enOYDi4x1rQb0Ty4RYcBnXVGW0QOAkklu8eY2o2Y/4vRMzdkyvanPxzrko0huvh0rsRNBmNNqWqt2TcjSEEHXahRrpSgJegBQhrDSTZo7ODRkbvLswSEz77rg+pH0wOtfdshHkcI8a+dERlv1a8WsifS1XlVrpSg8egBQBsAV75Vuspl5Z+O8nJZ4vYXzclqQjy5zXk5r8+QSEYQ5TfKuX9cq/3OVfP3824Kv65J3mp8ro98DoPDoAUBhaH4MMLf4C5shJ7MiY3QSo+doxZt00E+nTboNkeESQZ4TZ2VFxjj1O9kB8yKs9rVivn7D1o9EiFD4uVKUZfQAoPBE+wy36TRweu7BQcizBY3rh8k7W6Y3zftYh/w01kqca8b4B851SH7oXAfkySUitDD6WD4XTD9Fn4sh+bGvldA/u1aKQtEDgDIEbpPhtEk+xk7692+5cQ3RZmqTHjLWJZwt05v6Jr5WbYdkuEQQ5rSaPlcrXSvu8N3A/bImRdHfA6AMJHeTljaezLx4x5KRdxbOJ+mB17/skI8ihXnWzomMturXilkT6WutazXwv25F0ScAikC6eaTvW9hNVvCmurNxXk5LvN7CeTktyEeXOS+ntXlyiQjCnCZ5J6trlf+5Sr5+/m3B13XJO/OfK0WJ0QOAkoGwGXIyKzJG9uDQwHhTrXiTDtrstEm3ITI0Isjj56ysyBhXvFZMmzlrrWsVwK1hoPmXnG/A54K9xLUhaJzMi4pC0AOAMgRuh+Ee+XO+BkZnCxrj4/LOlulN8z7WIR9FCvPEToSWRHdvOS+nJV5v4bycFuSjy5yX09o8uUSEFkYfy+eC6SecazDtTms99rUSxl+0VorCowcARWClGw+TdxKj52g+1iE/85s0M6e5Wqt2/GQaRJC//pyVFRmjrpWwrooyGD0AKAzHAfIHRLi7/gZmQ+Y09o4lMy9u8Bl5PzxunEPyUaQwz9o5kdFW/VoxayJ9rdi1ysw7W6Y37d/HOuSjSGGe2ImgKNnoAUAZzlg2WWnjCvSBm+yQ/NBNdkCeXCKCXDiy14pp00mMzmqJ18c65KNIYZ7YiSDMqZFzvYzPSYyeo/lYbj7oK4oU5omdCMKcStZKUfLRA4AygGnf9TfkbpKBr9Mm3YZId0SQx8RZWZExssVwQF8hrjmmzZy8rlUAt4aB5l9yPulr0HpJhAjC17Dkv0FFKUMPAIoAt/Fwm1YDo7MFjfFxeWfjvJyWeL0lw+tpvVGkID+Tcx0y/qFzHZAnl4jQwui6Vssfu/Tzl1K0VopSjh4AFEr7pwBiMjcuZ8v0pj4f65CPIoV5YieCMKdGzvUyPicxeo7mYx3yUaQwT+xEkOfEWVmRMTqJ0XM0H+uQjyKFeWIngjwnzsqLitIZPQAoGXC7EaOxxbCB8aaas3A+SQ+8/mWHfBQpzBM7EVoYXddK+NwxOrtWjI/7rDhbpjfN+1iHfBQpzBM7ERRlJOgBQBmAtPEkunvLeTkt8XoL5+W0IB9d5ryc1ubJJSIIc2rkXC/jcxKjs1ri9bEO+ShSmCd2IghzmuRaJWMqXqsgP/NrpSijQQ8AikDmJs8Ww4aM/MQ36bZDMjQiyOPnrKzIGFe8VkybOWsdxbg2BmjkEhFO0LXi5jlgruRSYZ61s6KijAw9ACgMzTcBmERnNiO2oDE+R6K7t5yX0xKvt2R4PSfiNzUOmX90mfNyWrvW5BIRWhh9Jj8XzDiX5tpOeRnOy2ltkFwigvBZL3lCoiijRw8AyhCYzcxJjJ6j+ViHfBQpzBM7EYQ5lWzSTJtOYvQczcc65KNIYZ7YiSDPibOyImN0EqPnaD7WIR9FCvPETgR5TpyVFxVlLOgBQBkAs0Oxd3cNjDfVnIXzSXrg9S875KNIYZ7YidDC6LpWwmeL0dm1YnzcZ8XZMr1p3sc65KNIYZ7YiaAoY0cPAIpAsiG5t9wmxWmJ11s4L6cF+egy5+W0Nk8uEUGYUyPnehmfkxg9R/Ox3LyuVda6hutEvjyFa03sRBDGVPK5UpTxowcAZThsMWzI2PiKC1rQZtR8Rl/hmIidCPL4OSsrMsYVrxXTZs5a61oFcGsYaP4l5xvwuSCXCvOsnRUVZSLoAUAZDFvQpE0r0d1bzstpgTe6PMQbod/oRxmwfuQSEVoYfRqfi+AjMp7PFTPPpU7JJSIIY9K7fmV20QOAwuP2t9xNLvH5tx3yUaQwT+xEEOZUskkzbTqJ0XM0H+uQjyKFeWIngjwnzsqKjNFJjJ6j+ViHfBQpzBM7EeQ5cVZeVJSJowcAhYH7McAGbjdLNPeW80l64PUvO+SjSGGe2InQwujsnXDGXL2FaTMnf8KsVeb8nS3Tm67fzK+VokwHPQAoGWRsvAM32SH56DLn5bSG3Ef+Qp4t3pyX0ZzE6Dmaj+Xmg76iSGGe2IkgzKmRc72Mz0mMnqP5WId8FEnz5lFUuBV1/5uwvf0wOIiNJz2Ll/o11r+8HkfWfR9M/2zAboXp/y1YXApgo/tSeNI2W7LXSlGmix4AlCFwm1yijW2TbhjQP7lEBDnPWVmRMbIb/IC+QlxzTJs5+YHrLLXbhkiXRBDGxR2yBnhTZmqtzKOw9rPYUH3BvOGWB9KhMvzlkmbv3rEWG0++DHV1NYx9H6w9ifpL1kpRpo8eABQBrkA0BPrAgjQkH10e4o3gNtmCPFuQMvPOxnk5bZJrNaB/cokIwpwaucCbtjtTa2X2wdjfxtYtf2zM7n78ecrDXLT3OICvNP+zD/7o6Th65JdgzM8BdtPil7pkrRRlNqhmYxjK7NNscMEm51/mbnxBPopI+VRv86lMhXacxFhQ0IKxLuGaY9oUtcDrX3bIR5HCPLETQZ5TdkFr2kzaddmCvkKvj3XIR5HmjTkM2F/BwUvfYi647bquxT/FnHvjE+bNd34Exr4RBp/PXytFmS30CYCSQbrBNxFug5b0wDtwgx+SJxs8BzeucTw1GDLWJXSt8j8rI10r83WYdR8wF9zwCHA790FZMWbbnd8DcLW97+1fAswfwuIV8n8XijJ76BMAZQhJ8RY36eaCUHwbosuST9BJ04KP05u7UWInQjrARVy/md50kH7MufmlMaRDKcz7fpcoyI9trVKSQRavVZCPmvJz/Qwu2PKOxeI/fsyb7voTbMBFgH1o/L0pyujQA4AiwGzSqeYZUmSiy5I3pe2f2IkgHzzE4p3CtFn8GDvANdeOn8D0FXr95Q550jQRTpC1auHWqup9FBfc9rPG7D5Gln6MmDfseQAbN18CmL8eYzeKMlL0AKAMxtchqZhIeloDuYLGaW2QXCJCC9O/eCfLeFPNdSP5JD0YirNIPknn1irFDSwVFzVyiQhpB8ucSGtl8Amz9eZfMYZdqLFjzv7zv8Gpr7wcFe4fe2eKMgL0AKDI+HojFB5CUHiiSGGe2IkwuKARMvPOJnlTgrlGsQ75KFKYJ3YiyHMSDzopyVxdk4wWL0TABNaqMrux9dZfSEc+acyZ1z+JauMVMObJSfetKKXoAUDhcXWkdJNv8TWoQz6qX4V5UtAK8sUFLWAu1yr9speuVUpmXlyrjLwfM/E+iNPO+EfGmOZXWE4ds/XGhwF7Nab0JEJRctEDgEJpfuJ5ebcNIBtvS7szR5f9bp2XJ00X5MXH2Cmkk/aMk9tXkvdvc/MNrTdqqjBPplGQH9tapZSuVUqQH7RWTdHvmb9vtnzh+bSFaWLedNeXYapPTXMMijIMPQAomQwpMtFlyZvS7uzETgT5QCIW7xSmzYnf9bdj8ENp509gxrrq1qpl2FpZfNqcf+vXyRLOAgv2XwF4YhaGoigcegBQhjCkSEWXOS+nNbQ/nhfVugHeFPFOViqeAa4bySfpLX6Ikk/S039RkXyC7vslA0knFgqLnLhr9SJOMb9GJzwbmO17ngF6vzkbo1EUih4AlAEwxSSsRNFlyZvSVjJiJ0JaMVuag4PkTWn7CnHRjnkf65CPIoV5YieCPKcVrVXTT0FfoXcSa1XhU+a1tzyVftVnio3nfAbGNL8wSFFmDj0AKAJDNv5ogx/i9bS+yF5YZEhXBXm2oGXmXb+ZXkcwUP+yQz6ab2E+yhaOXzw4kEbpIcFZuLFyWse1MrbG8XUfd/EZxpx97VFURr8XQJlJ9ACgMHC7f7vxR3u4VAwEnez/go/TxcfYKaSTthZJfaUkef9Wykt6WgMln6CTaQg+Tp/ZtUoJJhnNN2OutrrNXHjjY2mLM8lx+1/0JwKUWUQPAArF9N3PASySbNKRnjJg4yaXiEDvJB2lj/wT2Lv+AX2FuCFGlSlAGn+r+8sd8qRpIpwga9XSZa169R9HX6sZxmzfcwCo/mp6Q6wm+lsRlflBDwAKpbfm5UUxKGYDN+kBRY5cIkILU+TEO1nGm2quG8kn6cFQnEXySXp6XpB8gu7GHH45iJB2sMyqW6v1N4crNfvYW6c2RlMfnVrfykyjBwCFodkw2kpEClKKUMwanVwiglDQSu/6k3bdW6mvlMYXeP3LDvkoUpgndiLIcxIPOinJXF2TjLZ4IQ3Tr5W3SN6UoK8oUpi35vHFX7YzR1T98fxJwixMe6BXlBj9c8AKxVRPA3VQF7kNuoHTW23oBj8gT5olQgujZxdDpn/XHNMm5001H+uQP6HWKmP+Xddquen/134A5odj6+9DL/iXtUlizDOT7E6ZH/QJgEKxODR4k252Ym6jl362P0XIi4+xU5i8k4QxEZK8fyvlUz3IR02lvoakL8+JulYpK12rNh8ubWUfSHuZebbf/l3AHJ7KOPtW/y6BwqIHAIWydk3728ukgpbCbNKOgnxR8U4ofowd4IY4oEgTgjn5l6X5kn8eSSn955GEuVur9GNkgbo6mE5r1ln8C4X2b6YyTlMdmkq/ysyjBwCFcvozj8HYfnxhQJEjl4jQEhRPL0nFkPGmmutG8kl6MBRnkXySnp4XJJ+guzH72aeNpYOL0bVaXI+qfiFZmTnBvDiVgdYLj0+lX2Xm0QOAQjBm9zFYE/yMtVDMGp1cIoJc5MTinUKqZtuv1FdKkvexDvkoUpgndiKkp4OW0rv+pN3iu/4gP5NrZebzx9oMpvPd+LZ6MP0vQlEa9ACg8Fj77cULA4oUKYYDvBHSwSEzzxa0JpuRd5ZMryNo07/skI+GVpgn0yrIi4cs0ihdP2fh+uK0IB9dHuKNkL4vIh1rvSnOzQ3TGPdxPHX5d+ZmhZSJogcARaC+VyyoZE9PN+gGYlpEfIydwuSdJPWVkuT9Wymf6kE+air1DZhr402GIa4p1+7MrlVKslae3LVq88ROhMX1q6tXpCOYC6zZPPFxWtxvdv7GwsT7VeYCPQAoPNWavfGFwk2aUPoYO4G9628QikSIswRFil5MCNr0L0vz6VOOwnzRQScdfmFfIVNZq/TLOGT8Vf36dMqzjrX/bD0qe8bEx9mrkv+OFWUZ/T0ACo9d+1fA0vcBpsWsISiSEYyeXcyYdn1BSmH6SfPewnk5Leg/usx5Oa3Nk0tEkNcve62YNp3E6KyWeH2sQz6KFOaJnQh0Ttac74Y/T+y751xY9CY+ZGvvmXifytygTwAUFvP6P3wYsI+44kH2ZCIId9ild/1Ju+6t1FdK4wu8/mWHfBQpzBM7EeQ5raj4J/P3SP0HunvZMR81L/WV0vZF7ETg18r2t1u7a13a6kxjejumMr7emq9OpV9lLtADgDKA6la6wWdu0o2PWAuKDFvQMvOu30yvIxiof9khH823MB9lC8cvHhxIo3SuziL5JD1d3g5z7bpWzVwtTsb9T/7Q4tduTrD9nZMfqXkW3zjt3sn3q8wLegBQZOr+DcsXpWLA6IubdALj4wqHqyWSNyUpPP6tlE/1IB81lfoakr48c/yNfn5eKUPmH10e4g3XaWmtInLzyeei7l+RjnpWsdbtsz868fFVuM28f3fy+zwUZRk9ACgym45/GQZH5DvElNJH/gnsXX+DVCQCnGVAkSYEbfqXpfn0KUdhvuigkzB3a5V+GVe4Vrb/QWth0mWZSfbt3AmLMyc+tgrXT7xPZa7QA4AiYk7f/SJsfVNsEDYQ4scEAAAQhElEQVRu8a4/KLSeRHNNSj5Jb/HDkXySnp4XJJ+g+37DgaQQ0yLZa8XknSSMSRprOEQX7ZCPhlKYJ9MoyEtrZfH9uP9H3pmu+Exijv3M5MdlFrBp/Rcn368yT+gBQBlMVX1+2SBs3GJBSiGVoK1FQruEJO9jHfJRpDBP7ESQi2zRWiUU3/UH43Ivm/8rGOuSd1bXaqH+SLpEs4b91jtfjxofmPi4LG43r73lqYn3q8wVegBQBvO6Y19EhSfFwkHqSUGRYQtaZr5TQWvxY87sy9GGSDEkCyAXWWLN7N/ZSDivoPsuOuSj4XFj5bR2XOQSEVqYcUl3/cRbv9vue/sPL7U0k9j+rwJYO/GxVfVnJ96nMnfoAUAZiPu7AH18jpjETTqF2fidxGz8ZINvSPL+rZRP9SAfNZX6mL48U/5GP3GsKcxa+XmlDJl/dFnyprT9EzsR6Nd1aZzZn4uWGh9vv8lu5rDfuGQHbP0PJz8w8wyee82fTr5fZd7QA4CSw8dRof11ovqNfkUFObugMUWSfULSwHhTzVnagkwYkveXO+SjpgvzZFhSPuKHsO+SnydTnDL27h1rUdlPYvEnACZLr/q8uXj3kcl2qswjegBQhmLOue5RWPPf5bt+snPTIuX2cskn6S2+Dkg+SU9roOQTdN9vOJAUYlpEfEKS9sXknZT6yGQCAq9vrkM+GkphnkyjIC+uVTYftQ9c/NZs9yQ4ecNvA5j87yqoTB9mw3+cxBSV+UcPAEoe64//FrD0FGCJzE2++E42KWgOqa+UoBJFkcI8sRNBHpNYvFOYNle8VsH8I5i+5mqtBmDtBhyr/tQeeNurBrgmhr3v7e+HxYcn1mGIxf8wW298eCp9K3OHHgCULMwZu/fB2s8smguKjFgMpYIU4CxcX5y25G3xzWd4PW0oGlpBXryTjRpMB7iI60bySXqYbV5LPklPl5ebK6e1QXKJCMEAE4rWKgd7Dl5a8yV76Mqp/qVA+42dPwKYz2Iav6PAoEZVNQd1RclCDwBKPvaV/wbA8zTAbPxOGlB4IpK8f9shHzUl5VO9DSXDKCqoXefa4IaTjmmQFnj9yw75KFKYJ3YipKeLlpLvISnmIhx6+jZ7zxWnFSdHgL1v57vQO3a9eyIxDQyuMxfc8c1pdK3MJ3oAULIx537qCfTsx+IAs/EXP8YOcM01/8e0O0zzkQ75qLvCfFHxT1h1a0UWQPhad6S2O7Du+TvsNy+9oGMLnbDfuuQa4Nifw2I6TyCMOYoF8+udBq+sWvQAoJTxurM+BovvLoaS3dzt5WSHzyvovg50yEc1pDBP6k9BPvsxNumkPeMU9BWO64Raq7GwFVX9dbvv0qvH0nqAvXvHZrvv4s+hbz8Ni+n9hUJjfs9s33Ng3PNVTizm43dpKzOFfewDV2DB/u/o3znZYtYgFbkAb8nwpm1GkcI8sRNBHj9nZUXGuOK1YtpM18UTeGd+rcZAZW7Cevy8ecOeB0bZuvs7BN96xwdg7b+HtWeMsu1iDB7Bc2du0x/9U0rRA4DSCfvQ+z8Jgw+5MFvQMouUs3FeTku83pLh9aR/wEfqX9Bncq5D5t+p8LfzJ00ToYXRi9ZqnJjmd1hcB1v9jrnwjm+tpCf7J7t6uPC7V6E2/xoW0//Rw+Yb//rrLjPbb/uLlcxLWZ3oAUDphLUf3ogDj98L9M+jDTDFINUGFu8h+U4FrQ2RpokgHEhKDjpMm05i9BzNxzrko0hhntiJIM+Js/LiZKnwNdS9L2BD9RVz7u0P5nTufqnPKRv/Nl5euBJV9dNTv+MPsdW/NRfe2fy6YUUpRg8ASmfsYz/5Nhyr9gBYs9wIt/MnmnvL+SQ98PqXHfJRpDBP7ERoYXT2Tjhjrt7CtJmTn/m1mjLGfAcWf42euR/ofw99vIA1a16C7W/CQrUFPbwe/fp8GLMDsBunPFqOu3H06MXmor3HuYuKMgw9ACgrwj78Ux9B3f+drII+sCANKXLRZc7LaQ25j/yFPFu8OS+jOYnRWS3x+liHfBQpzBM7EYQ5lTwhUVaOOYyT8IOj/t4GZXWhPwWgrAhz9n/7KFBfSxtpCkdQPIoLWpDvVNDaPKlfRBAKWsnPqzNtuoMDo4ta4HUvO+ajLgv7J3YiyHPKPigpK8Y0f2Gg+jkt/spK0QOAsnKe2XINYG5dbigpHGJByyhyvqkMr0f6632ZBa0pZsSa2b+zkXBeQfdddMhHw+PGymntuMglIrQw4ypaK2Uk1L3fNNvuoH+hU1EK0X8CUEaCfW7XqXiq/hos3ugb9PWCKRzDtChSmCd2Igh3soOKdwrTppMYPUfzsQ75KFKYJ3YiyHPirLyojApjrsO2PR80zVMARVkh+gRAGQlm8+6nYdf8BIAnXINue2r+j9unhmj+cod81HRhnty5F+SLH/kHuDEX9BVOcmprlX5spPErI8Oam3HkyM9o8VdGhT4BUEaKfXTXNizYW2DrV9OGSdVoafXoMufltAbpkX2KkCeFv22TwOSdxOg5mo/l5oO+okhhntiJIMypkQu8yugw+L84cvSd5qK9z42uUWW1owcAZeTYA7vOR13fAtjXLDc+pHB0KmhtiDRNBKGgcQeHAd4Uthhm5t0QuXFKeuD1LzvkSYQIwrhK1koZKZXZi1PWv9u89panRtqusurRA4AyFuxjP30eXn75NqAODgEhbeGJ6g9XjBo4nStInE/Is8U7M+9snJfTEq+3cF5OC/LRZc7LaW2eXCKCMCe9658qBnfi1ae812z5MvNXOBVlZej3AChjwZx13bexvnonYJI/UNIUnrb4ZBW0tFC1+VSmQtsPMRY8xg7GuoRrjmlT1AKvf9khH0UK88ROBHlORQclZbRUX8GRo+/R4q+MCz0AKGPDnLX7QZy8/m3uLsYhFcOCgpQ0s9hmQZ4UtCabmddv9BPWShk5xuzGm976d8xFe18aeduK0qL/BKCMHWt3rcOD/U/B1P8grrWZhdeR+8ifa7P0rj/BNcm1m6F5S4bX03qjSGGe2IkgzKlkrZSR0/x4n7G/iwu++qum+UM/ijJG9ACgTAz7wFW/iMo0fz61Ki6opH4RQSho3MFhgDeFPDFYIqN/Z+F8kh54/csOeRIhgjCukrVSRo5p/hbB2qvN+bf/z5G3rSgMegBQJop9+H3vQb++FhavijsWihSRidDC6GzxZnyORHdvOS+nJV5v4bycFuSjy5yX09o8uUQEYU561z8D7Ed/3VXmLbfdPwNjUVYJ+j0AykQxZ//ZDXjFyW+BwQ2LHTdFKi1UrZbKVGizxKjf6MetiaQVHZSUkWOrP8IZp7xNi78yafQJgDIVrIXBt6/8BRh8FMD65UG0xTyq6UyBd3A69xib8wl5thgK3rRd101BX6HXxzrkJ7JWysipzCGg94/Ntr/4s5G3rSgZ6AFAmSr2kSt/AAvV52DrN7uCSOofEeQiyxbvzLxYvDPyA4s3lw/mMLR4D8iTS0QYwVop48Fcj5OP/6w55y8Pjqd9RRmOHgCUqWPvvmYtNj/xYaD+NVh70vKAcgsad3BoyMyzB4fMvOuC60fSA69/2SFPIkQQxlWyVsrIMeZJ9PDLZuuePxp524pSiB4AlJnB7v+Js7EGn0Btr+AHxRQ5tngzPkeiu7ecl9MSr7dwXk4L8tFlzstpbZ5cIoIwp0Yu8CqjpfmRPmO/gKObf8n84JcPjbZxRemGHgCUmcPe/+M/BVN9DLBnLg5OKFyczIqM0UmMnqP5WId8FCnMEzsR5DlxVl5URo01/wc980/NtjvvGXXTirIS9ACgzCTWXnMyHjr4L2AXfhkWp8SD5B5jsxWOL4jsnbDgTdt13RT0FXp9rEM+ihTmiZ0Iyjgw5juo6l/H1q9+Vv+ErzKL6AFAmWns41dvwZGn/iWAfw6L9Xzx5goaozmJ0XM0H8vNB31FkcI8sRNBmJM+8p8azb/zW/w7bDz3983Z1x6d2jgUZQh6AFDmAvudq96Ao8d/C8D7YW1vedCZBXHu7/obMufa+DgrLyqjwuBpVL3fwyu//w/Mqz9/eFTNKsq40AOAMlfYx648Fy8tfATA1YBdRwefVD73lquGnJZ4vYXzclqQjy5zXk5r8+QSEYQ56V3/VDDme6iqj+Pw4U+ai/Y+N5UxKEoH9ACgzCX24N97FZ594Z/A9Jt/GtjMFnlXN3OLZ+Lzbzvko0hhntiJIM+Js/KiMgqM/TbqNZ/ApnM+rY/6lXlEDwDKXGMff9cWHF5/DSw+BFO/zk+GfeTPVkhaUJ0t0+sIvP5lh3wUKcwTOxGUUeB+nM/cAmv/A7bddYN+c58yz+gBQDkhsM1fGDzwnsvQ7/0ibP/Hmz+qGk+MK4iJNrB4D8kPLd5cvoH793rOy2n6yH+CHERlr0Uf/9lc+NWHJtivoowNPQAoJxz2ofe9Ecde/hCq+oOw9jT+bp4r/kKRZfXA6192yJMIEYSnEdzBQfIqnVi626/Mf8KLL/0vc9He453aUZQZRQ8AygmLtbt6OPD8TizUV8Oavwtg4+Jkc4s3V4wbWj26zHk5rc2TS0QQCr/e9Y8dY/ahrnbD1p8z2/ccGHt/ijIl9ACgrArsQ5dvRl39JPr1B2GqS92PEvqam1t8A1+n4t+GSHdEEIq/3vWPDYMHYar/ioWF68z2r+0fWz+KMkPoAUBZddjHdp2KF55/L6r6vbD4McC2TwaWGFKQBx4cGgbkhx4cBuRJs0RQSli+078eF+65R7+hT1lt6AFAWdXYJ3ZtwtPPXgHYq2DxbsBuiRckKLJDi7dUkLk7d87LafrIf4S8BGPugMH1OL7mi+Yttz8+wrYVZe7QA4CitLifJNh/2Q/AmsthqssBe6n/ZUO+NgtFmtVb79CDQwPXLndwkLwKjzkAU9+Mau2XsOHsm/Tn9RVlGT0AKIqAvfeq78NJL10O9N+NPi6Dqc+hVq5wN3DFm/Nymt71d6bCd2FxE6reTVi74WZz7o1PdG5LUU5w9ACgKJnYfe84A3btJYC9HMZcAlNfIP6+AVLXiaB3/aOg+TW8wB7U1V2w9R79t3xFyUcPAIrSEXv/Za/BgtkJYy8G6h8GcCFg18S1niv8DZye+9RglVKZPqz9BqrenajrPTBmj9l2Z3MAUBSlA3oAUJQRYe/esRYbT9kO078EdW8HbH8HgG1x81zh10f+LM3dva33wq7ZizVmLzZtuMuc9ZWnWa+iKMXoAUBRxoh9+MdejRePbsda+1b0+9thsB3WbgWwdrFb7q6/QTgonJCYw6iwH6j3AeYeV/BPO/1ec/ruF0/I6SrKjKAHAEWZMNbuWod9B9+Eun4zetX5QH0erD0PqM6DrTdNeDgTxDwLi/3o4T707X5UuA+9jftx/o2P6M/gK8rk0QOAoswQ7hsNF9a8EebYuajwOtTVWTA4E8aeBdjXwuKUGRpuTGUOwdrHUdtHYXqPwJpHUC08grV4FEerR832Pc/M7NgVZRWiBwBFmSPcLy46ePAs2N7pWFOfiv7CqUB1Knr9LUDvVNT1qbBmM4BN6GEt6ua3HJp1i7/t0KyDsRthsQ4Gx2DNYTJ1gz4sngfwIgyOoMYL6OEF9O1LqOxhVOZJWBxC1TuEuv8Eqg0HUR87hIPvOmR2/sYCaU9RlJnl/wPOEM8XiiQadgAAAABJRU5ErkJggg==;" vertex="1" parent="1">
          <mxGeometry x="257.5" y="574.75" width="80.5" height="80.5" as="geometry" />
        </mxCell>
        <mxCell id="6XTI--pssBej2aboavZY-12" style="edgeStyle=orthogonalEdgeStyle;rounded=0;orthogonalLoop=1;jettySize=auto;html=1;strokeWidth=4;fillColor=#e51400;strokeColor=#B20000;flowAnimation=1;" edge="1" parent="1" source="6XTI--pssBej2aboavZY-8" target="6XTI--pssBej2aboavZY-6">
          <mxGeometry relative="1" as="geometry" />
        </mxCell>
        <mxCell id="6XTI--pssBej2aboavZY-8" value="&lt;font style=&quot;font-size: 16px;&quot;&gt;&lt;b&gt;Frontend&lt;/b&gt;&lt;/font&gt;" style="rounded=1;whiteSpace=wrap;html=1;shadow=1;" vertex="1" parent="1">
          <mxGeometry x="242" y="370" width="270" height="110" as="geometry" />
        </mxCell>
        <mxCell id="6XTI--pssBej2aboavZY-9" value="" style="shape=image;verticalLabelPosition=bottom;labelBackgroundColor=default;verticalAlign=top;aspect=fixed;imageAspect=0;image=https://dl.flathub.org/media/org/love2d/love2d/452618e361af8bc201e03be215eb0d91/icons/128x128@2/org.love2d.love2d.png;" vertex="1" parent="1">
          <mxGeometry x="252" y="382" width="86" height="86" as="geometry" />
        </mxCell>
        <mxCell id="6XTI--pssBej2aboavZY-13" value="" style="rounded=1;whiteSpace=wrap;html=1;shadow=1;" vertex="1" parent="1">
          <mxGeometry x="-28" y="800" width="270" height="70" as="geometry" />
        </mxCell>
        <mxCell id="6XTI--pssBej2aboavZY-14" value="" style="sketch=0;html=1;dashed=0;whitespace=wrap;fillColor=#2875E2;strokeColor=#ffffff;points=[[0.005,0.63,0],[0.1,0.2,0],[0.9,0.2,0],[0.5,0,0],[0.995,0.63,0],[0.72,0.99,0],[0.5,1,0],[0.28,0.99,0]];shape=mxgraph.kubernetes.icon;prIcon=pod;shadow=1;fontSize=16;" vertex="1" parent="1">
          <mxGeometry x="-8" y="811" width="50" height="48" as="geometry" />
        </mxCell>
        <mxCell id="6XTI--pssBej2aboavZY-15" value="" style="sketch=0;html=1;dashed=0;whitespace=wrap;fillColor=#2875E2;strokeColor=#ffffff;points=[[0.005,0.63,0],[0.1,0.2,0],[0.9,0.2,0],[0.5,0,0],[0.995,0.63,0],[0.72,0.99,0],[0.5,1,0],[0.28,0.99,0]];shape=mxgraph.kubernetes.icon;prIcon=pod;shadow=1;fontSize=16;" vertex="1" parent="1">
          <mxGeometry x="82" y="811" width="50" height="48" as="geometry" />
        </mxCell>
        <mxCell id="6XTI--pssBej2aboavZY-16" value="" style="sketch=0;html=1;dashed=0;whitespace=wrap;fillColor=#2875E2;strokeColor=#ffffff;points=[[0.005,0.63,0],[0.1,0.2,0],[0.9,0.2,0],[0.5,0,0],[0.995,0.63,0],[0.72,0.99,0],[0.5,1,0],[0.28,0.99,0]];shape=mxgraph.kubernetes.icon;prIcon=pod;shadow=1;fontSize=16;" vertex="1" parent="1">
          <mxGeometry x="172" y="811" width="50" height="48" as="geometry" />
        </mxCell>
        <mxCell id="6XTI--pssBej2aboavZY-17" value="" style="sketch=0;aspect=fixed;html=1;points=[];align=center;image;fontSize=12;image=img/lib/mscae/Kubernetes.svg;shadow=1;" vertex="1" parent="1">
          <mxGeometry x="22" y="763" width="50" height="48" as="geometry" />
        </mxCell>
        <mxCell id="6XTI--pssBej2aboavZY-18" value="" style="rounded=1;whiteSpace=wrap;html=1;shadow=1;" vertex="1" parent="1">
          <mxGeometry x="512" y="800" width="270" height="70" as="geometry" />
        </mxCell>
        <mxCell id="6XTI--pssBej2aboavZY-19" value="" style="rounded=1;whiteSpace=wrap;html=1;shadow=1;" vertex="1" parent="1">
          <mxGeometry x="241" y="957" width="270" height="70" as="geometry" />
        </mxCell>
        <mxCell id="6XTI--pssBej2aboavZY-20" value="" style="shape=image;verticalLabelPosition=bottom;labelBackgroundColor=default;verticalAlign=top;aspect=fixed;imageAspect=0;image=https://cdn.iconscout.com/icon/free/png-256/free-amazon-aws-icon-svg-download-png-2944772.png;" vertex="1" parent="1">
          <mxGeometry x="273" y="910" width="66" height="66" as="geometry" />
        </mxCell>
        <mxCell id="6XTI--pssBej2aboavZY-21" value="" style="outlineConnect=0;dashed=0;verticalLabelPosition=bottom;verticalAlign=top;align=center;html=1;shape=mxgraph.aws3.ec2;fillColor=#F58534;gradientColor=none;shadow=1;fontSize=16;" vertex="1" parent="1">
          <mxGeometry x="266" y="965.5" width="40" height="53" as="geometry" />
        </mxCell>
        <mxCell id="6XTI--pssBej2aboavZY-22" value="" style="outlineConnect=0;dashed=0;verticalLabelPosition=bottom;verticalAlign=top;align=center;html=1;shape=mxgraph.aws3.ec2;fillColor=#F58534;gradientColor=none;shadow=1;fontSize=16;" vertex="1" parent="1">
          <mxGeometry x="356" y="965.5" width="40" height="53" as="geometry" />
        </mxCell>
        <mxCell id="6XTI--pssBej2aboavZY-23" value="" style="outlineConnect=0;dashed=0;verticalLabelPosition=bottom;verticalAlign=top;align=center;html=1;shape=mxgraph.aws3.ec2;fillColor=#F58534;gradientColor=none;shadow=1;fontSize=16;" vertex="1" parent="1">
          <mxGeometry x="446" y="965.5" width="40" height="53" as="geometry" />
        </mxCell>
        <mxCell id="6XTI--pssBej2aboavZY-24" value="" style="shape=image;verticalLabelPosition=bottom;labelBackgroundColor=default;verticalAlign=top;aspect=fixed;imageAspect=0;image=https://upload.wikimedia.org/wikipedia/commons/thumb/f/fa/Microsoft_Azure.svg/1200px-Microsoft_Azure.svg.png;" vertex="1" parent="1">
          <mxGeometry x="557" y="760" width="60" height="60" as="geometry" />
        </mxCell>
        <mxCell id="6XTI--pssBej2aboavZY-25" value="" style="shape=image;verticalLabelPosition=bottom;labelBackgroundColor=default;verticalAlign=top;aspect=fixed;imageAspect=0;image=https://symbols.getvecta.com/stencil_27/102_vm-symbol.c0581746e3.png;" vertex="1" parent="1">
          <mxGeometry x="537" y="820" width="40" height="40" as="geometry" />
        </mxCell>
        <mxCell id="6XTI--pssBej2aboavZY-26" value="" style="shape=image;verticalLabelPosition=bottom;labelBackgroundColor=default;verticalAlign=top;aspect=fixed;imageAspect=0;image=https://symbols.getvecta.com/stencil_27/102_vm-symbol.c0581746e3.png;" vertex="1" parent="1">
          <mxGeometry x="627" y="820" width="40" height="40" as="geometry" />
        </mxCell>
        <mxCell id="6XTI--pssBej2aboavZY-27" value="" style="shape=image;verticalLabelPosition=bottom;labelBackgroundColor=default;verticalAlign=top;aspect=fixed;imageAspect=0;image=https://symbols.getvecta.com/stencil_27/102_vm-symbol.c0581746e3.png;" vertex="1" parent="1">
          <mxGeometry x="717" y="820" width="40" height="40" as="geometry" />
        </mxCell>
        <mxCell id="6XTI--pssBej2aboavZY-28" value="" style="rounded=1;whiteSpace=wrap;html=1;shadow=1;dashed=1;fillColor=none;verticalAlign=middle;labelPosition=center;verticalLabelPosition=middle;align=center;horizontal=1;sketch=1;strokeWidth=3;" vertex="1" parent="1">
          <mxGeometry x="-60" y="750" width="870" height="295" as="geometry" />
        </mxCell>
        <mxCell id="6XTI--pssBej2aboavZY-29" value="&lt;b&gt;Test environments&lt;/b&gt;" style="text;html=1;strokeColor=none;fillColor=none;align=center;verticalAlign=middle;whiteSpace=wrap;rounded=0;shadow=1;dashed=1;fontSize=16;" vertex="1" parent="1">
          <mxGeometry x="-73" y="710" width="180" height="30" as="geometry" />
        </mxCell>
        <mxCell id="6XTI--pssBej2aboavZY-33" style="edgeStyle=orthogonalEdgeStyle;rounded=0;orthogonalLoop=1;jettySize=auto;html=1;entryX=0.506;entryY=0.064;entryDx=0;entryDy=0;entryPerimeter=0;strokeWidth=4;fillColor=#e51400;strokeColor=#B20000;flowAnimation=1;" edge="1" parent="1" source="6XTI--pssBej2aboavZY-6" target="6XTI--pssBej2aboavZY-19">
          <mxGeometry relative="1" as="geometry" />
        </mxCell>
      </root>
    </mxGraphModel>
  </diagram>
</mxfile>
